<svg xmlns="http://www.w3.org/2000/svg" data-name="Layer 1" viewBox="0 0 512 640" x="0px" y="0px"><path d="M65.069,397.211H446.931a18.873,18.873,0,0,0,0-37.746H65.069a18.873,18.873,0,0,0,0,37.746Z"/><path d="M265,176.939V159.63h29.325a9,9,0,0,0,9-9V123.789a9,9,0,0,0-9-9h-76.65a9,9,0,0,0-9,9V150.63a9,9,0,0,0,9,9H247v17.309c-90.823,1.782-164.626,74.238-168.572,164.526H433.572C429.626,251.177,355.823,178.721,265,176.939Z"/><text x="0" y="527" fill="#000000" font-size="5px" font-weight="bold" font-family="'Helvetica Neue', Helvetica, Arial-Unicode, Arial, Sans-serif">Created by Astonish</text><text x="0" y="532" fill="#000000" font-size="5px" font-weight="bold" font-family="'Helvetica Neue', Helvetica, Arial-Unicode, Arial, Sans-serif">from the Noun Project</text></svg>