<svg xmlns="http://www.w3.org/2000/svg" viewBox="0 0 64 80" x="0px" y="0px"><title>candy and sweets</title><path d="M63.73,29.5l-11-19a2,2,0,0,0-2.45-.86l-5.16,2A8.51,8.51,0,0,0,41.5,9.75V5.5h-4V9.75a8.51,8.51,0,0,0-6.45,7.34L1.28,28.64A2,2,0,0,0,0,30.5v26a2,2,0,0,0,2,2H62a2,2,0,0,0,2-2v-26a2,2,0,0,0-.28-1ZM39.5,13.5A4.5,4.5,0,1,1,35,18,4.51,4.51,0,0,1,39.5,13.5ZM60,54.5H4v-4H60Zm0-18H4v-4H60Z"/><text x="0" y="79" fill="#000000" font-size="5px" font-weight="bold" font-family="'Helvetica Neue', Helvetica, Arial-Unicode, Arial, Sans-serif">Created by Lagot Design</text><text x="0" y="84" fill="#000000" font-size="5px" font-weight="bold" font-family="'Helvetica Neue', Helvetica, Arial-Unicode, Arial, Sans-serif">from the Noun Project</text></svg>