<svg xmlns:dc="http://purl.org/dc/elements/1.1/" xmlns:cc="http://creativecommons.org/ns#" xmlns:rdf="http://www.w3.org/1999/02/22-rdf-syntax-ns#" xmlns:svg="http://www.w3.org/2000/svg" xmlns="http://www.w3.org/2000/svg" xmlns:sodipodi="http://sodipodi.sourceforge.net/DTD/sodipodi-0.dtd" xmlns:inkscape="http://www.inkscape.org/namespaces/inkscape" version="1.1" x="0px" y="0px" viewBox="0 0 100 125"><g transform="translate(0,-952.36218)"><path d="m 77.840029,963.36215 -12.9996,2.0008 c -0.4019,0.0704 -0.742,0.41078 -0.8125,0.81283 l -2.1874,13.16152 -13.8746,0 c 0.198,-2.70171 -0.3907,-5.48542 -1.8437,-8.00321 -3.8722,-6.8723 -12.5765,-8.82573 -19.1244,-5.12705 -6.6857,3.86162 -8.9849,12.44414 -5.1249,19.13266 3.1484,5.45546 9.4416,7.97346 15.2808,6.62766 l 4.8436,48.48824 c 0.046,0.4917 0.5062,0.9087 1,0.9066 l 29.9991,0 c 0.4938,0 0.9537,-0.4149 1,-0.9066 l 5.9998,-60.02411 c 0.052,-0.55413 -0.4436,-1.09658 -0.9999,-1.09419 l -15.1558,0 2.0311,-12.12986 12.2809,-1.87575 z m -41.7175,3.15751 -2.4687,9.22245 -4.7499,-8.25331 c 2.4837,-1.09577 4.7754,-1.28633 7.2186,-0.96914 z m 1.9374,0.53147 c 2.278,0.82372 4.3194,2.3493 5.7811,4.47054 l -8.2497,4.7519 z m -10.9059,1.43807 4.7499,8.25331 -9.1873,-2.46974 c 0.8238,-2.27304 2.3278,-4.32191 4.4374,-5.78357 z m 17.687,4.75191 c 0.9202,1.95511 1.288,4.05822 1.125,6.09619 l -4.4999,0 -4.9061,-1.31303 z m -22.6556,2.96994 9.2497,2.46973 -8.281,4.78317 c -1.1088,-2.33663 -1.4055,-4.85734 -0.9687,-7.2529 z m 10.2185,4.22044 -2.4687,9.19118 c -2.2843,-0.81993 -4.3143,-2.32285 -5.7811,-4.43928 z m 1.9374,0.53146 2.0624,3.59519 0.5625,5.40841 c -1.6913,0.43387 -3.4179,0.49166 -5.0936,0.18758 z m 3.7499,0.37515 23.4056,0 -2.3125,13.81803 c -8.1201,2.72729 -13.9733,1.59531 -19.6244,0.71905 z m 25.4368,0 14.3745,0 -0.9999,10.09779 c -6.7394,0.5092 -11.2961,1.89594 -15.5933,3.12626 z" style="text-indent:0;text-transform:none;direction:ltr;block-progression:tb;baseline-shift:baseline;color:#000000;enable-background:accumulate;" fill="#000000" fill-opacity="1" stroke="none" marker="none" visibility="visible" display="inline" overflow="visible"/></g><text x="0" y="115" fill="#000000" font-size="5px" font-weight="bold" font-family="'Helvetica Neue', Helvetica, Arial-Unicode, Arial, Sans-serif">Created by Orin zuu</text><text x="0" y="120" fill="#000000" font-size="5px" font-weight="bold" font-family="'Helvetica Neue', Helvetica, Arial-Unicode, Arial, Sans-serif">from the Noun Project</text></svg>