<svg xmlns="http://www.w3.org/2000/svg" xmlns:xlink="http://www.w3.org/1999/xlink" viewBox="0 0 64 80" version="1.1" x="0px" y="0px"><title>39</title><desc>Created with Sketch.</desc><g stroke="none" stroke-width="1" fill="none" fill-rule="evenodd"><g><g fill-rule="nonzero" fill="#000000"><path d="M32,63.5 C14.6030304,63.5 0.5,49.3969696 0.5,32 C0.5,14.6030304 14.6030304,0.5 32,0.5 C49.3969696,0.5 63.5,14.6030304 63.5,32 C63.5,49.3969696 49.3969696,63.5 32,63.5 Z M32,60.5 C47.7401154,60.5 60.5,47.7401154 60.5,32 C60.5,16.2598846 47.7401154,3.5 32,3.5 C16.2598846,3.5 3.5,16.2598846 3.5,32 C3.5,47.7401154 16.2598846,60.5 32,60.5 Z M32,59.5 C16.8121694,59.5 4.5,47.1878306 4.5,32 C4.5,16.8121694 16.8121694,4.5 32,4.5 C47.1878306,4.5 59.5,16.8121694 59.5,32 C59.5,47.1878306 47.1878306,59.5 32,59.5 Z M32,58.5 C46.6355459,58.5 58.5,46.6355459 58.5,32 C58.5,17.3644541 46.6355459,5.5 32,5.5 C17.3644541,5.5 5.5,17.3644541 5.5,32 C5.5,46.6355459 17.3644541,58.5 32,58.5 Z M18.5,41.5 C15.7385763,41.5 13.5,39.2614237 13.5,36.5 C13.5,33.7385763 15.7385763,31.5 18.5,31.5 C21.2614237,31.5 23.5,33.7385763 23.5,36.5 C23.5,39.2614237 21.2614237,41.5 18.5,41.5 Z M16.2199938,16.4490019 C14.4167425,17.3325263 13.4310156,18.4062544 12.7053525,19.97586 C12.5319029,20.3510308 12.4718654,20.5009392 12.1300837,21.3847395 C11.5403849,22.9096193 11.1354914,23.6489706 10.334935,24.3712392 C8.29189292,26.2144885 7.10489628,29.1780209 7.48794735,30.890879 C7.54277371,31.1360416 7.71064306,31.466382 8.01856949,31.9417433 C8.17300234,32.180149 8.87915682,33.2045787 9.05218636,33.4666193 C10.6715922,35.9190913 11.2537777,37.8915763 10.4728247,40.162594 C9.34602026,43.4393506 10.5270959,45.1761575 13.0641035,45.5041263 C13.4733436,45.5570303 13.8452342,45.5499659 14.4192964,45.4952481 C14.5466554,45.4828589 14.5466554,45.4828589 14.6764002,45.4697617 C17.0333558,45.2321209 18.498761,45.5844374 21.2920139,47.5941332 C24.817707,50.1308067 31.916044,45.9704102 33.5341278,41.8184426 C33.7603155,41.2380498 33.8995599,40.6099175 33.9676804,39.9126635 C34.046623,39.1046383 34.034231,38.4059377 33.952129,37.0317678 C33.7979596,34.4513809 33.871017,33.5647032 34.6174961,32.6779895 C36.2291407,30.7635791 36.8055526,27.9488993 35.5998304,26.2944872 C33.8741554,23.9266303 31.462923,21.8176894 27.8261237,20.4687932 C26.5774203,20.0056465 25.5412005,19.3783947 24.1078895,18.3174005 C23.9206248,18.1787797 23.2910412,17.7067414 23.2765726,17.6959447 C22.9549525,17.4559475 22.7126315,17.2792695 22.4775695,17.1151047 C20.2422334,15.5539693 18.6286532,15.2688507 16.2199938,16.4490019 Z M15.7800062,15.5509981 C18.5539429,14.1918749 20.5411815,14.5430187 23.0501454,16.295253 C23.2953524,16.466503 23.5453324,16.6487652 23.8746286,16.8944904 C23.8912617,16.9069022 24.5185203,17.3771973 24.7028572,17.5136509 C26.0668243,18.523314 27.0325192,19.1078752 28.1738763,19.5312068 C32.0224969,20.9586681 34.5765127,23.1924918 36.4079821,25.7055128 C37.9332961,27.7984476 37.2584893,31.0935999 35.3825039,33.3220105 C34.8775471,33.9218292 34.8141065,34.6917906 34.9503489,36.9721276 C35.0354795,38.3969881 35.0485456,39.1336928 34.9629418,40.0098987 C34.8863825,40.79353 34.7275121,41.5101952 34.4658722,42.1815574 C32.642482,46.8603366 24.8818671,51.4089 20.7079861,48.4058668 C18.120726,46.5443792 16.8992599,46.2507112 14.776717,46.4647173 C14.6463183,46.4778819 14.6463183,46.4778819 14.5141833,46.4907361 C13.8722115,46.5519269 13.4339034,46.560253 12.9358965,46.4958737 C9.79009807,46.0892042 8.18765004,43.7327566 9.52717531,39.837406 C10.1828909,37.9305795 9.68290593,36.2365954 8.2176981,34.017645 C8.05297306,33.7681809 7.34343833,32.7388475 7.179273,32.4854173 C6.81112854,31.9170944 6.59969598,31.5010285 6.51205265,31.109121 C6.04353602,29.0140935 7.37186315,25.6977063 9.66506497,23.6287608 C10.3155591,23.0418797 10.6610126,22.4110681 11.1973968,21.0240525 C11.5485323,20.1160645 11.611357,19.9591965 11.7976639,19.5562156 C12.6154785,17.7872868 13.7597723,16.5408356 15.7800062,15.5509981 Z"/></g><g transform="translate(44.298322, 15.695983) rotate(40.000000) translate(-44.298322, -15.695983) translate(26.798322, 11.195983)"><path d="M5,3.21453421 C7.72892149,1.57614925 11.4671103,0.5 18,0.5 C24.5328897,0.5 27.2605835,1.00034913 31,3.21453421 C32.2696515,3.96632088 32.6894639,5.6050203 31.9376772,6.87467181 C31.3170091,7.92288441 30.0658751,8.4185204 28.8957468,8.07973074 C25.3419109,7.05080921 21.7453907,6.53633554 18.106179,6.53633554 C14.448102,6.53633554 10.7833134,7.05615695 7.11181294,8.09579979 C5.68623678,8.49952502 4.20332244,7.67110204 3.79964444,6.2455125 C3.46962732,5.08005648 3.96150936,3.83802135 5,3.21453421 Z" fill="#000000" fill-rule="nonzero"/><path d="M2.6045028,7.73514212 L1.89078928,5.77423032 C1.87968196,5.74371322 1.8459387,5.72797848 1.8154216,5.7390858 C1.7849045,5.75019312 1.76916976,5.78393637 1.78027708,5.81445347 L2.46697389,7.70113747 C2.47808121,7.73165457 2.51182446,7.74738931 2.54234157,7.73628199 L2.54526524,7.73514212 L2.6045028,7.73514212 Z M2.87086499,7.73514212 L2.93010256,7.73514212 L2.93302623,7.73628199 C2.96354333,7.74738931 2.99728658,7.73165457 3.0083939,7.70113747 L3.69509072,5.81445347 C3.70619803,5.78393637 3.69046329,5.75019312 3.65994619,5.7390858 C3.62942909,5.72797848 3.59568583,5.74371322 3.58457852,5.77423032 L2.87086499,7.73514212 Z M2.87086499,7.73514212 L2.7376839,8.10105417 L2.6045028,7.73514212 L2.87086499,7.73514212 Z" stroke="#000000" transform="translate(2.737684, 6.737684) rotate(-115.000000) translate(-2.737684, -6.737684) "/><path d="M32.6045028,7.73514212 L31.8907893,5.77423032 C31.879682,5.74371322 31.8459387,5.72797848 31.8154216,5.7390858 C31.7849045,5.75019312 31.7691698,5.78393637 31.7802771,5.81445347 L32.4669739,7.70113747 C32.4780812,7.73165457 32.5118245,7.74738931 32.5423416,7.73628199 L32.5452652,7.73514212 L32.6045028,7.73514212 Z M32.870865,7.73514212 L32.9301026,7.73514212 L32.9330262,7.73628199 C32.9635433,7.74738931 32.9972866,7.73165457 33.0083939,7.70113747 L33.6950907,5.81445347 C33.706198,5.78393637 33.6904633,5.75019312 33.6599462,5.7390858 C33.6294291,5.72797848 33.5956858,5.74371322 33.5845785,5.77423032 L32.870865,7.73514212 Z M32.870865,7.73514212 L32.7376839,8.10105417 L32.6045028,7.73514212 L32.870865,7.73514212 Z" stroke="#000000" transform="translate(32.737684, 6.737684) scale(-1, 1) rotate(-115.000000) translate(-32.737684, -6.737684) "/></g><g transform="translate(36.298322, 19.695983) rotate(40.000000) translate(-36.298322, -19.695983) translate(18.798322, 15.195983)"><path d="M5,3.21453421 C7.72892149,1.57614925 11.4671103,0.5 18,0.5 C24.5328897,0.5 27.2605835,1.00034913 31,3.21453421 C32.2696515,3.96632088 32.6894639,5.6050203 31.9376772,6.87467181 C31.3170091,7.92288441 30.0658751,8.4185204 28.8957468,8.07973074 C25.3419109,7.05080921 21.7453907,6.53633554 18.106179,6.53633554 C14.448102,6.53633554 10.7833134,7.05615695 7.11181294,8.09579979 C5.68623678,8.49952502 4.20332244,7.67110204 3.79964444,6.2455125 C3.46962732,5.08005648 3.96150936,3.83802135 5,3.21453421 Z" fill="#000000" fill-rule="nonzero"/><path d="M2.6045028,7.73514212 L1.89078928,5.77423032 C1.87968196,5.74371322 1.8459387,5.72797848 1.8154216,5.7390858 C1.7849045,5.75019312 1.76916976,5.78393637 1.78027708,5.81445347 L2.46697389,7.70113747 C2.47808121,7.73165457 2.51182446,7.74738931 2.54234157,7.73628199 L2.54526524,7.73514212 L2.6045028,7.73514212 Z M2.87086499,7.73514212 L2.93010256,7.73514212 L2.93302623,7.73628199 C2.96354333,7.74738931 2.99728658,7.73165457 3.0083939,7.70113747 L3.69509072,5.81445347 C3.70619803,5.78393637 3.69046329,5.75019312 3.65994619,5.7390858 C3.62942909,5.72797848 3.59568583,5.74371322 3.58457852,5.77423032 L2.87086499,7.73514212 Z M2.87086499,7.73514212 L2.7376839,8.10105417 L2.6045028,7.73514212 L2.87086499,7.73514212 Z" stroke="#000000" transform="translate(2.737684, 6.737684) rotate(-115.000000) translate(-2.737684, -6.737684) "/><path d="M32.6045028,7.73514212 L31.8907893,5.77423032 C31.879682,5.74371322 31.8459387,5.72797848 31.8154216,5.7390858 C31.7849045,5.75019312 31.7691698,5.78393637 31.7802771,5.81445347 L32.4669739,7.70113747 C32.4780812,7.73165457 32.5118245,7.74738931 32.5423416,7.73628199 L32.5452652,7.73514212 L32.6045028,7.73514212 Z M32.870865,7.73514212 L32.9301026,7.73514212 L32.9330262,7.73628199 C32.9635433,7.74738931 32.9972866,7.73165457 33.0083939,7.70113747 L33.6950907,5.81445347 C33.706198,5.78393637 33.6904633,5.75019312 33.6599462,5.7390858 C33.6294291,5.72797848 33.5956858,5.74371322 33.5845785,5.77423032 L32.870865,7.73514212 Z M32.870865,7.73514212 L32.7376839,8.10105417 L32.6045028,7.73514212 L32.870865,7.73514212 Z" stroke="#000000" transform="translate(32.737684, 6.737684) scale(-1, 1) rotate(-115.000000) translate(-32.737684, -6.737684) "/></g><path d="M51.5118113,50.2019597 C50.6608516,50.2487234 49.8836881,49.8220542 49.6156363,49.0855877 C49.2756297,48.1514275 49.8835009,47.072573 50.9733545,46.6758987 L53.6044938,45.7182423 C54.6943474,45.321568 55.8534781,45.7572865 56.1934846,46.6914467 C56.4615365,47.4279132 56.1404524,48.2543118 55.4585203,48.7654751 L56.1091875,50.5531684 C56.449194,51.4873286 55.8413228,52.5661831 54.7514692,52.9628574 C53.6616156,53.3595316 52.502485,52.9238132 52.1624784,51.989653 L51.5118113,50.2019597 Z M47.5285821,42.2019597 L46.8779149,43.989653 C46.5379084,44.9238132 45.3787778,45.3595316 44.2889242,44.9628574 C43.1990706,44.5661831 42.5911994,43.4873286 42.9312059,42.5531684 L43.5818731,40.7654751 C42.899941,40.2543118 42.5788569,39.4279132 42.8469088,38.6914467 C43.1869153,37.7572865 44.3460459,37.321568 45.4358995,37.7182423 L48.0670389,38.6758987 C49.1568925,39.072573 49.7647636,40.1514275 49.4247571,41.0855877 C49.1567052,41.8220542 48.3795417,42.2487234 47.5285821,42.2019597 Z M43.9857252,52.6302746 L42.1122039,52.9606269 C41.1331942,53.1332528 40.1762856,52.3472754 39.9748888,51.2050974 C39.773492,50.0629193 40.4038718,48.9970602 41.3828816,48.8244344 L43.2564029,48.494082 C43.3581172,47.6479299 43.9132574,46.9566636 44.685082,46.8205701 C45.6640918,46.6479442 46.6210003,47.4339216 46.8223972,48.5760996 L47.308612,51.3335614 C47.5100089,52.4757394 46.879629,53.5415985 45.9006193,53.7142244 C45.1287946,53.8503179 44.3707065,53.3906091 43.9857252,52.6302746 Z M51.5546814,49.183007 L52.3662509,49.138408 L53.2587865,51.5906295 C53.4099005,52.0058118 53.9250697,52.1994644 54.4094491,52.0231648 C54.8938284,51.8468651 55.1639934,51.3673742 55.0128794,50.9521919 L54.1203438,48.4999704 L54.7707097,48.0124684 C55.0797061,47.7808507 55.2141044,47.4117269 55.0971765,47.0904702 C54.9460625,46.6752879 54.4308934,46.4816352 53.946514,46.6579349 L51.3153746,47.6155913 C50.8309953,47.791891 50.5608303,48.2713819 50.7119443,48.6865642 C50.8288722,49.0078209 51.1690954,49.2041965 51.5546814,49.183007 Z M47.4857119,41.183007 C47.8712979,41.2041965 48.2115212,41.0078209 48.3284491,40.6865642 C48.4795631,40.2713819 48.2093981,39.791891 47.7250187,39.6155913 L45.0938794,38.6579349 C44.6095,38.4816352 44.0943308,38.6752879 43.9432168,39.0904702 C43.826289,39.4117269 43.9606873,39.7808507 44.2696837,40.0124684 L44.9200496,40.4999704 L44.027514,42.9521919 C43.8764,43.3673742 44.1465649,43.8468651 44.6309443,44.0231648 C45.1153237,44.1994644 45.6304929,44.0058118 45.7816069,43.5906295 L46.6741425,41.138408 L47.4857119,41.183007 Z M44.8467291,52.0836716 C45.0211714,52.4281936 45.3613493,52.6246478 45.6980297,52.565282 C46.1331452,52.4885594 46.413314,52.0148442 46.3238043,51.5072095 L45.8375894,48.7497478 C45.7480797,48.2421131 45.322787,47.8927899 44.8876716,47.9695125 C44.5509912,48.0288783 44.2985198,48.3298325 44.2524311,48.7132401 L44.155425,49.5202245 L41.5854711,49.9733768 C41.1503557,50.0500993 40.8701868,50.5238145 40.9596965,51.0314492 C41.0492062,51.5390839 41.4744989,51.8884072 41.9096144,51.8116846 L44.4795683,51.3585323 L44.8467291,52.0836716 Z M38.658898,47.3474056 L37.011351,48.2986173 C36.1504242,48.7956736 34.9824042,48.3843784 34.4025052,47.3799639 C33.8226062,46.3755494 34.0504242,45.1583669 34.911351,44.6613106 L36.558898,43.7100989 C36.3650771,42.8801876 36.6503112,42.0407407 37.3290424,41.648875 C38.1899691,41.1518187 39.3579892,41.5631139 39.9378881,42.5675284 L41.3378881,44.9923995 C41.9177871,45.996814 41.6899691,47.2139966 40.8290424,47.7110528 C40.1503112,48.1029185 39.2807118,47.930215 38.658898,47.3474056 Z M39.2810277,46.5392861 C39.5627834,46.8033681 39.9496373,46.871627 40.2457091,46.7006899 C40.6283432,46.479776 40.7295956,45.938806 40.4718627,45.4923995 L39.0718627,43.0675284 C38.8141299,42.6211219 38.2950098,42.4383241 37.9123757,42.659238 C37.616304,42.8301751 37.4819909,43.1993299 37.5698148,43.5753784 L37.7546639,44.3668738 L35.4946843,45.6716736 C35.1120502,45.8925875 35.0107978,46.4335575 35.2685306,46.8799639 C35.5262635,47.3263704 36.0453835,47.5091682 36.4280176,47.2882543 L38.6879972,45.9834545 L39.2810277,46.5392861 Z M28.5118113,42.2019597 C27.6608516,42.2487234 26.8836881,41.8220542 26.6156363,41.0855877 C26.2756297,40.1514275 26.8835009,39.072573 27.9733545,38.6758987 L30.6044938,37.7182423 C31.6943474,37.321568 32.8534781,37.7572865 33.1934846,38.6914467 C33.4615365,39.4279132 33.1404524,40.2543118 32.4585203,40.7654751 L33.1091875,42.5531684 C33.449194,43.4873286 32.8413228,44.5661831 31.7514692,44.9628574 C30.6616156,45.3595316 29.502485,44.9238132 29.1624784,43.989653 L28.5118113,42.2019597 Z M28.5546814,41.183007 L29.3662509,41.138408 L30.2587865,43.5906295 C30.4099005,44.0058118 30.9250697,44.1994644 31.4094491,44.0231648 C31.8938284,43.8468651 32.1639934,43.3673742 32.0128794,42.9521919 L31.1203438,40.4999704 L31.7707097,40.0124684 C32.0797061,39.7808507 32.2141044,39.4117269 32.0971765,39.0904702 C31.9460625,38.6752879 31.4308934,38.4816352 30.946514,38.6579349 L28.3153746,39.6155913 C27.8309953,39.791891 27.5608303,40.2713819 27.7119443,40.6865642 C27.8288722,41.0078209 28.1690954,41.2041965 28.5546814,41.183007 Z" fill="#000000" fill-rule="nonzero" transform="translate(42.020197, 45.654795) rotate(-50.000000) translate(-42.020197, -45.654795) "/></g></g><text x="0" y="79" fill="#000000" font-size="5px" font-weight="bold" font-family="'Helvetica Neue', Helvetica, Arial-Unicode, Arial, Sans-serif">Created by Lero Keller</text><text x="0" y="84" fill="#000000" font-size="5px" font-weight="bold" font-family="'Helvetica Neue', Helvetica, Arial-Unicode, Arial, Sans-serif">from the Noun Project</text></svg>