<svg xmlns="http://www.w3.org/2000/svg" xmlns:xlink="http://www.w3.org/1999/xlink" version="1.1" x="0px" y="0px" viewBox="0 0 52 65" enable-background="new 0 0 52 52" xml:space="preserve"><path d="M42.9222527,18.0375748c-1.6300049-2.2899771-3.7799683-3.7000113-6.2000122-4.0700064  c-1.2099609-0.1799927-2.4699707-0.0999756-3.6999512,0.2399902c-1.810976,0.5048218-3.6995258,0.7977905-5.6035175,0.8980713  c0.0272217-0.4083252,0.048584-0.8077393,0.0591431-1.1934814c0.3822021,0.0405273,0.7675781,0.0654297,1.1543579,0.0654297  c5.0199604,0,9.3599873-3.75,10.0899677-8.7299805c0.0400391-0.2600098-0.039978-0.5300293-0.1999512-0.75  c-0.1600342-0.210022-0.4100342-0.3600464-0.6700439-0.4000244c-0.4899902-0.0700073-0.9899902-0.0999753-1.4799805-0.0999753  c-3.9246826,0-7.4205952,2.2882078-9.1180439,5.6571045c-0.7740479-5.2503667-3.1399536-7.3080444-3.2736816-7.4203491  c-0.4228516-0.3535157-1.0419922-0.294922-1.3984375,0.1210938c-0.3554688,0.4165039-0.3056641,1.0458984,0.1074219,1.40625  c0.0348511,0.0301514,3.3218384,3.0306394,2.7232056,11.3713989c-2.1844482-0.0476685-4.3621826-0.3474731-6.4404907-0.9255371  c-1.2299805-0.3399658-2.4899902-0.4199829-3.6999512-0.2399902c-2.4200439,0.3699951-4.5700073,1.7800293-6.2000122,4.0700064  c-2.7399898,3.8499756-3.730041,9.7399902-2.6300044,15.7800293c1.6699824,9.2199707,7.7000117,16.1799927,14.0100098,16.1799927  c0.4299927,0,0.8599854-0.0300293,1.289978-0.0900269c1.5499878-0.2399902,2.9799805-0.9000244,4.2600098-1.9799805  c1.2799683,1.0799561,2.7099609,1.7399902,4.2600098,1.9799805c0.4199829,0.0599976,0.8499756,0.0900269,1.2799683,0.0900269  c6.3200092,0,12.3400288-6.960022,14.0200214-16.1799927C46.6522331,27.777565,45.6722527,21.8875504,42.9222527,18.0375748z"/><text x="0" y="67" fill="#000000" font-size="5px" font-weight="bold" font-family="'Helvetica Neue', Helvetica, Arial-Unicode, Arial, Sans-serif">Created by DinosoftLab</text><text x="0" y="72" fill="#000000" font-size="5px" font-weight="bold" font-family="'Helvetica Neue', Helvetica, Arial-Unicode, Arial, Sans-serif">from the Noun Project</text></svg>