<svg xmlns="http://www.w3.org/2000/svg" xmlns:xlink="http://www.w3.org/1999/xlink" version="1.1" x="0px" y="0px" viewBox="0 0 100 125" enable-background="new 0 0 100 100" xml:space="preserve"><rect fill="none" width="100" height="100"/><g><path d="M66.701,29.409c0,0-0.647-3.325-4.214-4.217l-0.892-3.566c0,0,1.052-0.082,1.052-2.515H49.999H37.353   c0,2.433,1.055,2.515,1.055,2.515l-0.892,3.566c-3.566,0.892-4.216,4.217-4.216,4.217s-4.703,44.914-4.703,51.4   c0,0.238,0.017,0.468,0.049,0.69c0.836,5.866,12.273,6.769,12.273,6.769h9.08h9.082c0,0,11.438-0.902,12.275-6.769   c0.03-0.223,0.047-0.452,0.047-0.69C71.403,74.323,66.701,29.409,66.701,29.409z"/><path d="M49.999,18.189h12.648h1.001v-3.197c0-1.801-1.882-3.261-4.203-3.261H40.555c-2.319,0-4.201,1.46-4.201,3.261v3.197h0.999   H49.999z M60.803,15.477c0.394,0,0.711,0.317,0.711,0.707c0,0.393-0.317,0.71-0.711,0.71c-0.391,0-0.708-0.317-0.708-0.71   C60.095,15.794,60.412,15.477,60.803,15.477z M57.926,12.84c0.393,0,0.709,0.317,0.709,0.709c0,0.393-0.316,0.71-0.709,0.71   s-0.71-0.317-0.71-0.71C57.216,13.157,57.533,12.84,57.926,12.84z M53.427,15.477c0.392,0,0.709,0.317,0.709,0.707   c0,0.393-0.317,0.71-0.709,0.71c-0.393,0-0.71-0.317-0.71-0.71C52.717,15.794,53.034,15.477,53.427,15.477z M50.711,12.84   c0.39,0,0.707,0.317,0.707,0.709c0,0.393-0.317,0.71-0.707,0.71c-0.393,0-0.712-0.317-0.712-0.71   C49.999,13.157,50.318,12.84,50.711,12.84z M45.317,14.435c0.393,0,0.71,0.317,0.71,0.709c0,0.393-0.317,0.71-0.71,0.71   c-0.39,0-0.709-0.317-0.709-0.71C44.608,14.752,44.928,14.435,45.317,14.435z M41.224,12.84c0.393,0,0.71,0.317,0.71,0.709   c0,0.393-0.317,0.71-0.71,0.71c-0.39,0-0.709-0.317-0.709-0.71C40.515,13.157,40.834,12.84,41.224,12.84z M38.59,15.854   c0.392,0,0.709,0.317,0.709,0.707c0,0.395-0.317,0.712-0.709,0.712c-0.393,0-0.71-0.317-0.71-0.712   C37.88,16.171,38.197,15.854,38.59,15.854z"/></g><text x="0" y="115" fill="#000000" font-size="5px" font-weight="bold" font-family="'Helvetica Neue', Helvetica, Arial-Unicode, Arial, Sans-serif">Created by Marco Livolsi</text><text x="0" y="120" fill="#000000" font-size="5px" font-weight="bold" font-family="'Helvetica Neue', Helvetica, Arial-Unicode, Arial, Sans-serif">from the Noun Project</text></svg>