<svg width="253" height="251" viewBox="0 0 253 251" fill="none" xmlns="http://www.w3.org/2000/svg">
<g clip-path="url(#clip0)">
<path d="M49.0558 141.689L42.8431 147.794L140.267 245.938L146.479 239.834L49.0558 141.689Z" fill="#CCCCCC"/>
<path d="M23.4966 102.199L45.0549 124.04C45.4724 124.463 45.7053 125.034 45.7023 125.628C45.6993 126.222 45.4607 126.789 45.0389 127.206C44.6172 127.623 44.0469 127.854 43.4535 127.85C42.8601 127.845 42.2922 127.605 41.8747 127.182L17.0908 102.074C14.477 102.374 11.9795 103.316 9.82057 104.816L36.8237 132.173C37.2409 132.596 37.4736 133.167 37.4705 133.761C37.4674 134.354 37.2288 134.922 36.8072 135.339C36.3855 135.755 35.8154 135.987 35.2221 135.982C34.6288 135.978 34.0609 135.738 33.6434 135.316L6.64029 107.959C5.11371 110.1 4.14091 112.587 3.80851 115.198L28.5924 140.306C29.0097 140.729 29.2423 141.3 29.2392 141.894C29.2361 142.488 28.9975 143.055 28.5759 143.472C28.1542 143.888 27.5841 144.12 26.9908 144.116C26.3975 144.111 25.8296 143.871 25.4121 143.449L3.85381 121.608C4.84907 128.702 8.8132 136.553 15.3619 143.188C27.533 155.518 44.0163 158.976 52.1784 150.911C60.3406 142.846 57.0907 126.313 44.9197 113.982C38.371 107.348 30.5743 103.284 23.4966 102.199Z" fill="#CCCCCC"/>
<path d="M78.1964 119.685L69.741 121.379L97.1167 256.673L105.572 254.98L78.1964 119.685Z" fill="#CCCCCC"/>
<path d="M75.4604 129.716C86.9402 127.417 93.4523 111.743 90.0054 94.7086C86.5586 77.6738 74.4581 65.7282 62.9782 68.0273C51.4984 70.3264 44.9863 85.9997 48.4332 103.034C51.88 120.069 63.9805 132.015 75.4604 129.716Z" fill="#CCCCCC"/>
<path d="M74.3256 124.108C83.4706 122.276 88.5979 109.493 85.7777 95.5553C82.9576 81.6177 73.2579 71.8038 64.113 73.6353C54.968 75.4668 49.8407 88.2502 52.6608 102.188C55.481 116.125 65.1807 125.939 74.3256 124.108Z" fill="#868A91"/>
<path d="M126.5 251C196.364 251 253 247.767 253 243.779C253 239.791 196.364 236.558 126.5 236.558C56.636 236.558 0 239.791 0 243.779C0 247.767 56.636 251 126.5 251Z" fill="#E6E6E6"/>
<path d="M33.323 241.743C25.7356 246.464 18.1483 246.462 10.5609 241.737C10.3207 241.59 10.1257 241.38 9.99691 241.131C9.86817 240.881 9.81067 240.601 9.83066 240.321L12.1982 209.701H31.3471L34.0519 240.31C34.0752 240.593 34.0195 240.876 33.8908 241.129C33.7622 241.382 33.5656 241.595 33.323 241.743Z" fill="#3F3D56"/>
<path d="M21.6843 213.511C27.0209 213.511 31.3471 211.96 31.3471 210.047C31.3471 208.134 27.0209 206.584 21.6843 206.584C16.3477 206.584 12.0215 208.134 12.0215 210.047C12.0215 211.96 16.3477 213.511 21.6843 213.511Z" fill="#3F3D56"/>
<path d="M29.2581 208.878C24.223 212.402 19.3488 212.402 14.6353 208.878V203.336H29.2581V208.878Z" fill="#8138D9"/>
<path d="M21.9467 206.107C25.9847 206.107 29.2581 204.866 29.2581 203.336C29.2581 201.806 25.9847 200.565 21.9467 200.565C17.9087 200.565 14.6353 201.806 14.6353 203.336C14.6353 204.866 17.9087 206.107 21.9467 206.107Z" fill="#8138D9"/>
<path d="M22.2949 203.336C22.6795 203.336 22.9912 203.181 22.9912 202.99C22.9912 202.798 22.6795 202.643 22.2949 202.643C21.9103 202.643 21.5986 202.798 21.5986 202.99C21.5986 203.181 21.9103 203.336 22.2949 203.336Z" fill="#E6E6E6"/>
<path d="M25.5829 203.336C25.9674 203.336 26.2792 203.181 26.2792 202.99C26.2792 202.798 25.9674 202.643 25.5829 202.643C25.1983 202.643 24.8865 202.798 24.8865 202.99C24.8865 203.181 25.1983 203.336 25.5829 203.336Z" fill="#E6E6E6"/>
<path d="M23.9389 204.154C24.3234 204.154 24.6352 203.999 24.6352 203.807C24.6352 203.616 24.3234 203.461 23.9389 203.461C23.5543 203.461 23.2426 203.616 23.2426 203.807C23.2426 203.999 23.5543 204.154 23.9389 204.154Z" fill="#E6E6E6"/>
<path d="M17.3629 204.154C17.7475 204.154 18.0592 203.999 18.0592 203.807C18.0592 203.616 17.7475 203.461 17.3629 203.461C16.9783 203.461 16.6666 203.616 16.6666 203.807C16.6666 203.999 16.9783 204.154 17.3629 204.154Z" fill="#E6E6E6"/>
<path d="M19.0069 203.336C19.3914 203.336 19.7032 203.181 19.7032 202.99C19.7032 202.798 19.3914 202.643 19.0069 202.643C18.6223 202.643 18.3105 202.798 18.3105 202.99C18.3105 203.181 18.6223 203.336 19.0069 203.336Z" fill="#E6E6E6"/>
<path d="M20.6509 204.563C21.0355 204.563 21.3472 204.408 21.3472 204.216C21.3472 204.025 21.0355 203.87 20.6509 203.87C20.2663 203.87 19.9546 204.025 19.9546 204.216C19.9546 204.408 20.2663 204.563 20.6509 204.563Z" fill="#E6E6E6"/>
<path d="M243.577 241.743C235.99 246.464 228.402 246.462 220.815 241.737C220.575 241.59 220.38 241.38 220.251 241.131C220.122 240.881 220.065 240.601 220.085 240.321L222.452 209.701H241.601L244.306 240.31C244.329 240.593 244.274 240.876 244.145 241.129C244.016 241.382 243.82 241.595 243.577 241.743Z" fill="#3F3D56"/>
<path d="M231.938 213.511C237.275 213.511 241.601 211.96 241.601 210.047C241.601 208.134 237.275 206.584 231.938 206.584C226.602 206.584 222.276 208.134 222.276 210.047C222.276 211.96 226.602 213.511 231.938 213.511Z" fill="#3F3D56"/>
<path d="M239.512 208.878C234.477 212.402 229.603 212.402 224.889 208.878V203.336H239.512V208.878Z" fill="#8138D9"/>
<path d="M232.201 206.107C236.239 206.107 239.512 204.866 239.512 203.336C239.512 201.806 236.239 200.565 232.201 200.565C228.163 200.565 224.889 201.806 224.889 203.336C224.889 204.866 228.163 206.107 232.201 206.107Z" fill="#8138D9"/>
<path d="M232.549 203.336C232.934 203.336 233.245 203.181 233.245 202.99C233.245 202.798 232.934 202.643 232.549 202.643C232.164 202.643 231.853 202.798 231.853 202.99C231.853 203.181 232.164 203.336 232.549 203.336Z" fill="#E6E6E6"/>
<path d="M235.837 203.336C236.222 203.336 236.533 203.181 236.533 202.99C236.533 202.798 236.222 202.643 235.837 202.643C235.452 202.643 235.141 202.798 235.141 202.99C235.141 203.181 235.452 203.336 235.837 203.336Z" fill="#E6E6E6"/>
<path d="M234.193 204.154C234.578 204.154 234.889 203.999 234.889 203.807C234.889 203.616 234.578 203.461 234.193 203.461C233.808 203.461 233.497 203.616 233.497 203.807C233.497 203.999 233.808 204.154 234.193 204.154Z" fill="#E6E6E6"/>
<path d="M227.617 204.154C228.002 204.154 228.313 203.999 228.313 203.807C228.313 203.616 228.002 203.461 227.617 203.461C227.232 203.461 226.921 203.616 226.921 203.807C226.921 203.999 227.232 204.154 227.617 204.154Z" fill="#E6E6E6"/>
<path d="M229.261 203.336C229.646 203.336 229.957 203.181 229.957 202.99C229.957 202.798 229.646 202.643 229.261 202.643C228.876 202.643 228.565 202.798 228.565 202.99C228.565 203.181 228.876 203.336 229.261 203.336Z" fill="#E6E6E6"/>
<path d="M230.905 204.563C231.29 204.563 231.601 204.408 231.601 204.216C231.601 204.025 231.29 203.87 230.905 203.87C230.52 203.87 230.209 204.025 230.209 204.216C230.209 204.408 230.52 204.563 230.905 204.563Z" fill="#E6E6E6"/>
<path d="M86.2443 231.851V239.481C86.2443 241.768 104.304 243.607 126.585 243.607C148.865 243.607 166.925 241.768 166.925 239.481V231.851H86.2443Z" fill="#8138D9"/>
<path d="M126.587 244.012C110.215 244.012 85.8393 242.796 85.8393 239.481V231.851C85.8393 231.748 85.8815 231.648 85.9542 231.574C86.0285 231.502 86.1289 231.46 86.2323 231.46H166.928C167.033 231.46 167.133 231.502 167.206 231.574C167.28 231.648 167.321 231.748 167.321 231.851V239.481C167.306 242.796 142.959 244.012 126.587 244.012ZM86.6543 232.256V239.495C86.6543 239.495 86.7852 240.943 98.1073 242.029C105.704 242.811 115.818 243.231 126.587 243.231C137.356 243.231 147.456 242.811 155.067 242.029C166.389 240.871 166.52 239.51 166.52 239.495V232.256H86.6543Z" fill="#8138D9"/>
<g opacity="0.3">
<path opacity="0.3" d="M86.2505 231.851V239.481C86.2505 241.768 104.312 243.607 126.592 243.607C148.873 243.607 166.933 241.768 166.933 239.481V231.851H86.2505Z" fill="white"/>
<path opacity="0.3" d="M126.587 244.012C110.215 244.012 85.8393 242.796 85.8393 239.481V231.851C85.8393 231.748 85.8815 231.648 85.9542 231.574C86.0285 231.502 86.1289 231.46 86.2323 231.46H166.928C167.033 231.46 167.133 231.502 167.206 231.574C167.28 231.648 167.321 231.748 167.321 231.851V239.481C167.306 242.796 142.959 244.012 126.587 244.012ZM86.6543 232.256V239.495C86.6543 239.495 86.7852 240.943 98.1073 242.029C105.704 242.811 115.818 243.231 126.587 243.231C137.356 243.231 147.456 242.811 155.067 242.029C166.389 240.871 166.52 239.51 166.52 239.495V232.256H86.6543Z" fill="white"/>
</g>
<path opacity="0.2" d="M86.2443 231.851V234.428C87.5148 235.193 88.8857 235.777 90.3191 236.166C92.9241 236.947 95.5581 237.7 98.2359 238.265C105.22 239.582 112.292 240.382 119.396 240.654C123.005 240.871 126.672 241.001 130.267 240.972C133.585 240.972 136.874 240.524 140.192 240.451C141.851 240.451 144.165 240.321 144.965 242.16C145.093 242.469 145.195 242.789 145.271 243.115C158.135 242.42 166.911 241.045 166.911 239.452V231.822L86.2443 231.851Z" fill="black"/>
<path d="M209.246 172.504C209.246 172.504 213.219 238.772 129.464 238.772H123.643C39.8917 238.772 43.8646 172.49 43.8646 172.49L209.246 172.504Z" fill="#8138D9"/>
<path d="M129.467 239.18H123.646C95.5157 239.18 74.1667 231.753 60.356 217.101C42.165 197.903 43.4601 172.739 43.4747 172.493C43.4776 172.392 43.5213 172.296 43.5941 172.225C43.6668 172.156 43.7658 172.117 43.8676 172.117H209.188C209.29 172.117 209.392 172.156 209.464 172.225C209.537 172.296 209.581 172.392 209.581 172.493C209.581 172.739 210.891 197.903 192.7 217.101C178.889 231.753 157.598 239.18 129.467 239.18ZM44.3042 172.899C44.2169 176.069 44.3043 198.96 60.9964 216.565C74.7197 231.043 95.8067 238.398 123.704 238.398H129.526C157.423 238.398 178.525 231.058 192.234 216.565C208.984 198.887 208.999 176.026 208.926 172.899H44.3042Z" fill="#8138D9"/>
<g opacity="0.3">
<path opacity="0.3" d="M209.248 172.51C209.248 172.51 213.221 238.777 129.467 238.777H123.646C39.8939 238.777 43.8668 172.496 43.8668 172.496L209.248 172.51Z" fill="white"/>
<path opacity="0.3" d="M129.467 239.18H123.646C95.5157 239.18 74.1667 231.753 60.356 217.101C42.165 197.903 43.4601 172.739 43.4747 172.493C43.4776 172.392 43.5213 172.296 43.5941 172.225C43.6668 172.156 43.7658 172.117 43.8676 172.117H209.188C209.29 172.117 209.392 172.156 209.464 172.225C209.537 172.296 209.581 172.392 209.581 172.493C209.581 172.739 210.891 197.903 192.7 217.101C178.889 231.753 157.598 239.18 129.467 239.18ZM44.3042 172.899C44.2169 176.069 44.3043 198.96 60.9964 216.565C74.7197 231.043 95.8067 238.398 123.704 238.398H129.526C157.423 238.398 178.525 231.058 192.234 216.565C208.984 198.887 208.999 176.026 208.926 172.899H44.3042Z" fill="white"/>
</g>
<path opacity="0.2" d="M209.246 172.506H191.23C191.171 179.51 190.342 186.487 188.756 193.311C186.532 203.748 181.088 213.233 173.186 220.445C165.604 227.249 156.057 231.128 146.19 233.314C135.3 235.884 124.099 236.898 112.922 236.326C101.609 235.469 90.4689 233.067 79.8148 229.188C76.8343 228.156 73.918 226.948 71.0831 225.568C82.8272 233.343 99.6212 238.787 123.619 238.787H129.44C213.219 238.773 209.246 172.506 209.246 172.506Z" fill="black"/>
<path d="M126.588 180.963C80.9355 180.963 43.9263 177.184 43.9263 172.507C43.9263 167.831 80.9355 164.052 126.588 164.052C172.24 164.052 209.246 167.845 209.246 172.507C209.246 177.169 172.24 180.963 126.588 180.963Z" fill="#8138D9"/>
<path d="M126.588 181.353C104.497 181.353 83.7153 180.47 68.1001 178.878C51.801 177.213 43.535 175.07 43.535 172.507C43.535 169.945 51.801 167.802 68.1001 166.137C83.7153 164.544 104.482 163.661 126.588 163.661C148.694 163.661 169.446 164.544 185.076 166.137C201.373 167.802 209.639 169.945 209.639 172.507C209.639 175.07 201.373 177.213 185.076 178.878C169.446 180.47 148.679 181.353 126.588 181.353ZM126.588 164.457C77.3703 164.457 44.3208 168.613 44.3208 172.507C44.3208 176.402 77.3703 180.572 126.588 180.572C175.805 180.572 208.839 176.402 208.839 172.507C208.839 168.613 175.791 164.457 126.588 164.457Z" fill="#8138D9"/>
<g opacity="0.2">
<path opacity="0.2" d="M126.589 180.963C80.9372 180.963 43.928 177.184 43.928 172.507C43.928 167.831 80.9372 164.052 126.589 164.052C172.241 164.052 209.248 167.845 209.248 172.507C209.248 177.169 172.241 180.963 126.589 180.963Z" fill="white"/>
<path opacity="0.2" d="M126.588 181.353C104.497 181.353 83.7153 180.47 68.1001 178.878C51.801 177.213 43.535 175.07 43.535 172.507C43.535 169.945 51.801 167.802 68.1001 166.137C83.7153 164.544 104.482 163.661 126.588 163.661C148.694 163.661 169.446 164.544 185.076 166.137C201.373 167.802 209.639 169.945 209.639 172.507C209.639 175.07 201.373 177.213 185.076 178.878C169.446 180.47 148.679 181.353 126.588 181.353ZM126.588 164.457C77.3703 164.457 44.3208 168.613 44.3208 172.507C44.3208 176.402 77.3703 180.572 126.588 180.572C175.805 180.572 208.839 176.402 208.839 172.507C208.839 168.613 175.791 164.457 126.588 164.457Z" fill="white"/>
</g>
<path d="M126.938 179.123C83.1198 179.123 47.6111 176.227 47.6111 172.506C47.6111 168.785 83.1198 165.89 126.938 165.89C170.757 165.89 206.263 168.858 206.263 172.506C206.263 176.155 170.742 179.123 126.938 179.123Z" fill="#8138D9"/>
<path d="M126.932 179.515C88.2803 179.515 47.2122 177.068 47.2122 172.507C47.2122 171.74 47.2123 169.409 70.8023 167.44C85.8063 166.18 105.729 165.5 126.932 165.5C165.585 165.5 206.656 167.961 206.656 172.507C206.656 173.275 206.656 175.606 183.063 177.575C168.059 178.834 148.136 179.515 126.932 179.515ZM126.932 166.282C105.758 166.282 85.8499 166.977 70.8751 168.222C48.6384 170.075 47.9981 172.261 47.9981 172.565C47.9981 172.869 48.6384 174.998 70.8751 176.909C85.8499 178.154 105.802 178.849 126.932 178.849C148.063 178.849 168.015 178.154 182.99 176.909C205.215 175.055 205.87 172.869 205.87 172.565C205.87 172.261 205.215 170.133 182.99 168.222C168.015 166.977 148.107 166.282 126.932 166.282Z" fill="#8138D9"/>
<path opacity="0.5" d="M126.938 179.123C83.1198 179.123 47.6111 176.227 47.6111 172.506C47.6111 168.785 83.1198 165.89 126.938 165.89C170.757 165.89 206.263 168.858 206.263 172.506C206.263 176.155 170.742 179.123 126.938 179.123Z" fill="white"/>
<path d="M187.739 143.638C187.386 143.419 187.046 143.182 186.72 142.928C179.918 153.602 174.074 164.851 169.257 176.547C169.038 177.054 168.82 177.546 168.587 177.995H170.042C170.173 177.676 170.319 177.372 170.45 177.053C175.223 165.435 181.008 154.253 187.739 143.638Z" fill="#868A91"/>
<path d="M151.092 158.534C162.811 153.735 174.083 147.922 184.781 141.16C184.505 140.842 184.257 140.523 184.01 140.19C173.378 146.895 162.178 152.665 150.539 157.434C139.9 162.038 131.125 165.889 124.722 172.173C122.522 174.355 120.433 176.645 118.464 179.036H120.036C121.782 176.965 123.645 174.938 125.595 172.998C131.838 166.917 140.526 163.138 151.092 158.534Z" fill="#868A91"/>
<path d="M151.733 165.876C158.136 162.011 165.398 157.624 173.563 151.818C177.172 148.728 181.053 145.317 185.205 141.582L185.118 141.48C174.396 150.105 163.032 157.907 151.122 164.819C142.871 169.8 136.031 173.941 130.413 179.211H132.232C137.588 174.447 144.064 170.524 151.762 165.891L151.733 165.876Z" fill="#868A91"/>
<path d="M162.881 176.518C169.83 164.641 177.682 153.311 186.369 142.625L186.253 142.538C182.469 146.679 179.049 150.53 175.935 154.12C170.113 162.242 165.748 169.467 161.818 175.837L160.276 178.357L161.731 178.284L162.837 176.474L162.881 176.518Z" fill="#868A91"/>
<path d="M175.937 154.192C179.052 150.573 182.472 146.722 186.255 142.61C185.877 142.291 185.528 141.958 185.178 141.611C181.045 145.365 177.164 148.778 173.536 151.847C166.071 158.217 159.638 163.328 153.948 167.773C148.811 171.841 144.285 175.446 140.152 179.052H142.088C145.915 175.779 150.063 172.478 154.72 168.772C161.603 163.314 169.563 157.001 179.125 148.618C170.713 158.145 164.354 165.992 158.882 172.913L154.239 178.704H155.884C157.165 177.126 158.474 175.49 159.842 173.767C164.412 168.019 169.549 161.62 175.937 154.192Z" fill="#868A91"/>
<path d="M185.088 141.48L185.176 141.582C185.525 141.929 185.874 142.262 186.253 142.581L186.369 142.668L186.718 142.928C187.046 143.183 187.385 143.421 187.737 143.638C190.56 145.361 193.893 145.795 196.003 143.638L238.206 99.1603C242.47 94.6576 233.724 85.348 228.892 89.8798L184.215 131.867C181.639 134.285 182.149 137.513 183.997 140.192C184.244 140.525 184.492 140.845 184.768 141.163L185.088 141.48ZM228.325 95.5262C228.732 95.1078 229.256 94.8198 229.824 94.7011C230.406 94.5823 231.002 94.6387 231.541 94.8617C232.079 95.0861 232.545 95.4669 232.865 95.9548C233.185 96.4428 233.345 97.0147 233.331 97.5967C233.331 98.3655 233.025 99.1024 232.472 99.6454C231.934 100.188 231.192 100.492 230.42 100.492C230.042 100.494 229.663 100.419 229.3 100.271C228.95 100.125 228.63 99.9103 228.354 99.6395C228.077 99.3688 227.859 99.0474 227.713 98.6913C227.553 98.3365 227.481 97.9543 227.481 97.5677C227.481 97.1826 227.553 96.8003 227.713 96.4456C227.859 96.0895 228.077 95.7681 228.354 95.4973L228.325 95.5262Z" fill="#61656D"/>
</g>
<defs>
<clipPath id="clip0">
<rect width="253" height="261" fill="white" transform="translate(0 -10)"/>
</clipPath>
</defs>
</svg>
