<svg width="411" height="359" viewBox="0 0 411 359" fill="none" xmlns="http://www.w3.org/2000/svg">
<path d="M271.219 339.959H126.73C123.968 339.959 121.731 337.725 121.731 334.966V128.552C121.731 125.793 123.968 123.559 126.73 123.559H271.219C273.981 123.559 276.218 125.793 276.218 128.552V334.966C276.218 337.725 273.981 339.959 271.219 339.959Z" fill="#8138D9"/>
<g opacity="0.2">
<g opacity="0.2">
<g opacity="0.2">
<path opacity="0.2" d="M271.219 339.959H126.73C123.968 339.959 121.731 337.725 121.731 334.966V128.552C121.731 125.793 123.968 123.559 126.73 123.559H271.219C273.981 123.559 276.218 125.793 276.218 128.552V334.966C276.218 337.725 273.981 339.959 271.219 339.959Z" fill="white"/>
</g>
</g>
</g>
<path d="M268.656 339.959H124.165C121.403 339.959 119.167 337.725 119.167 334.966V128.552C119.167 125.793 121.403 123.559 124.165 123.559H268.656C271.417 123.559 273.654 125.793 273.654 128.552V334.966C273.654 337.725 271.417 339.959 268.656 339.959Z" fill="#8138D9"/>
<g opacity="0.7">
<g opacity="0.7">
<g opacity="0.7">
<path opacity="0.7" d="M268.656 339.959H124.165C121.403 339.959 119.167 337.725 119.167 334.966V128.552C119.167 125.793 121.403 123.559 124.165 123.559H268.656C271.417 123.559 273.654 125.793 273.654 128.552V334.966C273.654 337.725 271.417 339.959 268.656 339.959Z" fill="white"/>
</g>
</g>
</g>
<path d="M235.624 110.003H209.526C209.704 109.135 209.797 108.24 209.797 107.324C209.797 99.9394 203.805 93.954 196.417 93.954C189.028 93.954 183.036 99.9394 183.036 107.324C183.036 108.24 183.129 109.139 183.307 110.003H157.208C154.645 110.003 152.569 112.076 152.569 114.637V135.259C152.569 137.821 154.645 139.894 157.208 139.894H235.637C238.201 139.894 240.276 137.821 240.276 135.259V114.637C240.264 112.08 238.184 110.003 235.624 110.003Z" fill="#21252B"/>
<path opacity="0.2" d="M235.625 139.893H157.196C154.633 139.893 152.557 137.82 152.557 135.259V130.669H240.264V135.259C240.264 137.82 238.185 139.893 235.625 139.893Z" fill="white"/>
<path opacity="0.7" d="M252.15 180.775H143.234C141.333 180.775 139.79 179.234 139.79 177.335V157.971C139.79 156.071 141.333 154.53 143.234 154.53H252.15C254.052 154.53 255.594 156.071 255.594 157.971V177.335C255.594 179.234 254.052 180.775 252.15 180.775Z" fill="white"/>
<path d="M165.138 193.566H162.785V193.8C157.306 194.889 153.155 199.741 153.155 205.537C153.155 211.333 157.277 216.185 162.785 217.274V217.508H165.138C171.764 217.508 177.122 212.155 177.122 205.537C177.126 198.918 171.764 193.566 165.138 193.566Z" fill="#8138D9"/>
<path d="M162.781 217.459C169.398 217.459 174.764 212.098 174.764 205.488C174.764 198.877 169.398 193.517 162.781 193.517C156.163 193.517 150.797 198.877 150.797 205.488C150.797 212.098 156.163 217.459 162.781 217.459Z" fill="#8138D9"/>
<path opacity="0.4" d="M162.781 217.459C169.398 217.459 174.764 212.098 174.764 205.488C174.764 198.877 169.398 193.517 162.781 193.517C156.163 193.517 150.797 198.877 150.797 205.488C150.797 212.098 156.163 217.459 162.781 217.459Z" fill="white"/>
<path d="M160.575 210.509L156.542 206.48C156.336 206.274 156.336 205.919 156.542 205.685L157.604 204.624C157.81 204.419 158.165 204.419 158.399 204.624L160.991 207.214L167.233 200.946C167.439 200.74 167.794 200.74 168.029 200.946L169.09 202.007C169.296 202.212 169.296 202.567 169.09 202.801L161.375 210.509C161.132 210.743 160.781 210.743 160.575 210.509Z" fill="white"/>
<path d="M241.742 200.229H189.448C188.475 200.229 187.712 199.434 187.712 198.494C187.712 197.522 188.507 196.76 189.448 196.76H241.742C242.715 196.76 243.478 197.555 243.478 198.494C243.51 199.466 242.715 200.229 241.742 200.229Z" fill="white"/>
<path d="M242.606 207.024H188.625C188.124 207.024 187.712 206.613 187.712 206.113C187.712 205.613 188.124 205.201 188.625 205.201H242.606C243.106 205.201 243.518 205.613 243.518 206.113C243.547 206.613 243.135 207.024 242.606 207.024Z" fill="white"/>
<path d="M231.313 212.675H188.625C188.124 212.675 187.712 212.264 187.712 211.764C187.712 211.264 188.124 210.852 188.625 210.852H231.313C231.814 210.852 232.225 211.264 232.225 211.764C232.225 212.26 231.814 212.675 231.313 212.675Z" fill="white"/>
<path d="M165.138 228.619H162.785V228.853C157.306 229.942 153.155 234.794 153.155 240.59C153.155 246.386 157.277 251.238 162.785 252.327V252.561H165.138C171.764 252.561 177.122 247.209 177.122 240.59C177.126 233.976 171.764 228.619 165.138 228.619Z" fill="#8138D9"/>
<path d="M162.781 252.516C169.398 252.516 174.764 247.156 174.764 240.545C174.764 233.934 169.398 228.574 162.781 228.574C156.163 228.574 150.797 233.934 150.797 240.545C150.797 247.156 156.163 252.516 162.781 252.516Z" fill="#8138D9"/>
<path opacity="0.4" d="M162.781 252.516C169.398 252.516 174.764 247.156 174.764 240.545C174.764 233.934 169.398 228.574 162.781 228.574C156.163 228.574 150.797 233.934 150.797 240.545C150.797 247.156 156.163 252.516 162.781 252.516Z" fill="white"/>
<path d="M160.575 245.563L156.542 241.533C156.336 241.328 156.336 240.973 156.542 240.739L157.604 239.678C157.81 239.472 158.165 239.472 158.399 239.678L160.991 242.267L167.233 236C167.439 235.794 167.794 235.794 168.029 236L169.09 237.06C169.296 237.266 169.296 237.621 169.09 237.855L161.375 245.563C161.132 245.801 160.781 245.801 160.575 245.563Z" fill="white"/>
<path d="M241.742 235.286H189.448C188.475 235.286 187.712 234.492 187.712 233.552C187.712 232.58 188.507 231.817 189.448 231.817H241.742C242.715 231.817 243.478 232.612 243.478 233.552C243.51 234.524 242.715 235.286 241.742 235.286Z" fill="white"/>
<path d="M242.606 242.082H188.625C188.124 242.082 187.712 241.671 187.712 241.171C187.712 240.671 188.124 240.259 188.625 240.259H242.606C243.106 240.259 243.518 240.671 243.518 241.171C243.547 241.671 243.135 242.082 242.606 242.082Z" fill="white"/>
<path d="M231.313 247.729H188.625C188.124 247.729 187.712 247.317 187.712 246.817C187.712 246.317 188.124 245.906 188.625 245.906H231.313C231.814 245.906 232.225 246.317 232.225 246.817C232.225 247.317 231.814 247.729 231.313 247.729Z" fill="white"/>
<path d="M165.138 262.975H162.785V263.209C157.306 264.298 153.155 269.15 153.155 274.946C153.155 280.742 157.277 285.594 162.785 286.683V286.917H165.138C171.764 286.917 177.122 281.564 177.122 274.946C177.122 268.327 171.764 262.975 165.138 262.975Z" fill="#8138D9"/>
<path d="M162.785 286.868C169.402 286.868 174.768 281.508 174.768 274.897C174.768 268.286 169.402 262.926 162.785 262.926C156.167 262.926 150.801 268.286 150.801 274.897C150.801 281.508 156.167 286.868 162.785 286.868Z" fill="#8138D9"/>
<path opacity="0.4" d="M162.785 286.868C169.402 286.868 174.768 281.508 174.768 274.897C174.768 268.286 169.402 262.926 162.785 262.926C156.167 262.926 150.801 268.286 150.801 274.897C150.801 281.508 156.167 286.868 162.785 286.868Z" fill="white"/>
<path d="M160.575 279.919L156.542 275.89C156.336 275.684 156.336 275.329 156.542 275.096L157.604 274.035C157.81 273.829 158.165 273.829 158.399 274.035L160.991 276.624L167.233 270.356C167.439 270.151 167.794 270.151 168.029 270.356L169.09 271.417C169.296 271.623 169.296 271.978 169.09 272.212L161.375 279.919C161.132 280.157 160.781 280.157 160.575 279.919Z" fill="white"/>
<path d="M241.742 269.642H189.448C188.475 269.642 187.712 268.847 187.712 267.908C187.712 266.936 188.507 266.173 189.448 266.173H241.742C242.715 266.173 243.478 266.968 243.478 267.908C243.51 268.88 242.715 269.642 241.742 269.642Z" fill="white"/>
<path d="M242.606 276.438H188.625C188.124 276.438 187.712 276.027 187.712 275.527C187.712 275.027 188.124 274.615 188.625 274.615H242.606C243.106 274.615 243.518 275.027 243.518 275.527C243.547 276.027 243.135 276.438 242.606 276.438Z" fill="white"/>
<path d="M231.313 282.085H188.625C188.124 282.085 187.712 281.673 187.712 281.173C187.712 280.673 188.124 280.262 188.625 280.262H231.313C231.814 280.262 232.225 280.673 232.225 281.173C232.225 281.673 231.814 282.085 231.313 282.085Z" fill="white"/>
<path d="M165.138 298.033H162.785V298.267C157.306 299.356 153.155 304.208 153.155 310.004C153.155 315.8 157.277 320.652 162.785 321.741V321.975H165.138C171.764 321.975 177.122 316.622 177.122 310.004C177.122 303.385 171.764 298.033 165.138 298.033Z" fill="#8138D9"/>
<path d="M162.785 321.926C169.402 321.926 174.768 316.565 174.768 309.955C174.768 303.344 169.402 297.984 162.785 297.984C156.167 297.984 150.801 303.344 150.801 309.955C150.801 316.565 156.167 321.926 162.785 321.926Z" fill="#8138D9"/>
<path opacity="0.4" d="M162.785 321.926C169.402 321.926 174.768 316.565 174.768 309.955C174.768 303.344 169.402 297.984 162.785 297.984C156.167 297.984 150.801 303.344 150.801 309.955C150.801 316.565 156.167 321.926 162.785 321.926Z" fill="white"/>
<path d="M160.575 314.977L156.542 310.948C156.336 310.742 156.336 310.387 156.542 310.153L157.604 309.092C157.81 308.887 158.165 308.887 158.399 309.092L160.991 311.682L167.233 305.414C167.439 305.208 167.794 305.208 168.029 305.414L169.09 306.475C169.296 306.681 169.296 307.035 169.09 307.269L161.375 314.977C161.132 315.211 160.781 315.211 160.575 314.977Z" fill="white"/>
<path d="M241.742 304.7H189.448C188.475 304.7 187.712 303.905 187.712 302.965C187.712 301.993 188.507 301.231 189.448 301.231H241.742C242.715 301.231 243.478 302.026 243.478 302.965C243.51 303.933 242.715 304.7 241.742 304.7Z" fill="white"/>
<path d="M242.606 311.496H188.625C188.124 311.496 187.712 311.084 187.712 310.584C187.712 310.084 188.124 309.673 188.625 309.673H242.606C243.106 309.673 243.518 310.084 243.518 310.584C243.547 311.084 243.135 311.496 242.606 311.496Z" fill="white"/>
<path d="M231.313 317.143H188.625C188.124 317.143 187.712 316.731 187.712 316.231C187.712 315.731 188.124 315.32 188.625 315.32H231.313C231.814 315.32 232.225 315.731 232.225 316.231C232.225 316.731 231.814 317.143 231.313 317.143Z" fill="white"/>
<path d="M321.155 226.296C321.155 224.703 321.47 223.178 322.019 221.778C308.986 213.454 292.214 210.179 276.763 210.179C261.311 210.179 244.54 213.454 231.506 221.778C232.056 223.178 232.37 224.699 232.37 226.296C232.37 233.088 226.871 238.589 220.084 238.618C220.387 258.518 222.337 282.23 231.902 300.424C241.899 319.437 258.283 333.433 272.12 339.955H276.759C290.636 333.687 311.292 320.059 321.615 300.424C331.18 282.23 333.13 258.518 333.433 238.618C326.65 238.589 321.155 233.088 321.155 226.296Z" fill="#8138D9"/>
<path d="M321.155 226.296C321.155 224.703 321.47 223.178 322.019 221.778C308.986 213.454 292.214 210.179 276.763 210.179C261.311 210.179 244.54 213.454 231.506 221.778C232.056 223.178 232.37 224.699 232.37 226.296C232.37 233.088 226.871 238.589 220.084 238.618C220.387 258.518 222.337 282.23 231.902 300.424C241.899 319.437 258.283 333.433 272.12 339.955H276.759C290.636 333.687 311.292 320.059 321.615 300.424C331.18 282.23 333.13 258.518 333.433 238.618C326.65 238.589 321.155 233.088 321.155 226.296Z" fill="#21252B"/>
<path d="M316.516 226.296C316.516 224.703 316.831 223.178 317.38 221.778C304.347 213.454 287.575 210.179 272.124 210.179C256.672 210.179 239.901 213.454 226.868 221.778C227.417 223.178 227.732 224.699 227.732 226.296C227.732 233.088 222.233 238.589 215.446 238.618C215.748 258.518 217.698 282.23 227.263 300.424C237.587 320.059 258.243 333.687 272.12 339.955C285.997 333.687 306.653 320.059 316.977 300.424C326.541 282.23 328.491 258.518 328.794 238.618C322.011 238.589 316.516 233.088 316.516 226.296Z" fill="#858990"/>
<path opacity="0.1" d="M316.512 226.296C316.512 224.703 316.827 223.178 317.376 221.778C304.343 213.454 287.571 210.179 272.12 210.179C256.668 210.179 239.896 213.454 226.863 221.778C227.412 223.178 227.727 224.699 227.727 226.296C227.727 233.088 222.228 238.589 215.441 238.618C215.744 258.518 217.694 282.23 227.259 300.424C237.583 320.059 258.239 333.687 272.116 339.955C285.993 333.687 306.648 320.059 316.972 300.424C326.537 282.23 328.487 258.518 328.79 238.618C322.003 238.589 316.512 233.088 316.512 226.296Z" fill="black"/>
<path d="M272.12 329.682C258.941 322.971 243.389 311.185 235.467 296.117C227.606 281.177 225.495 261.378 224.897 245.66C231.939 242.195 236.84 235.004 236.99 226.699C246.639 221.988 258.873 219.427 272.12 219.427C285.367 219.427 297.6 221.984 307.25 226.699C307.408 235.008 312.305 242.195 319.342 245.66C318.745 261.37 316.625 281.169 308.772 296.117C300.855 311.189 285.302 322.971 272.12 329.682Z" fill="#8138D9"/>
<path d="M272.12 329.682C258.941 322.971 243.389 311.185 235.467 296.117C227.606 281.177 225.495 261.378 224.897 245.66C231.939 242.195 236.84 235.004 236.99 226.699C246.639 221.988 258.873 219.427 272.12 219.427C285.367 219.427 297.6 221.984 307.25 226.699C307.408 235.008 312.305 242.195 319.342 245.66C318.745 261.37 316.625 281.169 308.772 296.117C300.855 311.189 285.302 322.971 272.12 329.682Z" fill="white"/>
<path d="M272.12 326.169C259.785 319.885 245.222 308.854 237.805 294.741C230.452 280.75 228.466 262.221 227.909 247.511C234.502 244.264 239.085 237.537 239.234 229.756C248.27 225.34 259.725 222.948 272.12 222.948C284.515 222.948 295.977 225.34 305.005 229.756C305.151 237.529 309.741 244.264 316.33 247.511C315.773 262.221 313.791 280.758 306.434 294.741C299.022 308.85 284.462 319.881 272.12 326.169Z" fill="#8138D9"/>
<path opacity="0.5" d="M272.12 326.169C259.785 319.885 245.222 308.854 237.805 294.741C230.452 280.75 228.466 262.221 227.909 247.511C234.502 244.264 239.085 237.537 239.234 229.756C248.27 225.34 259.725 222.948 272.12 222.948C284.515 222.948 295.977 225.34 305.005 229.756C305.151 237.529 309.741 244.264 316.33 247.511C315.773 262.221 313.791 280.758 306.434 294.741C299.022 308.85 284.462 319.881 272.12 326.169Z" fill="white"/>
<path d="M300.911 267.654H279.94V246.705C279.94 245.684 279.113 244.858 278.091 244.858H270.913C269.891 244.858 269.063 245.684 269.063 246.705V267.654H248.093C247.071 267.654 246.243 268.481 246.243 269.501V276.673C246.243 277.693 247.071 278.52 248.093 278.52H269.063V299.469C269.063 300.489 269.891 301.316 270.913 301.316H278.091C279.113 301.316 279.94 300.489 279.94 299.469V278.52H300.911C301.933 278.52 302.76 277.693 302.76 276.673V269.501C302.76 268.481 301.929 267.654 300.911 267.654Z" fill="#8138D9"/>
<path opacity="0.2" d="M300.911 267.654H279.94V246.705C279.94 245.684 279.113 244.858 278.091 244.858H270.913C269.891 244.858 269.063 245.684 269.063 246.705V267.654H248.093C247.071 267.654 246.243 268.481 246.243 269.501V276.673C246.243 277.693 247.071 278.52 248.093 278.52H269.063V299.469C269.063 300.489 269.891 301.316 270.913 301.316H278.091C279.113 301.316 279.94 300.489 279.94 299.469V278.52H300.911C301.933 278.52 302.76 277.693 302.76 276.673V269.501C302.76 268.481 301.929 267.654 300.911 267.654Z" fill="#21252B"/>
<path d="M298.529 267.654H277.558V246.705C277.558 245.684 276.73 244.858 275.709 244.858H268.53C267.509 244.858 266.681 245.684 266.681 246.705V267.654H245.71C244.689 267.654 243.861 268.481 243.861 269.501V276.673C243.861 277.693 244.689 278.52 245.71 278.52H266.681V299.469C266.681 300.489 267.509 301.316 268.53 301.316H275.709C276.73 301.316 277.558 300.489 277.558 299.469V278.52H298.529C299.55 278.52 300.378 277.693 300.378 276.673V269.501C300.378 268.481 299.55 267.654 298.529 267.654Z" fill="#8138D9"/>
<path opacity="0.15" d="M63.3124 105.186C63.2761 105.186 62.3636 105.074 61.7539 104.388L62.0567 104.045C62.626 104.69 63.4254 104.767 63.4254 104.767L63.3124 105.186Z" fill="black"/>
</svg>
