<svg width="269" height="235" viewBox="0 0 269 235" fill="none" xmlns="http://www.w3.org/2000/svg">
<path d="M92.5 235C135.854 235 171 231.642 171 227.5C171 223.358 135.854 220 92.5 220C49.1456 220 14 223.358 14 227.5C14 231.642 49.1456 235 92.5 235Z" fill="#E6E6E6"/>
<path d="M70.279 216.323L63.65 217.255L55.6644 143.896L42.9157 216.944L36.0748 217.255V124.623H78.3636L70.279 216.323Z" fill="#0B4870"/>
<path d="M39.5176 231.111C40.5581 231.141 41.5786 230.822 42.4166 230.204C43.2546 229.587 43.8619 228.707 44.1417 227.705L44.6259 220.482L43.6498 215.359C41.0744 213.243 38.4709 213.287 35.841 215.359L35.0024 226.089C34.9532 226.719 35.0325 227.352 35.2354 227.95C35.4384 228.548 35.7608 229.098 36.183 229.568C36.6053 230.037 37.1186 230.416 37.6918 230.682C38.265 230.947 38.8862 231.093 39.5176 231.111Z" fill="#2F2E41"/>
<path d="M66.8808 231.111C67.9213 231.141 68.9419 230.822 69.7799 230.204C70.6178 229.587 71.2251 228.707 71.5049 227.705L71.9891 220.482L71.013 215.359C68.4377 213.243 65.8341 213.287 63.2042 215.359L62.3656 226.089C62.3164 226.719 62.3957 227.352 62.5986 227.95C62.8016 228.548 63.124 229.098 63.5462 229.568C63.9685 230.037 64.4818 230.416 65.055 230.682C65.6282 230.947 66.2494 231.093 66.8808 231.111Z" fill="#2F2E41"/>
<path d="M58 49C65.732 49 72 42.732 72 35C72 27.268 65.732 21 58 21C50.268 21 44 27.268 44 35C44 42.732 50.268 49 58 49Z" fill="#FFE3CA"/>
<path d="M51 43.7005C51 43.7005 51.5868 51.6582 51.3193 52.1261C51.0518 52.594 56.0171 61 56.0171 61L63.9552 53.6874C63.9552 53.6874 63.4744 43.572 63.9858 43.1157C64.4972 42.6593 51 43.7005 51 43.7005Z" fill="#FFE3CA"/>
<path d="M80.2292 126.177H35.142C40.9858 99.1032 40.9694 77.2982 36.3146 59.6636C36.0181 58.5409 36.1467 57.3483 36.6757 56.3145C37.2048 55.2807 38.097 54.4787 39.1812 54.0621L51.3112 49.3982C54.9529 54.0997 60.0919 56.1532 68.1023 53.1283L74.4587 54.4318C76.0065 54.7473 77.3874 55.6128 78.3458 56.868C79.3042 58.1233 79.7751 59.6832 79.6713 61.2589C79.2035 68.1557 79.3879 75.1054 78.9854 81.1045C77.739 99.6821 77.2007 114.165 80.2292 126.177Z" fill="#9F65E3"/>
<path d="M35 126.779H80.0872C74.2434 99.705 74.2598 77.9 78.9146 60.2654C79.2111 59.1427 79.0825 57.9501 78.5535 56.9163C78.0244 55.8826 77.1322 55.0805 76.048 54.6639L63.918 50C60.2763 54.7015 55.1373 56.755 47.1269 53.7302L40.7705 55.0336C39.2227 55.3491 37.8417 56.2146 36.8833 57.4698C35.9249 58.7251 35.4541 60.285 35.5579 61.8607C36.0257 68.7575 35.8413 75.7072 36.2438 81.7063C37.4902 100.284 38.0285 114.767 35 126.779Z" fill="#9F65E3"/>
<path d="M82.4059 119.339L78.4143 124.687C77.9986 125.244 77.6978 125.878 77.5295 126.552C77.3612 127.227 77.3287 127.928 77.434 128.615C77.5392 129.302 77.7801 129.961 78.1425 130.554C78.505 131.147 78.9818 131.662 79.5452 132.069C80.2708 132.593 81.1186 132.923 82.0079 133.027C82.8971 133.131 83.7982 133.006 84.6252 132.663C85.4522 132.32 86.1775 131.771 86.7322 131.068C87.2869 130.366 87.6524 129.533 87.7938 128.649L88.9357 121.515L91.1124 90.7408L89.5576 75.1985L79.6074 78.9286L82.4059 92.295V119.339Z" fill="#FFE3CA"/>
<path d="M78.3636 82.6588L90.4904 77.0635L89.8686 72.6594C89.8686 69.0131 88.7658 65.4521 86.7049 62.4436C84.6441 59.4351 81.7215 57.1198 78.3208 55.8016L74.6322 54.3718L78.3636 82.6588Z" fill="#9F65E3"/>
<path d="M34.2092 118.095L38.2008 123.443C38.6165 124.001 38.9173 124.635 39.0856 125.309C39.2539 125.983 39.2864 126.684 39.1811 127.371C39.0759 128.058 38.8351 128.717 38.4726 129.311C38.1101 129.904 37.6333 130.419 37.0699 130.826C36.3443 131.35 35.4965 131.68 34.6072 131.784C33.718 131.888 32.8169 131.762 31.9899 131.419C31.1629 131.076 30.4376 130.528 29.8829 129.825C29.3282 129.123 28.9627 128.29 28.8213 127.406L27.6794 120.271L25.5027 89.4974L27.0575 73.9551L37.0077 77.6852L34.2092 91.0516V118.095Z" fill="#FFE3CA"/>
<path d="M38.2515 81.4154L26.1246 75.8201L26.7465 71.416C26.7465 67.7697 27.8493 64.2086 29.9102 61.2002C31.971 58.1917 34.8936 55.8764 38.2943 54.5582L41.9829 53.1284L38.2515 81.4154Z" fill="#9F65E3"/>
<path d="M47.5431 20.842L45.0021 19.7764C45.0021 19.7764 50.6714 14.6292 58.1729 15.4631L56.1589 13.2444C56.1589 13.2444 61.4227 11.6132 65.8868 16.7786C68.2335 19.494 70.9463 22.6835 72.5633 26.207L75.3332 26.3408L74.0655 28.5973L78 31.1051L73.867 30.4891C74.1639 32.5044 73.9288 34.5624 73.1849 36.4588L72.1194 39C72.1194 39 68.7208 31.2933 68.7662 30.3527L68.6526 32.7042C68.6526 32.7042 66.1684 30.4629 66.2366 29.052L64.7463 30.6299L64.1659 28.0091L55.341 30.1754L56.854 28.1272L51.4119 28.5714L53.6531 26.0869C53.6531 26.0869 47.392 28.8485 47.0319 31.4239C46.6719 33.9992 43.4561 37.1436 43.4561 37.1436L42.1589 34.7239C42.1589 34.7239 40.5539 24.0398 47.5431 20.842Z" fill="#0B4870"/>
</svg>
