<svg width="275" height="207" viewBox="0 0 275 207" fill="none" xmlns="http://www.w3.org/2000/svg">
<g clip-path="url(#clip0)">
<g opacity="0.15">
<path opacity="0.15" d="M105.461 111.118L105.426 111.128L105.399 111.137L105.414 111.005C105.43 111.042 105.447 111.081 105.461 111.118Z" fill="black"/>
</g>
<path d="M20.2897 97.7351H18.3148V206.383H20.2897V97.7351Z" fill="#BFBFBF"/>
<path d="M44.9242 97.7351H42.9493V206.383H44.9242V97.7351Z" fill="#BFBFBF"/>
<path d="M69.5593 97.7351H67.5845V206.383H69.5593V97.7351Z" fill="#BFBFBF"/>
<path d="M94.1938 97.7351H92.219V206.383H94.1938V97.7351Z" fill="#BFBFBF"/>
<path d="M118.829 97.7351H116.854V206.383H118.829V97.7351Z" fill="#BFBFBF"/>
<path d="M143.463 97.7351H141.489V206.383H143.463V97.7351Z" fill="#BFBFBF"/>
<path d="M168.099 97.7351H166.124V206.383H168.099V97.7351Z" fill="#BFBFBF"/>
<path d="M192.734 97.7351H190.759V206.383H192.734V97.7351Z" fill="#BFBFBF"/>
<path d="M217.368 97.7351H215.394V206.383H217.368V97.7351Z" fill="#BFBFBF"/>
<path d="M242.005 97.7351H240.03V206.383H242.005V97.7351Z" fill="#BFBFBF"/>
<path d="M266.64 97.7351H264.665V206.383H266.64V97.7351Z" fill="#BFBFBF"/>
<path d="M19.1435 97.7351H17.1686V206.383H19.1435V97.7351Z" fill="#DADCDD"/>
<path d="M43.78 97.7351H41.8052V206.383H43.78V97.7351Z" fill="#DADCDD"/>
<path d="M68.4151 97.7351H66.4403V206.383H68.4151V97.7351Z" fill="#DADCDD"/>
<path d="M93.0498 97.7351H91.075V206.383H93.0498V97.7351Z" fill="#DADCDD"/>
<path d="M117.684 97.7351H115.709V206.383H117.684V97.7351Z" fill="#DADCDD"/>
<path d="M142.32 97.7351H140.345V206.383H142.32V97.7351Z" fill="#DADCDD"/>
<path d="M166.954 97.7351H164.979V206.383H166.954V97.7351Z" fill="#DADCDD"/>
<path d="M191.589 97.7351H189.614V206.383H191.589V97.7351Z" fill="#DADCDD"/>
<path d="M216.224 97.7351H214.249V206.383H216.224V97.7351Z" fill="#DADCDD"/>
<path d="M240.859 97.7351H238.884V206.383H240.859V97.7351Z" fill="#DADCDD"/>
<path d="M265.494 97.7351H263.519V206.383H265.494V97.7351Z" fill="#DADCDD"/>
<path d="M273.738 100.074L273.565 102.72L273.412 105.058H7.26843L8.09515 102.72L9.03015 100.074H273.738Z" fill="#9A9C9E"/>
<path d="M273.893 97.7351L273.738 100.074L273.565 102.72H8.09558L9.03058 100.074L9.8573 97.7351H273.893Z" fill="#B1B4B9"/>
<path d="M135.619 82.4257L129.654 87.8732L122.139 81.2665V78.3875C122.139 78.3875 125.434 78.0804 124.944 73.8403C124.924 73.6644 124.898 73.485 124.867 73.2952C124.839 73.1314 124.807 72.964 124.771 72.7898C124.766 72.7708 124.762 72.7501 124.757 72.7294C124.7 72.4655 124.628 72.1843 124.544 71.8928C124.501 71.7307 124.449 71.5651 124.398 71.3943L124.903 71.3753L131.8 71.1235C131.8 71.1235 131.8 71.1235 131.802 71.1235L132.759 71.0907C132.759 71.0907 132.718 71.2011 132.661 71.3943C132.66 71.4064 132.656 71.4184 132.653 71.4288C132.62 71.5323 132.584 71.653 132.548 71.7962C132.452 72.1567 132.34 72.6363 132.259 73.1762C132.252 73.209 132.247 73.2418 132.244 73.2745C132.239 73.3056 132.235 73.3384 132.23 73.3677C132.216 73.4678 132.203 73.5695 132.191 73.6713C132.182 73.7489 132.175 73.8248 132.168 73.9025C132.125 74.3579 132.136 74.8408 132.208 75.3169V75.3239C132.216 75.3773 132.227 75.4342 132.235 75.4877C132.524 77.0678 133.502 78.5772 135.499 79.0274L135.619 82.4257Z" fill="#F39393"/>
<path d="M123.963 66.9628C123.863 66.9955 123.762 66.9162 123.705 66.8265C123.648 66.7368 123.616 66.6298 123.542 66.5557C123.404 66.4177 123.166 66.4418 123.011 66.5608C122.856 66.6799 122.77 66.8679 122.703 67.0525C122.581 67.3854 122.499 67.7373 122.507 68.0926C122.516 68.448 122.624 68.8068 122.848 69.0793C122.92 69.1673 123.007 69.2484 123.114 69.2863C123.221 69.3243 123.351 69.3122 123.432 69.2311C123.465 69.2001 123.489 69.1587 123.518 69.1242C123.614 69.0086 123.774 68.95 123.92 68.981C123.92 68.3203 123.963 67.6234 123.963 66.9628Z" fill="#F39393"/>
<path d="M123.544 66.9713C123.404 66.3313 123.154 65.3843 122.794 64.8081C122.688 64.6356 122.655 64.4269 122.689 64.2268L123.226 61.0976C123.257 60.9182 123.343 60.7526 123.472 60.6284C124.417 59.7159 128.597 56.2469 133.691 60.499C133.915 60.6853 134.023 60.9751 133.994 61.2667C133.952 61.6651 133.977 62.2672 134.37 62.7536C134.554 62.9813 134.628 63.2815 134.544 63.5627L133.562 66.8729C133.457 67.2266 133.141 67.4698 132.78 67.4767L124.369 67.6371C123.977 67.6423 123.63 67.3663 123.544 66.9713Z" fill="#21252B"/>
<path opacity="0.19" d="M132.663 71.3943C132.662 71.4064 132.658 71.4184 132.655 71.4288C132.622 71.5323 132.586 71.653 132.55 71.7962C132.454 72.1567 132.342 72.6363 132.261 73.1762C132.254 73.209 132.249 73.2418 132.246 73.2745C132.241 73.3056 132.237 73.3384 132.232 73.3677C132.218 73.4677 132.205 73.5695 132.192 73.6713C132.184 73.7489 132.177 73.8248 132.17 73.9024C132.127 74.3579 132.137 74.8408 132.21 75.317V75.3239C132.218 75.3773 132.229 75.4343 132.237 75.4877C131.825 75.5395 131.409 75.5619 130.993 75.555C130.109 75.5395 129.161 75.4498 128.353 75.0617C127.976 74.8823 127.627 74.6459 127.318 74.363C127.165 74.2198 127.021 74.068 126.89 73.9042C126.83 73.8317 126.615 73.4194 126.546 73.4056C127.648 73.6213 128.82 73.8283 129.858 73.3987C130.272 73.228 130.639 72.964 131 72.6967C131.562 72.2775 132.118 71.8428 132.663 71.3943Z" fill="black"/>
<path d="M133.188 63.311V69.3881C133.188 70.2679 132.956 71.0907 132.548 71.7962C131.737 73.209 130.235 74.1561 128.518 74.1561C126.839 74.1561 125.367 73.2504 124.544 71.8928C124.102 71.1649 123.848 70.3076 123.848 69.3881V63.311H133.188Z" fill="#F39393"/>
<path d="M115.337 86.288C114.701 84.7113 114.141 83.0829 113.651 81.4338C113.776 81.8358 114.497 84.1179 115.337 86.288Z" fill="#F39393"/>
<path d="M126.634 38.1673C126.504 38.2915 126.373 38.4261 126.237 38.571C126.229 38.5796 126.218 38.59 126.21 38.5986V38.6003C126.21 38.6003 126.196 38.6141 126.163 38.6469C126.141 38.6745 126.113 38.7055 126.082 38.7331C123.025 42.1279 119.187 49.6196 117.188 53.7372C116.354 55.4605 115.842 56.5921 115.842 56.5921C115.455 57.6374 116.198 61.3738 117.097 65.0601V65.0618H117.099V65.0635C117.1 65.0722 117.107 65.0963 117.114 65.1343C117.203 65.4982 117.294 65.8588 117.384 66.2176C117.389 66.2314 117.391 66.2486 117.396 66.2641C117.499 66.6712 117.602 67.0714 117.705 67.463C117.752 67.639 117.796 67.8115 117.841 67.9822C117.848 68.0029 117.853 68.0236 117.86 68.0478C117.91 68.2393 117.961 68.429 118.011 68.6153C118.082 68.8844 118.154 69.1466 118.223 69.3985C118.264 69.5451 118.303 69.6883 118.341 69.828C118.405 70.0626 118.467 70.2834 118.527 70.499C118.566 70.6422 118.604 70.7819 118.644 70.9182C118.711 71.1545 118.773 71.377 118.831 71.584C118.853 71.6617 118.874 71.7358 118.895 71.8083C118.907 71.8428 118.915 71.8807 118.924 71.9135C118.945 71.986 118.965 72.0532 118.984 72.1188C119.041 72.3154 119.092 72.4948 119.137 72.6501C119.151 72.7018 119.166 72.7501 119.18 72.7967C119.214 72.9157 119.244 73.0158 119.268 73.1003C119.276 73.1279 119.283 73.1521 119.29 73.1745C119.331 73.3108 119.352 73.3832 119.352 73.3832C119.352 73.3832 119.35 73.3884 119.345 73.3953L118.718 74.2681L118.298 74.8546C118.297 74.8564 118.297 74.8564 118.293 74.8598L113.63 81.3665C113.377 80.523 113.145 79.6743 112.929 78.8256C112.446 76.9436 112.042 75.0634 111.709 73.24C110.064 64.2873 110.029 56.668 110.029 56.668C109.359 52.8247 124.75 34.8622 124.75 34.8622L124.766 34.8898L126.634 38.1673Z" fill="#F39393"/>
<path d="M143.567 89.6552L143.565 89.6534C143.313 89.3981 143.077 89.1118 142.849 88.7996C142.847 88.7944 142.84 88.7875 142.833 88.7806C142.453 88.2596 142.101 87.668 141.773 87.0263C141.702 86.8883 141.63 86.7434 141.561 86.5985C141.561 86.5967 141.561 86.5967 141.561 86.5967C141.357 86.1638 141.163 85.7153 140.98 85.2547C140.975 85.2426 140.972 85.234 140.967 85.2219C139.284 80.9612 138.564 75.7948 138.48 75.1358L138.584 74.8685L139.289 73.1055C139.289 73.1055 142.501 58.2464 141.503 56.0815C141.503 56.0815 136.097 46.1351 131.605 40.7618C131.503 40.6445 131.407 40.5306 131.309 40.415C131.309 40.4133 131.307 40.4133 131.307 40.4133C130.62 39.6129 129.955 38.9333 129.339 38.4209L129.372 38.3606L129.461 38.1812L129.565 37.9828L130.872 35.3849C130.872 35.3849 143.115 47.2581 146.467 53.2387C147.044 54.2737 147.36 55.1224 147.305 55.6968C147.305 55.6968 149.1 75.9224 143.567 89.6552Z" fill="#F39393"/>
<path d="M140.006 140.053L139.767 140.048L139.514 140.041L133.382 139.896L133.102 139.891L132.234 139.87L132.246 140.824L132.253 141.421L132.444 157.141V157.165L132.834 189.274V189.307L132.842 189.398L133.482 192.47L133.738 192.889L134.544 194.211L134.956 201.663L134.962 201.747C134.97 201.759 134.977 201.768 134.984 201.78C135.506 202.499 135.319 203.978 135.319 203.978L134.946 204.506L133.715 206.25C133.571 206.317 133.411 206.357 133.251 206.376C132.529 206.45 131.754 206.093 131.754 206.093C130.788 206.546 130.068 205.868 130.068 205.868C129.946 205.917 129.834 205.948 129.733 205.962C128.936 206.075 128.74 205.187 128.74 205.187C127.688 205.472 127.664 204.312 127.664 204.312C126.557 204.2 127.414 202.703 127.414 202.703L129.766 199.734L129.874 199.601L129.35 192.4L128.124 189.307L127.934 188.825C127.932 188.824 127.932 188.824 127.934 188.82C127.906 188.722 127.879 188.612 127.846 188.486C126.99 185.074 123.645 171.527 120.923 157.185C118.958 146.837 117.319 136.075 117.169 128.404C117.16 128.011 117.157 127.626 117.157 127.248C117.159 124.873 117.315 122.841 117.666 121.269C117.812 120.612 117.994 120.038 118.209 119.548C118.209 119.548 126.787 120.633 135.216 119.672C135.249 119.667 135.279 119.665 135.312 119.66L135.331 119.658L135.477 120.296L135.623 120.935L136.273 123.772L136.529 124.897L139.841 139.335L139.999 140.025L140.006 140.053Z" fill="#F39393"/>
<path d="M140.006 140.053L139.516 140.041L133.384 139.896L133.104 139.891L132.236 139.87L132.248 140.824L132.255 141.421L132.445 157.141H132.384L129.96 157.149L120.765 157.184C120.763 157.165 120.758 157.149 120.756 157.13C118.781 146.268 117.152 134.955 117.159 127.246C117.161 123.879 117.475 121.202 118.211 119.548C118.211 119.548 126.868 120.641 135.333 119.658L136.533 124.899L140.006 140.053Z" fill="#3F424A"/>
<path opacity="0.15" d="M134.984 201.777C134.962 201.803 134.934 201.825 134.908 201.849C134.632 201.433 134.578 200.907 134.537 200.404C134.315 197.761 134.092 195.034 132.877 192.689C132.194 191.373 131.775 190.519 131.629 189.303C131.589 188.982 131.569 188.639 131.569 188.253C131.569 187.596 131.5 186.935 131.467 186.279C131.362 184.246 131.256 182.214 131.151 180.18C130.752 172.502 130.814 164.826 130.415 157.148L132.442 157.141V157.161L132.832 189.27V189.303L132.841 189.395L133.48 192.467L133.736 192.886L134.542 194.207L134.955 201.659L134.96 201.744C134.97 201.756 134.977 201.765 134.984 201.777Z" fill="black"/>
<path d="M132.382 157.141L130.417 157.149L129.983 143.296L132.155 140.824L132.162 141.421L132.382 157.141Z" fill="black"/>
<path d="M173.198 143.629V143.648C173.145 145.184 172.532 147.132 170.084 148.307C169.059 148.802 167.715 149.161 165.955 149.295C156.703 149.007 141.2 145.357 140.241 145.11L140.243 145.119L140.215 145.103L140.007 143.585L139.518 140.041L139.451 139.568L139.435 139.451L139.409 139.333L136.419 124.907L135.331 119.656C136.735 119.484 138.015 119.315 139.222 119.066H139.224C140.128 118.882 140.989 118.652 141.833 118.343C142.003 118.285 142.17 118.219 142.336 118.152C142.336 118.152 142.341 118.167 142.35 118.2C142.494 118.732 143.816 123.398 144.901 123.675C144.901 123.675 145.038 123.729 145.293 123.832C148.177 124.997 166.249 132.549 172.879 141.343C172.879 141.343 172.879 141.345 172.88 141.348C172.88 141.35 172.882 141.355 172.882 141.36C172.894 141.391 172.918 141.465 172.951 141.583C172.965 141.631 172.978 141.688 172.994 141.748C173.002 141.788 173.014 141.829 173.023 141.874C173.044 141.964 173.064 142.061 173.083 142.169C173.088 142.195 173.092 142.223 173.097 142.25C173.138 142.481 173.171 142.749 173.188 143.04C173.19 143.073 173.19 143.106 173.193 143.139C173.2 143.297 173.202 143.459 173.198 143.629Z" fill="#3F424A"/>
<g opacity="0.67">
<path opacity="0.67" d="M144.901 123.679C144.066 123.569 143.15 123.508 142.172 123.489C132.566 123.312 117.157 127.246 117.157 127.246C117.159 123.879 117.473 121.2 118.207 119.546C118.207 119.546 126.864 120.64 135.329 119.656C136.216 119.546 137.053 119.441 137.852 119.311H137.854C138.322 119.237 138.775 119.156 139.219 119.066H139.221C140.126 118.882 140.987 118.654 141.83 118.345L142.347 118.204C142.495 118.734 143.815 123.401 144.901 123.679Z" fill="black"/>
</g>
<g opacity="0.35">
<path opacity="0.35" d="M173.197 143.627C170.448 136.63 142.335 124.003 142.335 124.003L141.895 123.47C142.873 123.488 144.066 123.568 144.901 123.679C144.901 123.679 144.921 123.688 144.961 123.701C144.971 123.706 144.983 123.71 144.994 123.715C145.007 123.72 145.019 123.727 145.033 123.731C145.04 123.733 145.044 123.736 145.05 123.738C146.931 124.488 166.023 132.251 172.877 141.347C172.877 141.347 173.235 142.34 173.197 143.627Z" fill="black"/>
</g>
<g opacity="0.35">
<path opacity="0.35" d="M136.199 139.746L135.216 119.663L135.445 119.651L136.429 139.734L136.199 139.746Z" fill="black"/>
</g>
<path d="M120.799 82.0254V82.0271C120.321 84.6233 119.255 86.469 118.327 87.6558V87.6575C117.509 88.7046 116.803 89.2342 116.699 89.3084L116.687 89.3153C116.686 89.317 116.686 89.317 116.686 89.317C116.674 89.2911 116.663 89.2687 116.651 89.2428C116.18 88.2872 115.742 87.297 115.336 86.2879C114.496 84.1178 113.778 81.8357 113.65 81.4337C113.638 81.3923 113.631 81.3699 113.631 81.3699L119.353 73.3883L120.85 76.4364C120.855 76.4623 120.857 76.4881 120.859 76.5088C120.859 76.5157 120.859 76.5226 120.861 76.5295C120.902 76.8193 120.934 77.1022 120.962 77.38V77.392C120.964 77.3938 120.964 77.3989 120.964 77.4007C120.964 77.4024 120.964 77.4024 120.964 77.4058C121.132 79.1515 121.043 80.6902 120.799 82.0254Z" fill="#F39393"/>
<path d="M143.565 89.6517C143.538 89.6327 143.313 89.4723 142.964 89.1601C142.629 88.8686 142.184 88.4408 141.695 87.8715C141.446 87.5817 141.185 87.2522 140.922 86.8865C139.344 84.7027 137.703 81.194 138.029 76.2623L138.093 76.1036L138.48 75.1324C138.564 75.7913 139.284 80.9594 140.967 85.2185C140.972 85.2305 140.975 85.2392 140.98 85.2512C141.164 85.7118 141.359 86.1603 141.561 86.5933C141.561 86.5933 141.561 86.5933 141.561 86.595C141.63 86.7399 141.701 86.8848 141.773 87.0228C142.101 87.6628 142.453 88.2545 142.833 88.7771C142.84 88.784 142.847 88.7909 142.849 88.7961C143.077 89.1101 143.313 89.3981 143.565 89.6517Z" fill="#F39393"/>
<g opacity="0.15">
<path opacity="0.15" d="M118.568 117.704V117.702C118.552 117.7 118.535 117.697 118.52 117.69L118.592 116.715L141.993 116.096L142.101 116.748C142.084 116.753 142.063 116.757 142.044 116.762L141.993 116.774L118.568 117.704Z" fill="black"/>
</g>
<g opacity="0.15">
<path opacity="0.15" d="M143.567 89.6535L143.566 89.6517C143.354 89.5534 143.151 89.3792 142.962 89.1618C142.149 88.251 141.137 87.7301 141.137 87.7301C141.137 87.7301 150.315 70.4715 146.463 53.2387H146.465C147.044 54.2737 147.359 55.1224 147.304 55.6951C147.306 55.6968 149.1 75.9225 143.567 89.6535Z" fill="black"/>
</g>
<path d="M138.027 76.2639C137.699 81.1957 139.342 84.7044 140.92 86.8882C141.183 87.2522 141.444 87.5834 141.693 87.8732C142.182 88.4407 142.628 88.8685 142.962 89.1618C143.313 89.4723 143.536 89.6344 143.563 89.6534L143.565 89.6551L143.426 90.4314L142.661 94.6852L142.855 120.8L117.301 121.278C117.301 121.278 116.689 89.3412 116.682 89.3205C116.682 89.3205 116.682 89.3205 116.684 89.3187L116.696 89.3119C116.799 89.2377 117.507 88.7081 118.324 87.661V87.6593C119.252 86.4742 120.316 84.6268 120.795 82.0306V82.0289C121.041 80.6938 121.13 79.1551 120.962 77.4111C120.962 77.4094 120.962 77.4094 120.962 77.4059C120.962 77.4042 120.962 77.399 120.96 77.3973V77.3852C120.933 77.1075 120.9 76.8246 120.859 76.5348C120.857 76.5279 120.857 76.521 120.857 76.5141C120.855 76.4934 120.852 76.4675 120.848 76.4416L120.871 76.5089L121.283 77.6578C121.35 77.8372 121.467 77.9941 121.618 78.1045C121.631 78.1114 121.641 78.1201 121.653 78.1287C121.673 78.1425 121.696 78.1563 121.72 78.1701L122.139 78.3926C122.139 78.3926 128.875 89.5085 135.035 78.9015L135.54 78.6583L137.01 77.9493C137.297 77.8113 137.52 77.5629 137.636 77.2627L138.034 76.2467L138.027 76.2639Z" fill="#8138D9"/>
<path d="M135.037 78.8979C134.205 80.3296 133.365 81.3629 132.531 82.0822C132.471 82.134 132.413 82.1857 132.354 82.2323C127.071 86.5258 122.14 78.389 122.14 78.389L121.72 78.1665C121.698 78.1527 121.674 78.1389 121.653 78.1251V78.2958L121.686 78.3528C121.7 78.3769 121.859 78.6443 122.14 79.0548C122.509 79.5861 123.085 80.352 123.827 81.1266C125.575 82.9482 127.408 83.909 129.126 83.909H129.154C130.264 83.9021 131.335 83.5088 132.352 82.7325C132.413 82.6877 132.471 82.6428 132.529 82.5945C133.544 81.7786 134.506 80.5815 135.414 79.01C135.436 78.972 135.46 78.9358 135.481 78.8979L135.542 78.6564L135.037 78.8979Z" fill="#F2F2F2"/>
<g opacity="0.15">
<path opacity="0.15" d="M121.05 79.3C121.048 79.5122 121.043 79.7226 121.034 79.9279C121.027 80.0521 121.021 80.1763 121.014 80.297C121.005 80.4178 120.995 80.5403 120.984 80.6593C120.976 80.7714 120.964 80.8818 120.952 80.9905C120.94 81.0888 120.926 81.1854 120.916 81.2786C120.907 81.3562 120.895 81.4304 120.883 81.5045C120.874 81.577 120.862 81.6494 120.85 81.7202C120.837 81.8116 120.821 81.903 120.802 81.991C120.768 82.1859 120.728 82.3739 120.687 82.5585C120.658 82.6965 120.625 82.8328 120.591 82.9622C120.515 83.2606 120.431 83.5521 120.342 83.8281C120.337 83.8367 120.335 83.8436 120.333 83.854C120.29 83.9851 120.245 84.111 120.202 84.2352C120.194 84.2594 120.184 84.2818 120.177 84.3059C120.041 84.6751 119.895 85.0218 119.742 85.3461C119.737 85.353 119.735 85.3616 119.73 85.3703C119.675 85.4876 119.618 85.6014 119.563 85.7118C119.561 85.717 119.558 85.7204 119.556 85.7256C119.501 85.8326 119.444 85.9361 119.389 86.0361C119.219 86.3466 119.046 86.6347 118.872 86.8986C118.867 86.9038 118.865 86.9107 118.858 86.9176C118.798 87.0073 118.74 87.0953 118.68 87.1798C118.563 87.3488 118.446 87.5075 118.327 87.6542C118.154 87.8784 117.984 88.0802 117.824 88.2579C117.764 88.3235 117.707 88.3873 117.65 88.4442C117.203 88.9134 116.858 89.1894 116.734 89.2808C116.72 89.2929 116.707 89.3015 116.7 89.3067L116.688 89.3136C119.073 85.2702 119.204 79.3138 118.724 74.3165C118.724 74.3009 118.723 74.2837 118.719 74.2699C118.52 72.1895 118.214 70.2782 117.92 68.743C117.729 67.7356 117.544 66.8886 117.397 66.2642C117.501 66.6713 117.604 67.0715 117.707 67.463C117.753 67.639 117.796 67.8115 117.843 67.9823C117.85 68.003 117.855 68.0237 117.862 68.0478C117.911 68.2393 117.963 68.429 118.013 68.6153C118.083 68.8844 118.155 69.1466 118.224 69.3985C118.265 69.5451 118.305 69.6883 118.343 69.828C118.406 70.0626 118.468 70.2834 118.528 70.499C118.568 70.6439 118.606 70.7819 118.645 70.9182C118.712 71.1545 118.774 71.3771 118.833 71.5841C118.855 71.6617 118.876 71.7359 118.896 71.8083C118.908 71.8428 118.917 71.8808 118.925 71.9135C118.946 71.9843 118.967 72.0533 118.986 72.1188C119.042 72.3155 119.094 72.4949 119.139 72.6501C119.152 72.7019 119.168 72.7502 119.182 72.7967C119.216 72.9158 119.245 73.0158 119.269 73.1003C119.278 73.1279 119.285 73.1521 119.292 73.1745C119.333 73.3108 119.353 73.3832 119.353 73.3832L120.85 76.4313C120.856 76.4624 120.859 76.4951 120.862 76.5245C120.883 76.6694 120.902 76.8125 120.917 76.954C120.933 77.0972 120.95 77.2369 120.964 77.3749V77.387C120.966 77.3887 120.966 77.3939 120.966 77.3956C120.966 77.3973 120.966 77.3973 120.966 77.4008C120.971 77.456 120.974 77.5094 120.978 77.5629C120.988 77.6871 120.998 77.8096 121.007 77.9303C121.014 78.0321 121.019 78.1339 121.024 78.2339C121.031 78.3685 121.038 78.503 121.041 78.6341C121.045 78.7307 121.045 78.8239 121.046 78.9188C121.048 79.0516 121.05 79.1775 121.05 79.3Z" fill="black"/>
</g>
<g opacity="0.35">
<path opacity="0.35" d="M133.387 139.582L133.382 139.898L133.104 139.891L133.387 139.582Z" fill="black"/>
</g>
<g opacity="0.6">
<path opacity="0.6" d="M145.001 123.721C144.99 123.714 144.978 123.708 144.968 123.707L144.994 123.715L145.001 123.721Z" fill="black"/>
</g>
<path d="M130.959 35.4367C130.625 36.3596 130.271 37.3204 129.716 38.1518C129.651 38.2484 129.582 38.3416 129.513 38.4347C129.479 38.4813 129.405 38.5814 129.358 38.609C129.14 38.7401 128.843 38.6141 128.533 38.4485C128.147 38.2467 127.791 37.8914 127.714 37.5688C127.557 36.9288 127.817 36.2802 127.887 35.6299C127.995 34.6259 127.641 33.6323 127.514 32.6301C127.244 30.4877 128.014 28.2348 127.196 26.2097L127.201 26.2028C127.287 25.8405 127.734 25.6283 128.14 25.6801C128.439 27.3568 128.575 29.0559 128.925 30.724C129.276 32.3955 129.86 34.0584 130.959 35.4367Z" fill="#F39393"/>
<path d="M127.454 26.2166C127.354 25.8595 126.921 25.6801 126.539 25.7508C126.337 27.431 126.294 29.1249 126.044 30.7982C125.795 32.4731 125.326 34.1533 124.355 35.573C124.759 36.5769 125.36 37.5791 126.046 38.4313C126.459 38.9436 127.414 38.1794 127.53 37.5395C127.645 36.8995 127.366 36.263 127.268 35.6213C127.117 34.6294 127.404 33.6272 127.473 32.6249C127.62 30.4842 126.782 28.2831 127.456 26.2321L127.454 26.2166Z" fill="#F39393"/>
<path d="M132.976 66.9628C133.076 66.9955 133.177 66.9162 133.234 66.8265C133.291 66.7368 133.323 66.6298 133.397 66.5557C133.535 66.4177 133.774 66.4418 133.928 66.5608C134.083 66.6799 134.169 66.8679 134.236 67.0525C134.358 67.3854 134.441 67.7373 134.432 68.0926C134.423 68.448 134.315 68.8068 134.092 69.0793C134.019 69.1673 133.932 69.2484 133.825 69.2863C133.719 69.3243 133.588 69.3122 133.507 69.2311C133.475 69.2001 133.451 69.1587 133.421 69.1242C133.325 69.0086 133.165 68.95 133.019 68.981C133.021 68.3203 132.976 67.6234 132.976 66.9628Z" fill="#F39393"/>
<g opacity="0.15">
<path opacity="0.15" d="M134.004 68.8948L133.908 68.831C134.093 68.5395 134.178 68.1755 134.142 67.8305C134.105 67.4855 133.946 67.1491 133.703 66.9042L133.784 66.8214C134.049 67.087 134.215 67.4406 134.255 67.8184C134.296 68.1962 134.207 68.5774 134.004 68.8948Z" fill="black"/>
</g>
<g opacity="0.15">
<path opacity="0.15" d="M123.236 69C123.123 68.9931 123.011 68.9379 122.934 68.8569C122.796 68.7154 122.746 68.5153 122.719 68.3566C122.662 68.0306 122.664 67.7011 122.72 67.3768L122.834 67.3975C122.779 67.7098 122.777 68.0254 122.832 68.3359C122.856 68.4774 122.899 68.655 123.014 68.7741C123.111 68.8741 123.286 68.9259 123.401 68.8362L123.47 68.9293C123.399 68.9862 123.317 69.0069 123.236 69Z" fill="black"/>
</g>
<g opacity="0.15">
<path opacity="0.15" d="M128.678 70.0557C128.558 70.0557 128.446 70.0212 128.357 69.9522C128.267 69.8815 128.207 69.7676 128.197 69.6469C128.188 69.5416 128.217 69.4451 128.281 69.3743L128.365 69.4537C128.324 69.5002 128.305 69.5641 128.31 69.6365C128.317 69.7228 128.362 69.809 128.425 69.859C128.54 69.9487 128.723 69.9643 128.889 69.8953C128.967 69.8642 129.025 69.8211 129.063 69.7711L129.154 69.8418C129.104 69.9091 129.029 69.9643 128.932 70.0039C128.85 70.0384 128.762 70.0557 128.678 70.0557Z" fill="black"/>
</g>
<g opacity="0.15">
<path opacity="0.15" d="M128.626 72.2913C128.571 72.2913 128.514 72.2913 128.458 72.274C128.391 72.2533 128.336 72.2102 128.31 72.155L128.413 72.105C128.425 72.1309 128.453 72.1516 128.489 72.1619C128.53 72.174 128.576 72.174 128.626 72.174C128.649 72.174 128.671 72.174 128.686 72.1671C128.698 72.1619 128.705 72.1533 128.705 72.1498L128.82 72.1533C128.819 72.205 128.784 72.2533 128.729 72.2758C128.695 72.2913 128.657 72.2913 128.626 72.2913Z" fill="black"/>
</g>
<g opacity="0.15">
<path opacity="0.15" d="M137.456 97.7351C137.083 97.8403 136.701 97.8921 136.314 97.8749C136.314 97.8749 136.766 97.8628 137.456 97.7351Z" fill="black"/>
</g>
<g opacity="0.15">
<path opacity="0.15" d="M131.309 40.4133C130.62 39.6146 129.957 38.935 129.341 38.4227L129.372 38.3623L129.463 38.1812H129.477C129.516 38.1812 129.559 38.1829 129.601 38.1863C129.747 38.1984 129.888 38.2295 130.018 38.2967C130.204 38.3951 130.347 38.5589 130.469 38.7314C130.739 39.1058 130.926 39.5336 131.112 39.9579C131.177 40.1097 131.246 40.2598 131.309 40.4133Z" fill="black"/>
</g>
<g opacity="0.15">
<path opacity="0.15" d="M117.19 53.739C118.812 46.8942 125.11 39.8027 126.086 38.7366C123.027 42.1314 119.187 49.6214 117.19 53.739Z" fill="black"/>
</g>
<path d="M173.198 143.629V143.648C173.171 144.432 172.997 145.326 172.504 146.168C172.04 146.975 171.281 147.734 170.084 148.307C169.617 148.533 169.084 148.769 168.474 148.954C168.335 148.999 168.192 149.038 168.042 149.073C167.498 149.209 166.894 149.297 166.231 149.299C166.136 149.299 166.045 149.297 165.954 149.293C157.135 149.019 142.639 145.69 140.468 145.164C140.36 145.138 140.284 145.119 140.24 145.107L140.193 144.803L140.006 143.582L139.516 140.037L159.168 139.332H159.182C161.719 138.731 164.619 138.669 167.173 139.126C169.244 139.499 171.258 140.311 172.951 141.581C172.965 141.629 172.978 141.686 172.994 141.747C173.003 141.786 173.015 141.828 173.023 141.873C173.044 141.962 173.064 142.059 173.083 142.168C173.088 142.193 173.092 142.221 173.097 142.249C173.138 142.48 173.171 142.747 173.188 143.039C173.19 143.071 173.19 143.104 173.193 143.137C173.2 143.297 173.202 143.46 173.198 143.629Z" fill="#F39393"/>
<path d="M140.463 145.088L140.131 145.111L137.517 145.28C137.299 145.3 137.06 145.383 136.826 145.499C136.018 145.894 135.427 146.639 135.164 147.513C134.944 148.24 134.719 148.887 134.523 149.404C134.154 150.394 133.889 151.419 133.734 152.466L133.284 155.507C133.158 156.242 132.909 156.125 132.909 156.125L132.856 156.616L132.82 156.956C132.718 157.035 132.624 157.091 132.533 157.13H132.531V157.132C131.515 157.56 131.156 155.662 131.156 155.662C132.031 148.46 131.223 142.271 131.223 142.271C130.706 139.63 133.387 139.582 133.387 139.582L139.765 140.039L140.463 145.088Z" fill="#F39393"/>
<g opacity="0.15">
<path opacity="0.15" d="M172.504 146.168C172.04 146.975 171.281 147.734 170.084 148.307C169.617 148.533 169.084 148.769 168.474 148.954C168.393 148.962 168.311 148.981 168.228 149.012C168.166 149.033 168.104 149.054 168.042 149.073C167.468 149.245 166.831 149.299 166.231 149.299C166.136 149.299 166.045 149.297 165.954 149.294C156.853 149.049 142.619 145.7 140.469 145.164C140.364 145.138 140.288 145.119 140.24 145.107L137.517 145.278C137.299 145.297 137.062 145.381 136.828 145.495C136.02 145.89 135.427 146.635 135.166 147.51C134.944 148.234 134.719 148.883 134.525 149.402C134.156 150.391 133.891 151.417 133.738 152.462L133.288 155.504C133.162 156.238 132.911 156.121 132.911 156.121L132.858 156.613C132.858 156.613 132.535 157.127 132.533 157.127L132.844 154.377L133.294 151.336C133.451 150.291 133.714 149.264 134.082 148.276C134.276 147.757 134.501 147.11 134.723 146.384C134.986 145.509 135.577 144.764 136.385 144.369C140.082 142.561 144.817 144.738 148.462 145.564C154.413 146.911 160.55 148.005 166.65 148.197C167.601 148.229 168.654 148.386 169.584 148.157C170.113 148.027 170.612 147.788 171.064 147.479C171.602 147.117 172.073 146.658 172.504 146.168Z" fill="black"/>
</g>
<path d="M140.214 145.104C140.221 145.105 140.228 145.109 140.241 145.111L140.242 145.119L140.214 145.104Z" fill="#3F424A"/>
<g opacity="0.15">
<path opacity="0.15" d="M131.961 205.953L131.762 205.837L132.657 204.228L132.856 204.344L131.961 205.953Z" fill="black"/>
</g>
<g opacity="0.15">
<path opacity="0.15" d="M130.28 205.739L130.083 205.622L130.937 204.114L131.134 204.231L130.28 205.739Z" fill="black"/>
</g>
<g opacity="0.15">
<path opacity="0.15" d="M128.941 205.04L128.754 204.904L129.421 203.942L129.608 204.076L128.941 205.04Z" fill="black"/>
</g>
<g opacity="0.15">
<path opacity="0.15" d="M127.807 204.245L127.628 204.1L128.152 203.428L128.331 203.574L127.807 204.245Z" fill="black"/>
</g>
<path d="M123.82 67.6459C123.82 67.6459 123.853 67.589 123.898 67.4872C124.042 67.1681 124.326 66.4108 124.191 65.6242C124.191 65.6242 125.041 64.8186 125.267 63.9941C125.293 63.9027 125.376 63.8406 125.469 63.8354C125.934 63.8095 127.247 63.7077 127.727 63.3852C127.791 63.342 127.871 63.3386 127.94 63.3714L129.434 64.0769C129.564 64.139 129.716 64.0631 129.748 63.9199C129.834 63.5473 130.18 63.3041 130.551 63.3541C131.089 63.4283 131.881 63.6232 132.639 64.1355C132.692 64.1717 132.729 64.2321 132.739 64.2977L133.114 66.9456L133.268 66.8869L133.394 63.4731C133.397 63.3765 133.34 63.2868 133.251 63.2506L129.929 61.8999C129.903 61.8896 129.874 61.8844 129.844 61.8844H125.233C125.202 61.8844 125.173 61.8913 125.145 61.9034L123.851 62.4623C123.765 62.4985 123.712 62.5847 123.714 62.6796L123.82 67.6459Z" fill="#21252B"/>
<path d="M130.21 67.5062C130.395 67.5062 130.545 67.3531 130.545 67.1646C130.545 66.9759 130.395 66.8231 130.21 66.8231C130.024 66.8231 129.874 66.9759 129.874 67.1646C129.874 67.3531 130.024 67.5062 130.21 67.5062Z" fill="#21252B"/>
<path d="M126.828 67.5062C127.014 67.5062 127.164 67.3531 127.164 67.1646C127.164 66.9759 127.014 66.8231 126.828 66.8231C126.643 66.8231 126.493 66.9759 126.493 67.1646C126.493 67.3531 126.643 67.5062 126.828 67.5062Z" fill="#21252B"/>
<path d="M130.933 65.8899C131.132 65.9934 131.306 66.1693 131.366 66.3901C130.923 66.033 130.379 65.8174 129.817 65.7674C130.177 65.7156 130.598 65.7156 130.933 65.8899Z" fill="#21252B"/>
<path d="M126.12 65.8899C125.921 65.9934 125.747 66.1693 125.687 66.3901C126.13 66.033 126.674 65.8174 127.236 65.7674C126.878 65.7156 126.455 65.7156 126.12 65.8899Z" fill="#21252B"/>
<path opacity="0.19" d="M126.586 70.4025L127.198 71.089H129.829L130.479 70.4853" stroke="black" stroke-width="0.75" stroke-miterlimit="10" stroke-linecap="round" stroke-linejoin="round"/>
<path d="M266.705 206.853L266.697 207H266.496L253.706 206.991L234.051 206.979L213.51 206.966H211.471L195.379 206.953L178.927 206.943L132.531 206.914H132.354L125.9 206.909L121.608 206.907L120.201 206.903L114.907 206.902H113.814L92.2195 206.888L76.7043 206.879H75.857L74.6435 206.876V206.879H73.4078L72.0018 206.876L60.6099 206.867H58.5492L27.2026 206.847H25.599L12.246 206.836L12.0156 205.382L11.9916 205.23L17.1702 205.239H18.3149L19.1451 205.242L20.2915 205.244L25.599 205.254L27.2026 205.256L36.8345 205.275H37.522L41.8051 205.282L42.9498 205.284L43.7799 205.285L44.9246 205.289L51.5092 205.301H52.1949L58.5492 205.311L60.6099 205.316L66.4382 205.327L67.1962 205.329H67.5829L68.4148 205.33H69.5595L72.0018 205.335L73.4078 205.337L74.6435 205.341L75.857 205.342L76.2007 205.344H76.7043L91.0731 205.37L92.2195 205.373H93.0496L94.196 205.375L113.814 205.41H114.156L114.5 205.413L115.709 205.415H116.854L117.686 205.417L118.831 205.42L120.201 205.422L121.608 205.423L128.832 205.439L130.185 205.441H130.449L131.981 205.442H132.531L134.279 205.448L140.344 205.456L141.489 205.46L142.319 205.461L143.464 205.463L164.981 205.501L166.126 205.504L166.954 205.506L168.099 205.508L178.927 205.527H179.126L189.614 205.546L190.759 205.548H191.591L192.735 205.551L193.677 205.553L195.355 205.555H195.379L197.416 205.56L211.447 205.586H211.471L213.51 205.587L214.249 205.591L215.394 205.592H216.226L217.37 205.594L223.126 205.605L224.285 205.606H224.286L238.886 205.632L240.03 205.634L240.86 205.637L242.007 205.639L249.277 205.651L250.881 205.656L253.706 205.66H253.765L263.52 205.677L264.665 205.679L265.495 205.682L266.585 205.684H266.683L266.705 206.853Z" fill="#DADCDD"/>
<path d="M229.477 192.733L223.114 205.627H224.269L234.91 192.733H229.477Z" fill="#20262C"/>
<path d="M269.684 161.637L269.062 171.042L268.974 172.391L268.888 173.676L268.873 173.911L267.943 188.056L267.852 189.46L267.711 191.563L267.62 192.967H217.685V161.637H269.684Z" fill="#20262C"/>
<path d="M269.914 158.131L269.775 160.235L269.684 161.638L269.062 171.042L268.974 172.391L268.888 173.676L268.873 173.911L267.943 188.056L267.852 189.46H217.685V158.131H269.914Z" fill="#3F424A"/>
<path d="M268.888 173.676L268.873 173.911H218.424V173.676H268.888Z" fill="#F2F2F2"/>
<path d="M270.922 173.827V173.912H270.915L270.922 173.827Z" fill="#F2F2F2"/>
<path d="M260.87 169.171C261.853 169.171 262.649 168.415 262.649 167.484C262.649 166.552 261.853 165.797 260.87 165.797C259.889 165.797 259.091 166.552 259.091 167.484C259.091 168.415 259.889 169.171 260.87 169.171Z" fill="#F2F2F2"/>
<path d="M260.87 182.308C261.853 182.308 262.649 181.553 262.649 180.621C262.649 179.69 261.853 178.934 260.87 178.934C259.889 178.934 259.091 179.69 259.091 180.621C259.091 181.553 259.889 182.308 260.87 182.308Z" fill="#F2F2F2"/>
<path d="M248.808 142.15C248.631 141.778 248.468 141.381 248.478 140.967C248.488 140.553 248.713 140.118 249.1 139.991C249.37 139.903 249.669 139.977 249.918 140.117C250.458 140.422 250.786 141 251.085 141.552C251.989 143.225 252.856 144.919 253.681 146.634C253.266 144.339 252.85 142.009 253.076 139.687C253.206 138.343 253.55 137.031 253.892 135.726C254.356 133.957 254.968 131.992 256.559 131.147C256.673 131.086 256.795 131.033 256.92 131.041C257.237 131.064 257.396 131.436 257.472 131.75C257.955 133.775 257.852 135.913 257.429 137.952C257.006 139.991 256.274 141.949 255.502 143.879C256.504 142.685 257.324 141.324 258.459 140.261C259.593 139.199 261.171 138.448 262.663 138.838C262.8 138.875 262.941 138.923 263.036 139.03C263.113 139.12 263.151 139.237 263.173 139.354C263.385 140.401 262.711 141.422 261.944 142.15C261.178 142.878 260.263 143.491 259.748 144.42C261.334 143.534 263.142 143.063 264.95 143.066C265.408 143.068 265.877 143.101 266.293 143.294C266.709 143.487 267.064 143.868 267.121 144.332C267.176 144.795 266.922 145.254 266.564 145.543C266.207 145.833 265.76 145.98 265.316 146.089C262.711 146.732 259.98 146.275 257.3 146.373C257.14 146.378 256.977 146.389 256.831 146.452C256.573 146.568 256.419 146.832 256.252 147.063C255.814 147.674 254.966 148.324 254.177 148.05C253.548 147.831 252.835 147.013 252.314 146.592C250.841 145.404 249.629 143.875 248.808 142.15Z" fill="#9A9C9E"/>
<path d="M250.106 142.159C249.966 141.866 249.837 141.552 249.844 141.226C249.851 140.9 250.03 140.556 250.334 140.456C250.547 140.386 250.783 140.444 250.979 140.555C251.405 140.796 251.664 141.252 251.9 141.686C252.613 143.006 253.296 144.343 253.947 145.695C253.62 143.886 253.292 142.047 253.471 140.215C253.574 139.154 253.846 138.119 254.115 137.091C254.481 135.695 254.964 134.145 256.219 133.479C256.308 133.432 256.405 133.389 256.504 133.396C256.754 133.413 256.879 133.708 256.939 133.957C257.321 135.554 257.238 137.239 256.905 138.849C256.571 140.458 255.994 142.002 255.386 143.523C256.176 142.582 256.822 141.509 257.718 140.67C258.613 139.832 259.858 139.24 261.035 139.547C261.143 139.575 261.255 139.615 261.329 139.699C261.391 139.77 261.42 139.863 261.437 139.954C261.604 140.781 261.073 141.586 260.468 142.161C259.863 142.735 259.143 143.218 258.735 143.951C259.987 143.251 261.413 142.88 262.84 142.884C263.201 142.884 263.57 142.911 263.899 143.063C264.227 143.215 264.509 143.517 264.552 143.882C264.596 144.246 264.395 144.609 264.112 144.838C263.83 145.066 263.477 145.181 263.127 145.269C261.071 145.776 258.918 145.416 256.803 145.493C256.678 145.499 256.549 145.506 256.432 145.557C256.229 145.649 256.107 145.856 255.975 146.039C255.63 146.52 254.961 147.034 254.339 146.817C253.842 146.644 253.28 145.999 252.869 145.666C251.707 144.726 250.752 143.52 250.106 142.159Z" fill="#C8CBCC"/>
<path d="M264.253 145.431V155.679C264.247 157.101 263.118 158.251 261.724 158.251H250.573C249.181 158.251 248.052 157.101 248.047 155.679V145.431H264.253Z" fill="#8138D9"/>
<g opacity="0.15">
<path opacity="0.15" d="M264.253 155.678C264.247 157.099 263.118 158.25 261.724 158.25H250.573C249.181 158.25 248.052 157.099 248.047 155.678H264.253Z" fill="black"/>
</g>
<path d="M238.674 158.45L235.445 153.689H229.896L226.246 158.35L225.71 157.912L229.566 152.987H235.804L239.238 158.051L238.674 158.45Z" fill="#9A9C9E"/>
<path d="M232.502 157.208C237.196 157.208 241 153.324 241 148.533C241 143.742 237.196 139.858 232.502 139.858C227.81 139.858 224.005 143.742 224.005 148.533C224.005 153.324 227.81 157.208 232.502 157.208Z" fill="#9A9C9E"/>
<path d="M232.502 156.13C236.612 156.13 239.943 152.728 239.943 148.533C239.943 144.337 236.612 140.936 232.502 140.936C228.393 140.936 225.062 144.337 225.062 148.533C225.062 152.728 228.393 156.13 232.502 156.13Z" fill="#DADCDD"/>
<g opacity="0.71">
<path opacity="0.71" d="M232.502 155.195C236.106 155.195 239.027 152.212 239.027 148.533C239.027 144.854 236.106 141.871 232.502 141.871C228.9 141.871 225.978 144.854 225.978 148.533C225.978 152.212 228.9 155.195 232.502 155.195Z" fill="white"/>
</g>
<path d="M230.895 152.048L230.342 151.632L232.16 149.111V143.425H232.846V149.342L230.895 152.048Z" fill="#9A9C9E"/>
<path d="M123.239 66.1969L123.198 67.6752" stroke="#4D61FC" stroke-width="1.5" stroke-miterlimit="10" stroke-linecap="round" stroke-linejoin="round"/>
<path d="M123.353 68.5136C123.47 68.5136 123.565 68.301 123.565 68.0392C123.565 67.7772 123.47 67.5648 123.353 67.5648C123.236 67.5648 123.142 67.7772 123.142 68.0392C123.142 68.301 123.236 68.5136 123.353 68.5136Z" fill="black"/>
<path d="M133.737 66.0071L133.78 67.4855" stroke="#4D61FC" stroke-width="1.5" stroke-miterlimit="10" stroke-linecap="round" stroke-linejoin="round"/>
<path d="M133.624 68.3239C133.741 68.3239 133.835 68.1115 133.835 67.8495C133.835 67.5875 133.741 67.3751 133.624 67.3751C133.507 67.3751 133.413 67.5875 133.413 67.8495C133.413 68.1115 133.507 68.3239 133.624 68.3239Z" fill="black"/>
<path d="M51.4645 200.357H14.2777V205.23H51.4645V200.357Z" fill="#9A9C9E"/>
<path d="M63.4684 127.702C63.4667 127.795 63.4598 127.888 63.4495 127.978L58.0268 135.321L56.8546 136.912L59.4946 135.319L60.4382 134.752C60.177 136.615 58.8793 138.193 57.702 139.679C54.5395 143.67 51.8238 148.033 49.6273 152.651C48.1681 155.716 46.8979 158.959 44.6377 161.467C42.8881 163.409 40.731 164.605 38.8112 164.734C38.4949 164.755 38.1838 164.748 37.8813 164.708C37.1217 164.612 36.4204 164.32 35.824 163.811C34.9921 163.101 34.3699 161.959 34.0881 160.33C34.0795 160.282 34.0692 160.23 34.0623 160.18V160.173C34.0485 160.087 34.0348 159.997 34.0227 159.909C34.0004 159.739 33.9798 159.568 33.9626 159.397C33.392 154.096 34.6999 148.383 36.7642 143.399C36.8793 143.118 36.9962 142.842 37.1165 142.566C37.1526 142.485 37.187 142.404 37.2248 142.323C37.2523 142.259 37.2815 142.194 37.309 142.131C37.5359 141.626 37.7696 141.131 38.0102 140.646C38.7356 139.178 39.5399 137.753 40.4131 136.379C40.4904 136.253 40.5729 136.127 40.6537 135.999L41.4409 137.491L41.9651 138.483L44.2923 131.012C47.0612 127.623 50.2031 124.526 53.5099 121.68C56.217 119.353 59.2609 117.086 62.7517 116.679C62.9115 116.66 63.0748 116.646 63.2363 116.634C63.9754 118.432 64.4274 120.357 64.5718 122.303C64.7093 124.174 64.5271 126.168 63.4684 127.702Z" fill="#8138D9"/>
<path d="M26.2819 176.745C25.7663 173.107 24.7557 169.564 23.281 166.211L23.6987 166.019C25.1905 169.412 26.2132 172.999 26.734 176.678L26.2819 176.745Z" fill="#B1B4B9"/>
<path d="M30.723 177.53L30.4205 158.811L30.8777 158.804L31.1373 174.862C32.031 172.742 33.4833 170.72 34.8962 168.755C36.5427 166.464 38.246 164.096 39.016 161.621L39.4526 161.762C38.6602 164.31 36.9346 166.709 35.2657 169.031C33.6191 171.322 31.9158 173.69 31.1458 176.166L30.723 177.53Z" fill="#B1B4B9"/>
<path d="M43.5393 172.384V191.434C43.5393 195.689 40.1586 199.137 35.994 199.137H28.4556C26.3364 199.137 24.4234 198.247 23.0536 196.81C21.7284 195.423 20.9103 193.526 20.9103 191.434V172.384H43.5393Z" fill="#3F424A"/>
<g opacity="0.51">
<path opacity="0.51" d="M62.7812 127.234C62.7795 127.328 62.7726 127.421 62.7623 127.51L56.1657 136.444L58.0254 135.321L56.8532 136.912L59.4932 135.32C58.9982 136.746 57.9653 138.009 57.0131 139.209C53.8506 143.201 51.1349 147.564 48.9384 152.181C47.4792 155.247 46.209 158.49 43.9489 160.998C42.1992 162.94 40.0439 164.136 38.1257 164.265H38.124C37.2973 164.322 36.5118 164.179 35.8243 163.81C34.7845 163.259 33.9646 162.197 33.5453 160.536C33.4903 160.32 33.4421 160.096 33.4009 159.859C33.3923 159.808 33.382 159.754 33.3751 159.702C33.3614 159.616 33.3476 159.526 33.3356 159.438C32.5828 153.701 34.0987 147.426 36.4293 142.097C36.4929 141.952 36.5582 141.807 36.6218 141.662C36.7714 141.333 36.9226 141.005 37.0773 140.683C37.1581 140.512 37.2406 140.343 37.3231 140.177C38.1154 138.573 39.0023 137.026 39.9665 135.532L40.4134 136.379L41.2796 138.016L41.4429 137.491L43.6068 130.545C46.3757 127.155 49.5176 124.059 52.8245 121.212C55.6553 118.779 58.8573 116.41 62.5509 116.167C62.6213 116.338 62.6884 116.508 62.752 116.679C63.3724 118.328 63.7557 120.074 63.8863 121.835C64.0238 123.707 63.8399 125.701 62.7812 127.234Z" fill="white"/>
</g>
<path d="M34.3942 158.968C34.2515 159.119 34.1106 159.263 33.9662 159.395C33.7806 159.566 33.5932 159.72 33.4024 159.861C32.5946 160.461 31.7559 160.784 30.9137 160.882C30.8381 160.894 30.7607 160.901 30.6851 160.906C30.6095 160.913 30.5338 160.915 30.4565 160.919C30.3688 160.92 30.2829 160.92 30.1952 160.919C29.1159 160.893 28.0417 160.525 27.0259 159.934C26.9588 159.896 26.8952 159.859 26.8317 159.82C26.5085 159.625 26.1957 159.406 25.8863 159.169H25.8846C23.5059 157.336 21.5809 154.405 20.8745 152.038C19.9635 149 20.0134 145.763 20.0684 142.587L20.1027 140.7V140.695C20.1027 140.695 20.1027 140.695 20.1027 140.693C20.1113 140.167 20.1216 139.639 20.1302 139.113C20.1732 136.789 20.2145 134.462 20.2557 132.139L20.6012 132.756L20.8229 133.151C20.8246 133.02 20.8281 132.887 20.8298 132.756L21.5379 134.019L21.8868 134.642L21.6943 133.643L20.352 126.72C20.3588 126.437 20.364 126.156 20.3674 125.873C20.4774 119.776 20.6012 113.574 22.4248 107.768C23.346 104.84 25.5821 101.611 28.3373 101.511H28.3734C28.7584 101.499 29.1571 101.551 29.5627 101.675C30.0509 101.822 30.4771 102.055 30.8501 102.353C32.6428 103.769 33.2203 106.686 33.4626 109.163C33.6878 111.454 33.9112 113.748 34.1363 116.039L30.9051 126.565L30.6524 127.388L31.6373 125.706L32.1185 124.883L31.486 126.943L31.2317 127.767L34.5042 122.17L34.7018 121.835C35.2037 126.948 35.7056 132.063 36.204 137.176C36.3501 138.669 36.4979 140.167 36.6285 141.662C36.6784 142.24 36.7248 142.818 36.7712 143.398V143.399C36.9104 145.268 37.0118 147.137 37.0462 149.013C37.1012 152.544 36.7781 156.411 34.3942 158.968Z" fill="#8138D9"/>
<path d="M34.1637 158.967C34.0898 159.045 34.0193 159.119 33.9454 159.195C33.875 159.262 33.8062 159.331 33.734 159.397C33.6154 159.507 33.4951 159.609 33.3748 159.706C33.3061 159.759 33.239 159.811 33.1703 159.863C32.4347 160.409 31.675 160.725 30.9084 160.851C30.7572 160.879 30.6042 160.896 30.4529 160.908C30.3653 160.915 30.2793 160.92 30.1917 160.92C29.4011 160.936 28.6087 160.766 27.8404 160.453C27.5792 160.347 27.3179 160.227 27.0636 160.089C26.9072 160.004 26.7525 159.916 26.5995 159.821C26.3778 159.688 26.1595 159.543 25.9464 159.387C25.8484 159.319 25.7487 159.247 25.6525 159.171C23.2737 157.341 21.347 154.406 20.6389 152.04C19.7279 149.002 19.7778 145.764 19.8328 142.588L19.8671 140.701V140.7C19.8671 140.698 19.8671 140.698 19.8671 140.694C19.8689 140.556 19.8723 140.42 19.874 140.282C19.874 140.28 19.874 140.28 19.874 140.28C19.8826 139.773 19.8929 139.266 19.9015 138.759C19.9445 136.422 19.9857 134.081 20.027 131.742L20.2487 132.138L20.5942 132.756L20.8159 133.151L21.6495 134.64L21.5309 134.017L21.457 133.641L21.335 133.016L20.1146 126.717C20.1215 126.434 20.1267 126.153 20.1301 125.87C20.2401 119.772 20.3639 113.571 22.1875 107.764C23.1328 104.756 25.4686 101.428 28.3303 101.508H28.3664C28.6809 101.52 28.9989 101.573 29.3254 101.671C29.6572 101.772 29.9614 101.913 30.2398 102.087C30.3704 102.165 30.4942 102.253 30.6128 102.349C32.4054 103.766 32.9829 106.683 33.2253 109.16C33.4504 111.451 33.6739 113.745 33.899 116.036L30.4151 127.384L30.8964 126.562L31.8812 124.88L31.6286 125.702L30.9943 127.764L31.4773 126.939L31.2229 127.764L34.4954 122.166C34.987 127.167 35.4786 132.171 35.965 137.172C36.1111 138.666 36.2589 140.163 36.3895 141.659C36.4033 141.804 36.4153 141.948 36.4256 142.093C36.4617 142.526 36.4961 142.959 36.5304 143.394V143.396C36.5425 143.554 36.5528 143.717 36.5648 143.875C36.6868 145.585 36.7728 147.296 36.8054 149.011C36.8708 152.543 36.5476 156.411 34.1637 158.967Z" fill="#8138D9"/>
<path d="M34.1637 158.967C34.0898 159.045 34.0193 159.119 33.9454 159.195C33.875 159.262 33.8062 159.331 33.734 159.397C33.6154 159.507 33.4951 159.609 33.3748 159.706C33.3061 159.759 33.239 159.811 33.1703 159.863C32.4347 160.409 31.675 160.725 30.9084 160.851C30.7572 160.879 30.6042 160.896 30.4529 160.908C30.3653 160.915 30.2793 160.92 30.1917 160.92C29.4011 160.936 28.6087 160.766 27.8404 160.453C27.5792 160.347 27.3179 160.227 27.0636 160.089C26.9072 160.004 26.7525 159.916 26.5995 159.821C26.3778 159.688 26.1595 159.543 25.9464 159.387C25.8484 159.319 25.7487 159.247 25.6525 159.171C23.2737 157.341 21.347 154.406 20.6389 152.04C19.7279 149.002 19.7778 145.764 19.8328 142.588L19.8671 140.701V140.7C19.8671 140.698 19.8671 140.698 19.8671 140.694C19.8689 140.556 19.8723 140.42 19.874 140.282C19.874 140.28 19.874 140.28 19.874 140.28C19.8826 139.773 19.8929 139.266 19.9015 138.759C19.9445 136.422 19.9857 134.081 20.027 131.742L20.2487 132.138L20.5942 132.756L20.8159 133.151L21.6495 134.64L21.5309 134.017L21.457 133.641L21.335 133.016L20.1146 126.717C20.1215 126.434 20.1267 126.153 20.1301 125.87C20.2401 119.772 20.3639 113.571 22.1875 107.764C23.1328 104.756 25.4686 101.428 28.3303 101.508H28.3664C28.6809 101.52 28.9989 101.573 29.3254 101.671C29.6572 101.772 29.9614 101.913 30.2398 102.087C30.3704 102.165 30.4942 102.253 30.6128 102.349C32.4054 103.766 32.9829 106.683 33.2253 109.16C33.4504 111.451 33.6739 113.745 33.899 116.036L30.4151 127.384L30.8964 126.562L31.8812 124.88L31.6286 125.702L30.9943 127.764L31.4773 126.939L31.2229 127.764L34.4954 122.166C34.987 127.167 35.4786 132.171 35.965 137.172C36.1111 138.666 36.2589 140.163 36.3895 141.659C36.4033 141.804 36.4153 141.948 36.4256 142.093C36.4617 142.526 36.4961 142.959 36.5304 143.394V143.396C36.5425 143.554 36.5528 143.717 36.5648 143.875C36.6868 145.585 36.7728 147.296 36.8054 149.011C36.8708 152.543 36.5476 156.411 34.1637 158.967Z" fill="#8138D9"/>
<path d="M34.9736 159.349C34.678 159.669 34.3738 159.945 34.0644 160.178C34.0369 160.202 34.0094 160.22 33.9819 160.242C33.8375 160.349 33.6914 160.447 33.5471 160.537C32.8011 160.996 32.0328 161.234 31.2646 161.287C31.1494 161.296 31.036 161.301 30.9208 161.301C30.8435 161.301 30.7678 161.3 30.6922 161.296C30.6149 161.294 30.5393 161.289 30.4602 161.282C29.5716 161.208 28.6899 160.91 27.8425 160.449C27.5675 160.302 27.2977 160.139 27.0313 159.957C26.9625 159.911 26.8955 159.864 26.8302 159.818C26.7064 159.733 26.5844 159.642 26.4641 159.549C26.2527 159.387 26.0464 159.217 25.8454 159.042C23.7536 157.206 22.0968 154.575 21.4505 152.418C20.5396 149.38 20.5894 146.142 20.6444 142.966L20.665 141.793V141.792L20.6788 141.081V141.079C20.6857 140.751 20.6908 140.429 20.6977 140.101V140.099C20.7389 137.783 20.7802 135.468 20.8214 133.151C20.8232 133.02 20.8266 132.887 20.8283 132.756C20.8335 132.546 20.8352 132.333 20.8404 132.123L21.3422 133.018L21.6929 133.643L22.4646 135.023L20.9297 127.101C20.9366 126.819 20.9418 126.537 20.9452 126.254C21.0552 120.157 21.1789 113.955 23.0025 108.149C24.0561 104.795 26.8371 101.05 30.1405 102.056C30.1766 102.068 30.211 102.08 30.2454 102.091C30.4585 102.161 30.6596 102.248 30.8469 102.353C33.1002 103.559 33.7722 106.817 34.0386 109.544C34.2638 111.835 34.4872 114.129 34.7124 116.42L32.1153 124.885L31.4829 126.944L31.2285 127.769L34.501 122.171L34.6986 121.837L35.1627 121.041C35.7024 126.548 36.2421 132.052 36.78 137.558C36.8832 138.599 36.9846 139.642 37.0808 140.684C37.1238 141.138 37.165 141.591 37.2046 142.045C37.2114 142.138 37.22 142.23 37.2269 142.323C37.4263 144.677 37.5793 147.034 37.6205 149.395C37.6807 152.925 37.3575 156.79 34.9736 159.349Z" fill="#8138D9"/>
<path d="M12.0535 145.226C13.0435 145.342 14.0335 145.457 15.0235 145.573C13.1656 144.11 12.2014 141.709 11.9453 139.327C11.6892 136.946 12.0621 134.547 12.4334 132.182C13.4784 132.948 14.5234 133.712 15.5701 134.478C16.6168 135.244 17.6705 136.016 18.5522 136.972C19.7983 138.323 20.6577 139.991 21.5016 141.635C23.9731 146.454 24.7603 150.846 25.8861 156.063C26.4808 158.816 28.7237 163.133 26.8056 165.767C19.3153 176.047 12.3131 149.277 12.0535 145.226Z" fill="#8138D9"/>
<g opacity="0.51">
<path opacity="0.51" d="M11.1378 145.226C12.1278 145.342 13.1178 145.457 14.1078 145.573C12.2498 144.11 11.2856 141.709 11.0295 139.327C10.7734 136.946 11.1464 134.547 11.5176 132.182C12.5626 132.948 13.6076 133.712 14.6543 134.478C15.7011 135.244 16.7547 136.016 17.6364 136.972C18.8825 138.323 19.7419 139.991 20.5858 141.635C23.0574 146.454 23.8446 150.846 24.9703 156.063C25.565 158.816 27.808 163.133 25.8899 165.767C18.3996 176.047 11.3973 149.277 11.1378 145.226Z" fill="white"/>
</g>
<path d="M43.2288 190.685C43.2099 190.704 43.1944 190.723 43.1738 190.742C42.818 191.121 42.4347 191.422 42.0291 191.648C41.9861 191.672 41.9449 191.694 41.9002 191.715C41.3399 191.998 40.7074 192.118 40.1075 192.063C40.2932 191.268 40.3533 190.469 40.2863 189.681C40.2468 189.251 40.1557 188.706 39.7964 188.341C39.5902 188.13 39.2808 188.018 38.9886 188.042C38.76 188.063 38.5675 188.163 38.4438 188.332C38.0244 188.674 37.7889 189.2 37.7752 189.817C37.7597 190.523 38.0571 191.23 38.5486 191.66C38.8975 191.967 39.3341 192.172 39.8239 192.26C39.4544 193.617 38.7171 194.858 37.746 195.801C37.5277 196.014 37.2991 196.21 37.0585 196.388C36.8196 196.571 36.5703 196.735 36.3125 196.879C35.6732 197.242 35.1214 197.397 34.6264 197.352C34.128 197.307 33.6227 197.062 33.0366 196.584C31.9211 195.672 31.0893 194.395 30.6321 192.89C31.0188 191.648 30.8933 190.488 30.2797 189.615C30.3416 188.837 30.5066 188.094 30.7644 187.401C30.8555 187.159 30.9569 186.926 31.0721 186.699C31.2869 186.266 31.5413 185.858 31.8369 185.486C31.9383 185.356 32.0449 185.231 32.1514 185.105C32.49 184.697 32.8407 184.28 33.0469 183.775C33.3133 183.116 33.2583 182.181 32.6327 181.748C32.3457 181.546 31.9641 181.47 31.4639 181.51C29.9428 181.639 28.5524 182.702 28.0058 184.159C27.7033 184.97 27.6741 185.869 27.8889 186.7C27.9491 186.942 28.0316 187.178 28.1347 187.402C28.3135 187.799 28.5541 188.17 28.8514 188.487C29.0096 188.66 29.1832 188.817 29.3533 188.969C29.5871 189.181 29.8071 189.383 29.9944 189.619C30.0133 189.643 30.0288 189.664 30.0443 189.684C29.9686 190.751 30.0872 191.856 30.3932 192.888C30.1405 193.659 29.6953 194.395 29.1333 194.972C28.6366 195.477 28.0539 195.893 27.4266 196.207C26.9161 196.465 26.3747 196.659 25.823 196.774C24.8743 196.983 23.8928 196.978 22.9802 196.735C22.9372 196.722 22.896 196.71 22.8547 196.7L22.7928 196.924C22.9561 196.971 23.1177 197.014 23.2844 197.043C24.1094 197.207 24.9774 197.193 25.8213 197.016C26.3713 196.898 26.911 196.716 27.4249 196.465C28.1141 196.134 28.75 195.687 29.2932 195.135C29.8088 194.609 30.2316 193.947 30.5049 193.248C30.993 194.675 31.8128 195.886 32.8939 196.767C33.5161 197.275 34.0593 197.537 34.6041 197.585C34.666 197.59 34.7278 197.592 34.7897 197.592C35.2813 197.592 35.8175 197.426 36.4208 197.085C36.6391 196.964 36.8522 196.828 37.0568 196.681C37.2957 196.509 37.526 196.321 37.7443 196.12C38.8322 195.122 39.6538 193.773 40.0474 192.293C40.7005 192.363 41.3897 192.234 41.9982 191.925C42.0068 191.92 42.0171 191.917 42.0257 191.911C42.4296 191.703 42.8128 191.423 43.1703 191.071C43.246 190.999 43.3199 190.925 43.3921 190.845L43.2288 190.685ZM29.5046 188.796C29.3396 188.646 29.1694 188.492 29.0199 188.329C28.7638 188.053 28.5524 187.739 28.3908 187.402C28.2808 187.178 28.1914 186.942 28.1278 186.7C27.9078 185.898 27.9285 185.029 28.2224 184.242C28.7397 182.867 30.0494 181.865 31.4863 181.743C31.5671 181.736 31.6393 181.734 31.7132 181.734C32.0483 181.734 32.3078 181.801 32.5072 181.939C33.0314 182.303 33.0675 183.11 32.8372 183.687C32.6447 184.156 32.3078 184.561 31.9813 184.955C31.873 185.084 31.7664 185.212 31.6633 185.343C31.335 185.762 31.0549 186.215 30.8211 186.702C30.7128 186.928 30.6149 187.163 30.5272 187.404C30.3021 188.018 30.1508 188.674 30.0786 189.357C29.8964 189.151 29.6988 188.97 29.5046 188.796ZM30.5118 192.455C30.3175 191.66 30.2299 190.83 30.2574 190.014C30.6338 190.699 30.7232 191.546 30.5118 192.455ZM39.8807 192.03C39.4252 191.951 39.0178 191.761 38.6964 191.478C38.2547 191.092 37.9883 190.457 38.0021 189.819C38.0141 189.267 38.2238 188.801 38.595 188.503L38.6174 188.479C38.7257 188.327 38.8872 188.282 39.0041 188.273C39.0247 188.272 39.0436 188.272 39.0643 188.272C39.2722 188.272 39.4905 188.36 39.6314 188.503C39.9408 188.819 40.0216 189.31 40.056 189.7C40.123 190.469 40.0646 191.252 39.8807 192.03Z" fill="#DADCDD"/>
<path d="M43.1737 175.722C42.811 175.431 42.4277 175.194 42.029 175.024C42.017 175.017 42.0067 175.012 41.9946 175.008C41.6079 174.843 41.1954 174.737 40.7692 174.693C40.6987 174.463 40.6024 174.253 40.4804 174.066C40.4323 173.992 40.3824 173.92 40.3292 173.849C40.1212 173.575 39.8754 173.342 39.6038 173.147C39.0642 172.761 38.4145 172.529 37.7459 172.438C37.5173 172.405 37.2887 172.391 37.0584 172.391C36.3812 172.391 35.7023 172.524 35.111 172.774C34.8549 172.881 34.6074 173.005 34.3685 173.147C34.0162 173.352 33.681 173.589 33.3682 173.849C32.4676 174.592 31.7199 175.519 31.0685 176.421C31.0668 176.421 31.0668 176.423 31.0668 176.423C31.0668 176.423 31.0668 176.424 31.0651 176.424L31.0634 176.426C30.9826 176.54 30.9035 176.657 30.8227 176.769C30.7866 176.821 30.7488 176.873 30.7145 176.926C30.7145 176.928 30.7127 176.928 30.7127 176.932C30.546 177.168 30.3845 177.406 30.2229 177.644C29.3876 178.874 28.5265 180.144 27.4265 181.139C27.3491 181.211 27.2684 181.282 27.1859 181.349C26.7115 181.749 26.2612 182.032 25.8229 182.203C25.6235 182.283 25.4293 182.339 25.2351 182.372C24.7177 182.46 24.154 182.372 23.6418 182.124C24.3723 180.418 24.496 178.453 23.9804 176.718L23.946 176.604L23.836 176.642C22.3957 177.123 21.4848 178.8 21.8474 180.3C22.0382 181.091 22.5934 181.806 23.3427 182.232C23.1021 182.757 22.8048 183.25 22.4541 183.695C22.0193 184.254 21.4985 184.742 20.909 185.156C20.8145 185.224 20.7182 185.287 20.6202 185.351L20.7423 185.55C20.799 185.515 20.854 185.477 20.909 185.438C21.5724 184.996 22.1534 184.458 22.6329 183.84C22.9921 183.381 23.2998 182.878 23.5473 182.339C24.1007 182.603 24.7109 182.697 25.2746 182.602C25.4585 182.569 25.639 182.521 25.8246 182.452C26.3127 182.276 26.8095 181.972 27.332 181.532C27.3646 181.505 27.3956 181.475 27.4282 181.448C28.6245 180.414 29.5337 179.074 30.412 177.777C30.5151 177.627 30.6165 177.492 30.7213 177.342C30.7213 177.34 30.7231 177.34 30.7231 177.337V177.321C30.7643 177.263 30.8038 177.208 30.8399 177.151C30.8417 177.151 30.8416 177.149 30.8416 177.149C30.8416 177.147 30.8434 177.147 30.8434 177.144C30.8451 177.144 30.8451 177.142 30.8451 177.142C30.8984 177.063 30.9534 176.983 31.0084 176.906C31.7577 175.833 32.6429 174.689 33.7481 173.847C34.097 173.578 34.4648 173.342 34.8618 173.145C34.9718 173.088 35.087 173.038 35.2004 172.988C35.7659 172.75 36.4138 172.621 37.0601 172.621C37.2921 172.621 37.5207 172.635 37.7476 172.669C38.2529 172.74 38.741 172.895 39.1742 173.143C39.4973 173.326 39.7877 173.557 40.0335 173.846C40.1281 173.952 40.2123 174.068 40.2896 174.189C40.3842 174.335 40.4615 174.498 40.5234 174.67C39.6004 174.63 38.7462 174.9 38.0982 175.434L38.0638 175.462L38.057 175.508C37.9126 176.493 37.9727 177.523 38.2288 178.489L38.2495 178.57L38.3337 178.575C39.0435 178.617 39.7035 178.291 40.1985 177.66C40.7915 176.902 41.0338 175.85 40.8345 174.931C41.2074 174.977 41.5667 175.074 41.907 175.219C41.9482 175.238 41.9895 175.253 42.0307 175.276C42.4295 175.458 42.8145 175.709 43.1754 176.019C43.1978 176.038 43.2184 176.057 43.239 176.076L43.3885 175.898C43.3163 175.84 43.2459 175.779 43.1737 175.722ZM23.4373 182.017C22.7498 181.622 22.2445 180.966 22.0709 180.245C21.7495 178.922 22.5521 177.392 23.7948 176.904C24.252 178.551 24.1248 180.402 23.4373 182.017ZM40.0181 177.518C39.5918 178.063 39.0246 178.353 38.4265 178.348C38.2013 177.453 38.1498 176.504 38.2752 175.591C38.894 175.093 39.7138 174.855 40.5921 174.912C40.807 175.779 40.5835 176.794 40.0181 177.518Z" fill="#DADCDD"/>
<path d="M35.8123 162.053L35.6163 161.933C42.634 150.17 49.2615 137.965 55.3132 125.658L55.5177 125.763C49.4626 138.076 42.8334 150.285 35.8123 162.053Z" fill="#F2F2F2"/>
<path d="M29.1693 152.821C26.7544 139.07 26.2938 125.058 27.7994 111.171L28.2549 111.223C26.7544 125.064 27.2133 139.032 29.6196 152.739L29.1693 152.821Z" fill="#B1B4B9"/>
<path d="M22.9917 161.843C22.9435 161.843 22.8937 161.831 22.849 161.805C22.6737 161.702 22.629 161.483 22.6015 161.353C21.0735 153.886 18.3682 146.77 14.563 140.206L14.7606 140.087C18.5796 146.673 21.2935 153.813 22.8267 161.305C22.8524 161.429 22.8834 161.555 22.9642 161.603C22.9796 161.612 23.0054 161.612 23.0312 161.602C23.0587 161.591 23.0724 161.574 23.0742 161.569L23.2821 161.476C23.3251 161.572 23.301 161.679 23.2185 161.755C23.1601 161.807 23.0776 161.843 22.9917 161.843Z" fill="#F2F2F2"/>
<path d="M51.4645 199.136H14.2777V201.58H51.4645V199.136Z" fill="#B1B4B9"/>
</g>
<defs>
<clipPath id="clip0">
<rect width="275" height="207" fill="white"/>
</clipPath>
</defs>
</svg>
