<svg width="200" height="210" viewBox="0 0 200 210" fill="none" xmlns="http://www.w3.org/2000/svg">
<path d="M92.6811 184.976C143.632 184.976 184.936 143.673 184.936 92.7218C184.936 41.771 143.632 0.467163 92.6811 0.467163C41.7303 0.467163 0.426483 41.771 0.426483 92.7218C0.426483 143.673 41.7303 184.976 92.6811 184.976Z" fill="#BB84FF"/>
<path d="M86.082 17.8624C100.037 9.50135 123.474 19.666 134.861 43.3031C146.089 66.6161 142.416 97.6502 156.752 118.561C162.944 127.587 172.585 135.267 172.793 146.786C172.951 155.513 167.042 163.209 160.077 166.575C153.112 169.95 145.283 169.833 137.753 169.193C108.955 166.766 79.5078 156.76 58.5137 133.846C37.5112 110.932 27.1138 73.1903 38.9324 42.7379C42.9218 32.4653 49.4129 23.2232 58.0565 18.0536C66.7085 12.8757 77.6129 12.2441 86.082 17.8043" fill="#0B4870"/>
<path d="M82.2838 128.618C71.5457 128.618 24.5789 138.01 25.2521 173.573C42.0242 182.965 79.6491 192.797 103.078 189.672C123.208 186.988 159.437 167.531 159.437 167.531C159.437 167.531 140.654 124.587 99.0558 128.618C91.6755 145.39 82.2838 128.618 82.2838 128.618Z" fill="#8138D9"/>
<path d="M80.3223 109.901C80.3223 109.901 80.3223 133.821 75.668 136.937C89.1073 145.781 94.2769 149.413 94.2769 149.413L109.786 137.976C106.17 132.258 102.031 118.736 103.062 107.3C91.1768 108.862 80.3223 109.901 80.3223 109.901Z" fill="#FCD2B1"/>
<path d="M130.165 64.9374C130.165 87.4858 112.936 117.705 91.6838 117.705C70.432 117.705 53.2028 87.4858 53.2028 64.9374C53.2028 42.3891 70.432 24.1127 91.6838 24.1127C112.936 24.1044 130.165 42.3891 130.165 64.9374Z" fill="#FFE3CA"/>
<path d="M72.1441 30.1548C72.7342 44.5914 82.8739 57.2743 95.2077 64.796C107.542 72.3176 121.937 75.5922 136.041 78.7422C133.423 66.4582 130.63 53.9831 124.397 43.0787C118.163 32.1827 107.866 22.9074 95.4571 20.9792C88.0933 19.8405 80.5467 21.3365 73.5154 23.78C66.7418 26.1404 60.0263 29.5813 55.7377 35.3327C48.3656 45.223 49.9863 58.9199 51.9478 71.0959C60.0263 61.3884 70.0995 53.3431 81.3529 47.6083" fill="#0B4870"/>
<path d="M77.7209 209.91L80.5218 170.39L47.8005 170.847L77.7209 209.91Z" fill="#8138D9"/>
<path d="M169.56 177.496C186.314 177.496 199.896 163.914 199.896 147.16C199.896 130.406 186.314 116.824 169.56 116.824C152.806 116.824 139.224 130.406 139.224 147.16C139.224 163.914 152.806 177.496 169.56 177.496Z" fill="#FFBE55"/>
<path d="M156.877 143.229H165.413V133.596C165.413 131.411 167.191 129.632 169.377 129.632H169.743C171.929 129.632 173.707 131.411 173.707 133.596V143.229H182.243C184.429 143.229 186.207 145.008 186.207 147.194C186.207 149.379 184.429 151.158 182.243 151.158H173.707V160.733C173.707 162.918 171.929 164.697 169.743 164.697H169.377C167.191 164.697 165.413 162.918 165.413 160.733V151.158H156.877C154.691 151.158 152.913 149.379 152.913 147.194C152.913 144.999 154.683 143.229 156.877 143.229Z" fill="white"/>
</svg>
