<svg width="312" height="177" viewBox="0 0 312 177" fill="none" xmlns="http://www.w3.org/2000/svg">
<g clip-path="url(#clip0)">
<path opacity="0.1" d="M187.56 127.574C193.587 127.233 201.065 123.167 206.88 121.368C213.762 119.245 220.671 117.203 227.607 115.24C251.755 108.407 276.161 102.584 300.826 97.7715C303.128 97.3213 305.434 96.8818 307.743 96.4532C304.146 88.7229 298.573 82.0663 291.581 77.1479C291.76 75.4557 291.851 73.7554 291.854 72.0538C291.854 45.1614 270.245 23.3606 243.581 23.3606C235.372 23.3519 227.3 25.4594 220.154 29.4774C201.281 17.1298 176.648 9.65674 149.697 9.65674C111.401 9.65674 77.7818 24.7467 58.7318 47.4698L148.263 62.5137L203.174 71.7364C140.575 73.5945 77.7818 75.4417 15.3627 71.08C7.12306 79.0095 1.90795 89.5391 0.60863 100.869C-0.690692 112.199 2.00643 123.626 8.23906 133.198C8.23906 134.171 8.27997 135.137 8.3536 136.095C9.9436 136.548 11.4791 136.987 12.8563 137.275C34.9672 141.92 57.22 145.808 79.6145 148.939C63.1118 159.059 43.0145 160.491 23.9781 164.777C33.1963 172.345 45.7145 176.984 59.5091 176.984H264.905C287.146 176.984 305.174 161.585 305.174 142.586C308.511 137.112 310.735 131.039 311.719 124.713C270.565 128.665 228.897 125.234 187.56 127.574Z" fill="#8138D9"/>
<path opacity="0.1" d="M312 116.621C312.022 108.791 310.151 101.071 306.543 94.1109C302.936 87.1513 297.698 81.1566 291.273 76.6326C291.451 74.9411 291.542 73.2418 291.546 71.5411C291.546 44.6488 269.927 22.8561 243.273 22.8561C235.063 22.8473 226.991 24.9538 219.843 28.9702C200.97 16.6172 176.335 9.14136 149.384 9.14136C105.546 9.14136 67.811 28.9295 51.0764 57.3056C50.1464 57.2513 49.211 57.2215 48.2673 57.2215C21.611 57.2215 -0.00539891 79.0223 -0.00539891 105.915C-0.0240828 115.414 2.73525 124.713 7.93642 132.68C7.93642 156.876 30.8973 176.49 59.2092 176.49H264.611C286.849 176.49 304.877 161.088 304.877 142.089C309.554 134.41 312.018 125.6 312 116.621Z" fill="#8138D9"/>
<path d="M254.804 86.7884C254.414 86.4907 253.957 86.2915 253.473 86.2079C252.963 86.0913 252.442 86.018 251.924 85.9367L245.209 84.9737C244.531 84.8486 243.84 84.8121 243.153 84.8652C242.808 84.8933 242.472 84.9894 242.165 85.1477C241.858 85.306 241.586 85.5235 241.364 85.7875C241.164 86.0331 241.054 86.3394 241.053 86.6555C241.09 86.9736 241.194 87.2804 241.358 87.5561C241.423 87.6849 241.479 87.8181 241.525 87.9548C241.589 88.2616 241.669 88.5649 241.765 88.8635C241.794 88.9282 241.833 88.9884 241.879 89.0426C241.88 89.0579 241.88 89.0733 241.879 89.0887C241.806 89.463 242.043 89.8536 241.936 90.2144C241.844 90.5236 241.541 90.7108 241.35 90.9685C241.223 91.1513 241.152 91.3673 241.147 91.5896C241.143 91.812 241.204 92.0308 241.323 92.219C241.527 92.5336 241.898 92.7479 242.005 93.1087C242.144 93.5834 241.767 94.0418 241.432 94.408C240.815 95.0821 240.244 95.7972 239.725 96.5482C239.579 96.7329 239.484 96.9529 239.452 97.1857C239.422 97.6576 239.877 98.0727 239.798 98.5419C239.735 98.9109 239.373 99.136 239.059 99.3557C237.9 100.115 236.97 101.336 236.877 102.717C236.58 100.52 235.665 98.4513 234.237 96.7489C233.847 96.2824 233.419 95.8131 233.258 95.2218C233.198 94.9858 233.187 94.7335 233.105 94.5057C232.833 93.7868 231.965 93.4776 231.586 92.8157C231.314 92.3492 231.314 91.7497 230.975 91.3401C230.637 90.9305 230.105 90.8383 229.814 90.4422C229.668 90.174 229.544 89.8946 229.443 89.6068C229.32 89.3721 229.148 89.1666 228.938 89.0046C228.898 88.9726 228.856 88.9427 228.813 88.9151C228.858 88.8748 228.894 88.8254 228.919 88.7703C228.944 88.7152 228.957 88.6554 228.957 88.595C228.957 88.2776 228.641 88.0687 228.365 87.9114C228.011 87.7107 227.665 87.4937 227.326 87.2685C227.695 87.0977 228.015 86.8375 228.256 86.5117C228.559 86.0259 228.684 85.4511 228.611 84.8842C228.592 84.4267 228.421 83.9884 228.123 83.6391C227.951 83.4574 227.735 83.3272 227.555 83.1563C227.089 82.7033 226.931 82.0333 226.737 81.4148C226.481 80.6011 226.08 79.7466 225.333 79.3153C224.973 79.1064 224.553 79.0088 224.201 78.7891C223.849 78.5694 223.555 78.1543 223.677 77.7556C223.759 77.4843 224.013 77.2972 224.185 77.0666C224.39 76.7685 224.468 76.4019 224.404 76.0464C224.339 75.691 224.136 75.3753 223.838 75.1678C223.636 75.0403 223.388 74.9291 223.347 74.6958C223.189 74.655 223.046 74.5708 222.934 74.4528C222.822 74.3347 222.746 74.1877 222.715 74.0285C222.653 73.7095 222.653 73.3819 222.715 73.0629C222.785 72.5583 222.855 72.0556 222.925 71.5547C223.045 71.6044 223.174 71.63 223.304 71.63C223.434 71.63 223.563 71.6044 223.683 71.5547C223.919 71.9356 224.193 72.2919 224.501 72.618C225.331 73.5934 225.978 74.7099 226.41 75.9138C226.565 76.3478 226.724 76.8333 227.127 77.0639C227.266 77.1426 227.425 77.1832 227.561 77.2673C227.729 77.3839 227.873 77.5312 227.986 77.7013C228.314 78.1326 228.641 78.5612 228.965 78.9925L228.982 79.0576C228.991 79.0958 229.005 79.1324 229.025 79.1661C229.086 79.2337 229.17 79.2763 229.26 79.2855C230.264 79.516 231.39 79.7276 232.26 79.1824C233.045 78.6941 233.389 77.7285 234.055 77.0829C234.526 76.6245 235.195 76.2691 235.328 75.6235C235.169 75.5746 235.012 75.5176 234.859 75.4526C234.995 75.317 235.132 75.1597 235.317 74.9806C235.587 74.7183 235.83 74.4303 236.043 74.1208C236.273 73.7389 236.456 73.3309 236.588 72.9055C237.114 71.4154 237.641 69.9244 238.17 68.4325C238.421 67.7273 238.672 67.0166 238.988 66.3303C239.315 65.587 239.703 64.8736 240.06 64.144C240.982 62.2463 241.694 60.2544 242.182 58.2035C242.268 57.9236 242.297 57.6293 242.266 57.3382C242.19 56.8689 241.833 56.5 241.492 56.1663C241.149 55.7972 240.758 55.4752 240.33 55.2088C240.115 55.0758 239.875 54.9866 239.625 54.9466C239.375 54.9065 239.12 54.9164 238.874 54.9755C238.175 55.179 237.736 55.8896 237.575 56.6031C237.415 57.3165 237.475 58.0516 237.406 58.7731C237.308 59.8174 236.948 60.8265 236.861 61.8736C236.815 62.4785 236.861 63.0915 236.787 63.6964C236.653 64.488 236.376 65.249 235.969 65.9424C235.085 67.5961 233.887 69.0643 232.443 70.2662C232.276 70.4046 232.105 70.5375 231.941 70.6867C231.941 70.57 231.96 70.4507 231.976 70.334C231.858 70.3648 231.742 70.4056 231.63 70.4561C231.644 70.3191 231.63 70.1808 231.589 70.0492C231.371 69.4009 230.4 69.2354 230.225 68.5763C230.196 68.4133 230.181 68.2482 230.179 68.0826C230.122 67.5048 229.726 67.0166 229.59 66.4551C229.465 65.937 229.56 65.37 229.317 64.8899C229.11 64.5897 228.867 64.3163 228.592 64.0761C228.264 63.7039 228.028 63.2609 227.902 62.7823C227.866 62.6493 227.834 62.511 227.795 62.3781C227.837 62.0771 227.803 61.7706 227.697 61.4857C227.449 60.8726 226.808 60.4793 226.576 59.8581C226.396 59.3753 226.475 58.7731 226.135 58.3988C225.953 58.2199 225.732 58.0869 225.488 58.0109C224.24 57.5274 222.93 57.2197 221.596 57.0967C220.849 57.0289 220.025 56.9909 219.491 56.4674C218.866 55.8598 218.836 54.7666 218.105 54.2974C217.462 53.8824 216.551 54.1889 216.052 54.7721C215.977 54.8579 215.908 54.9485 215.845 55.0433C215.753 54.6798 215.734 54.3021 215.787 53.9312C215.787 53.8389 215.806 53.744 215.815 53.6599C217.046 53.2597 218.094 52.4366 218.771 51.338C218.771 51.338 218.771 51.338 218.771 51.3542L218.804 51.4383C218.883 51.6363 219.008 51.8262 219.194 51.8479C219.317 51.8465 219.436 51.8034 219.532 51.7259C219.696 51.6121 219.848 51.4812 219.985 51.3353C220.054 51.2593 220.119 51.1806 220.181 51.0993C220.307 50.9299 220.414 50.7481 220.503 50.5568C220.638 50.2689 220.73 49.9627 220.775 49.648C220.825 49.3334 220.83 49.0106 220.885 48.6959C220.936 48.4524 221.002 48.2123 221.084 47.9771C221.111 47.8984 221.138 47.8198 221.163 47.7411C221.187 47.6624 221.223 47.5567 221.25 47.4699C221.421 46.912 221.513 46.3332 221.523 45.7501C221.523 45.6524 221.523 45.5548 221.523 45.4571C221.513 45.0766 221.427 44.7019 221.269 44.3549C221.112 44.0079 220.887 43.6956 220.606 43.4363C220.137 43.0538 219.515 42.8938 219.172 42.3757C218.948 42.0285 218.899 41.5809 218.768 41.174C218.627 40.6871 218.351 40.2493 217.972 39.9103C217.593 39.5714 217.126 39.3448 216.625 39.2562C216.02 39.1903 215.414 39.3562 214.928 39.7201L214.89 39.7499C214.62 39.9553 214.39 40.2092 214.214 40.4986C213.853 40.3999 213.523 40.2134 213.254 39.9561C212.981 39.7038 212.771 39.3864 212.495 39.1423C212.238 38.9078 211.922 38.7464 211.581 38.6748C211.239 38.6032 210.884 38.6242 210.554 38.7354C210.213 38.8711 209.91 39.0852 209.668 39.3601C209.427 39.635 209.255 39.9629 209.165 40.3168C209.015 40.8756 209.043 41.5185 208.729 41.9851C208.486 42.3485 208.088 42.5276 207.81 42.8585C207.637 43.0681 207.519 43.3169 207.466 43.5828C207.433 43.7315 207.418 43.8835 207.42 44.0358C207.42 44.1036 207.42 44.1714 207.436 44.2365C207.436 44.2365 207.436 44.2582 207.436 44.269C207.446 44.3434 207.462 44.4168 207.483 44.4888C207.56 44.7637 207.699 45.0178 207.889 45.232C208.069 45.4371 208.294 45.5986 208.546 45.704C208.65 45.744 208.755 45.7775 208.863 45.8043L209.187 45.8776L209.302 45.9047C208.91 46.6361 208.693 47.4472 208.666 48.2754C208.64 49.1037 208.805 49.9269 209.149 50.6815C209.149 50.7575 209.13 50.8334 209.122 50.9094C209.077 51.9775 209.125 53.0474 209.264 54.1075C209.302 54.5279 209.324 54.9918 209.065 55.3254C208.947 55.4567 208.814 55.5741 208.669 55.6754C208.816 55.4855 208.966 55.2983 209.119 55.1111C208.735 54.726 208.126 54.6771 207.581 54.7151C206.525 54.7935 205.5 55.1049 204.581 55.6265C203.97 55.9764 203.343 56.4403 202.645 56.3589C202.233 56.3128 201.826 56.0877 201.425 56.1962C201.2 56.2879 200.99 56.4122 200.801 56.5651C200.652 56.6715 200.472 56.7267 200.288 56.7224C199.86 56.1989 199.197 55.8435 198.685 55.4177C198.101 54.901 197.567 54.3316 197.089 53.7169C196.205 52.6563 195.325 51.5929 194.457 50.5215C193.726 49.6209 192.976 48.6471 192.848 47.4943C192.835 47.3799 192.829 47.2649 192.829 47.1498C192.847 46.602 192.916 46.0571 193.036 45.5222C193.069 45.3931 193.069 45.258 193.036 45.1289C192.955 44.8577 192.641 44.7573 192.371 44.6976C192.406 44.4888 192.431 44.2745 192.445 44.071C192.597 41.7382 192.431 39.3674 192.927 37.0835C193.115 36.2046 193.424 35.3149 194.059 34.6774C195.055 33.6765 196.721 33.4351 197.485 32.2497C198.123 31.2623 197.869 29.8653 197.067 28.9946C196.265 28.1239 195.03 27.7685 193.855 27.8119C193.525 27.8007 193.199 27.8876 192.919 28.0615C192.657 28.2926 192.462 28.5883 192.352 28.9187L191.182 31.7479C190.843 32.4844 190.556 33.2441 190.325 34.021C189.998 35.2091 189.925 36.4623 189.665 37.6612C189.665 38.5835 189.068 39.7336 188.741 40.5827C188.375 41.5375 187.98 42.4815 187.65 43.4553C187.568 43.6994 187.282 44.4237 187.105 45.0828C187.038 45.1216 186.975 45.168 186.919 45.2211C186.777 45.4027 186.647 45.5939 186.532 45.7935C186.284 46.119 185.88 46.2926 185.607 46.6073C185.335 46.9219 185.277 47.4997 185.656 47.657C185.733 47.6828 185.813 47.7 185.894 47.7086C185.943 47.7127 185.993 47.7209 186.041 47.733C186.45 47.8469 186.611 48.3596 186.551 48.7827C186.491 49.2059 186.278 49.5965 186.243 50.0197C186.169 50.7683 186.611 51.4655 187.036 52.0948C187.477 52.777 187.963 53.4286 188.493 54.0451C188.877 54.4737 189.311 54.8589 189.698 55.2712C191.174 56.7794 192.346 58.5425 193.672 60.1809C194.149 60.7993 194.691 61.3649 195.289 61.8681C195.68 62.1721 196.089 62.452 196.514 62.7063L198.794 64.144C199.052 64.3324 199.345 64.4697 199.655 64.5481C199.757 64.5617 199.86 64.5617 199.961 64.5481C199.975 64.616 199.985 64.6811 200.002 64.7489C200.179 65.4596 200.569 66.1051 200.613 66.8294C200.656 67.5536 200.591 68.2942 200.643 69.0266C200.692 69.702 200.842 70.3829 200.88 71.0474C200.956 72.3278 200.64 73.5918 200.335 74.845C199.874 76.6787 199.595 78.5504 198.698 80.2132C198.447 80.6716 198.153 81.1382 198.153 81.6617C198.153 81.7241 198.153 81.7892 198.169 81.8516L197.76 82.0821C197.64 82.1499 197.52 82.2178 197.411 82.2883C196.893 82.6246 196.339 82.9963 196.126 83.5767C195.955 84.046 196.034 84.5831 195.826 85.0388C195.817 85.0593 195.806 85.0792 195.794 85.0985C195.575 85.5216 195.142 85.8363 195.044 86.3002C194.97 86.6555 195.112 87.0326 195.044 87.3852C195.044 87.3852 195.044 87.3852 195.044 87.3987C194.982 87.5759 194.932 87.7572 194.896 87.9413C194.893 88.0014 194.899 88.0617 194.913 88.1203C194.965 88.3258 195.079 88.5105 195.24 88.6492C195.338 88.743 195.445 88.8275 195.559 88.9015C195.675 88.9775 195.795 89.048 195.919 89.1131L195.99 89.1511C196.094 89.2053 196.197 89.2568 196.304 89.3057L196.375 89.3355C196.497 89.3898 196.623 89.4386 196.748 89.482L196.835 89.5091C196.934 89.5417 197.035 89.5715 197.135 89.5959L197.204 89.6176L197.266 89.6312L197.539 89.6881L197.64 89.7071C197.76 89.727 197.883 89.7433 198.008 89.756H198.117C198.21 89.756 198.3 89.7695 198.39 89.7722H198.518C198.614 89.7722 198.706 89.7722 198.791 89.7722H198.889C199.017 89.7722 199.145 89.7532 199.274 89.737H199.315C199.429 89.7207 199.544 89.7017 199.658 89.6773L199.745 89.6583C199.852 89.6339 199.958 89.6095 200.065 89.5769L200.122 89.5607C200.25 89.5227 200.378 89.482 200.504 89.4332C200.938 89.2557 201.359 89.0481 201.764 88.812C202.036 88.6628 202.309 88.5109 202.582 88.3726C202.784 88.2712 202.992 88.1806 203.204 88.1013C203.719 87.8821 204.281 87.7891 204.84 87.83C205.116 87.8675 205.389 87.9227 205.658 87.9955C205.658 88.0253 205.658 88.0552 205.658 88.085C205.88 89.3871 206.099 90.6891 206.315 91.9911C206.673 91.7355 207.05 91.5095 207.445 91.3157C207.371 91.5123 207.322 91.7173 207.3 91.926C207.284 92.0874 207.284 92.2501 207.3 92.4116C207.325 92.6693 207.379 92.9541 207.224 93.1575C207.128 93.2823 206.951 93.3528 206.899 93.4939C206.861 93.6381 206.852 93.7883 206.872 93.936C206.861 94.1046 206.789 94.2636 206.67 94.3841C206.551 94.5046 206.392 94.5785 206.223 94.5925C206.301 94.8108 206.303 95.0489 206.228 95.2684C206.153 95.4879 206.006 95.676 205.811 95.8023C205.697 95.8568 205.59 95.9262 205.495 96.0084C205.401 96.1283 205.339 96.2688 205.312 96.418C204.951 97.7613 204.21 98.9732 203.176 99.9091C202.789 100.212 202.435 100.556 202.121 100.934C201.927 101.228 201.767 101.541 201.644 101.87C200.916 103.639 200.178 105.408 199.429 107.179C199.015 108.169 198.611 109.175 198.48 110.241C198.153 113.165 195.535 115.645 196.025 118.547C196.125 119.272 196.419 119.957 196.876 120.53C197.422 121.184 198.24 121.558 199.058 121.862C201.161 122.676 203.378 123.12 205.587 123.568L209.056 124.276C209.737 124.432 210.428 124.54 211.124 124.602C211.961 124.658 212.82 124.58 213.635 124.791C214.14 124.922 214.623 125.163 215.144 125.19C215.591 125.215 216.142 125.12 216.406 125.483C216.671 125.847 216.466 126.327 216.717 126.649C217.121 127.162 218.105 126.649 218.545 127.132C218.665 127.318 218.756 127.52 218.817 127.732C218.884 127.863 218.977 127.979 219.09 128.074C219.117 128.227 219.128 128.382 219.123 128.537C219.066 129.167 218.934 129.788 218.73 130.387C218.403 131.489 218.076 132.591 217.751 133.694C217.627 134.084 217.535 134.483 217.478 134.888C217.458 135.084 217.458 135.282 217.478 135.479C217.535 136.078 217.882 136.697 218.457 136.892C218.904 137.009 219.378 136.951 219.783 136.729C220.173 136.527 220.539 136.281 220.874 135.997C221.478 135.543 222.008 134.999 222.447 134.386C223.811 132.357 223.369 129.612 224.326 127.368C224.962 125.871 226.2 124.656 226.612 123.077C226.708 122.777 226.72 122.456 226.645 122.149C226.473 121.607 225.892 121.298 225.349 121.102H225.325C224.879 120.944 224.423 120.815 223.961 120.714C223.846 120.69 223.729 120.671 223.612 120.652C223.352 120.442 223.146 120.174 223.009 119.871C222.988 119.709 222.945 119.552 222.881 119.402C222.838 119.337 222.779 119.283 222.711 119.246C222.643 119.208 222.566 119.187 222.488 119.185C222.215 119.157 221.85 119.255 221.553 119.233C220.945 119.19 220.541 118.596 219.995 118.322C219.45 118.048 218.858 118.116 218.277 118.156C218.07 118.185 217.858 118.172 217.655 118.118C217.413 118.008 217.192 117.856 217.001 117.671C216.665 117.411 216.273 117.233 215.856 117.149C215.439 117.066 215.009 117.08 214.598 117.191C214.337 117.296 214.061 117.358 213.78 117.375C213.248 117.345 212.872 116.873 212.479 116.515C211.405 115.536 209.875 115.278 208.571 114.636C208.371 114.562 208.205 114.419 208.102 114.234C207.952 113.865 208.29 113.496 208.595 113.244L210.837 111.391C213.292 109.362 216.36 107.835 217.5 104.859C217.619 104.461 217.803 104.084 218.045 103.745C218.134 103.641 218.236 103.55 218.348 103.473C218.844 103.154 219.445 103.037 220.025 103.148C220.733 103.305 221.403 103.596 222 104.005C222.976 104.593 223.926 105.226 224.85 105.904C225.765 106.554 226.635 107.265 227.455 108.03C228.886 109.387 230.078 110.995 231.412 112.457C232.745 113.919 234.27 115.284 236.122 115.984C237.974 116.684 240.213 116.654 241.803 115.479C243.638 114.123 244.227 111.698 244.691 109.474C245.714 108.492 246.022 106.997 246.521 105.676C246.835 104.838 247.236 104.048 247.574 103.213C247.977 102.231 248.294 101.217 248.61 100.205C248.969 99.1887 249.212 98.136 249.335 97.0663C249.466 95.3764 249.011 93.578 249.488 91.9911C250.118 91.8528 250.691 91.5001 251.31 91.294C252.232 90.9929 253.219 91.0417 254.195 91.0471H254.258C254.595 91.0827 254.933 91.0033 255.218 90.822C255.545 90.5507 255.597 90.0869 255.614 89.6664C255.652 88.6275 255.586 87.4611 254.804 86.7884ZM215.288 40.5176C215.063 40.5731 214.829 40.5896 214.598 40.5664L215.288 40.5176Z" fill="url(#paint0_linear)"/>
<path d="M216.363 57.6772C216.032 57.9562 215.645 58.1607 215.228 58.2767L213.295 58.9657C212.245 59.34 211.148 59.717 210.041 59.5814C209.422 59.5055 206.768 59.1176 206.367 58.6374C205.756 57.8942 207.897 56.801 208.628 56.1744C208.794 56.056 208.947 55.9215 209.086 55.773C209.359 55.442 209.324 54.9782 209.285 54.5605C209.147 53.5022 209.099 52.4341 209.144 51.3678C209.165 51.1136 209.201 50.8609 209.253 50.611C209.525 49.3632 210.693 49.8189 211.615 50.1498C212.724 50.5084 213.797 50.9706 214.819 51.5305C215.13 51.6901 215.401 51.9184 215.61 52.1978C216.014 52.8054 215.853 53.6029 215.787 54.3679C215.73 54.9619 215.733 55.5316 216.106 55.9629C216.294 56.1278 216.467 56.3093 216.622 56.5054C216.709 56.7028 216.731 56.9227 216.684 57.1333C216.638 57.344 216.525 57.5344 216.363 57.6772Z" fill="#BE6F72"/>
<path d="M189.652 38.1277C189.925 36.926 189.985 35.6864 190.312 34.4956C190.543 33.7213 190.829 32.9644 191.168 32.2306L192.371 29.4394C192.481 29.1098 192.677 28.815 192.938 28.5849C193.219 28.4122 193.544 28.3254 193.874 28.3354C195.049 28.292 196.285 28.6555 197.086 29.5153C197.888 30.3752 198.142 31.7668 197.504 32.7514C196.74 33.9368 195.074 34.1755 194.078 35.1737C193.443 35.8112 193.135 36.6982 192.946 37.5744C192.45 39.8529 192.616 42.2155 192.464 44.5429C192.415 45.2672 192.273 46.0945 191.645 46.4688C191.266 46.6536 190.845 46.735 190.424 46.7048L188.635 46.7347C188.335 46.7347 187.246 46.9218 187.047 46.6967C186.698 46.3034 187.495 44.3449 187.639 43.9082C187.961 42.9398 188.356 41.9958 188.73 41.0437C189.055 40.1947 189.652 39.0473 189.652 38.1277Z" fill="#BE6F72"/>
<path d="M226.593 123.346C226.181 124.913 224.943 126.134 224.307 127.629C223.35 129.867 223.781 132.604 222.428 134.627C221.989 135.242 221.459 135.786 220.855 136.241C220.52 136.524 220.154 136.769 219.764 136.971C219.359 137.193 218.885 137.251 218.438 137.133C217.863 136.938 217.516 136.32 217.459 135.723C217.439 135.527 217.439 135.33 217.459 135.134C217.516 134.73 217.608 134.332 217.732 133.944C218.059 132.846 218.385 131.746 218.711 130.645C218.915 130.048 219.046 129.429 219.104 128.8C219.139 128.117 218.703 127.227 218.888 126.59C218.973 126.302 219.289 126.047 219.434 125.806C219.639 125.458 219.797 125.085 219.903 124.696C220.126 123.94 220.279 123.131 220.748 122.494C221.054 122.116 221.412 121.782 221.812 121.504C222.107 121.247 222.452 121.054 222.826 120.937C223.189 120.873 223.562 120.891 223.917 120.988C224.38 121.087 224.835 121.215 225.281 121.374H225.305C225.851 121.569 226.429 121.87 226.601 122.418C226.684 122.722 226.682 123.043 226.593 123.346Z" fill="#3F3D56"/>
<path d="M255.611 89.9974C255.595 90.4178 255.543 90.8871 255.215 91.1502C254.93 91.3316 254.592 91.411 254.255 91.3754H254.182C253.208 91.3754 252.218 91.3211 251.296 91.6222C250.595 91.8528 249.952 92.2759 249.221 92.36C248.215 92.474 247.268 91.926 246.376 91.4486C245.537 90.9987 244.675 90.5913 243.794 90.2279C243.215 89.992 242.035 89.84 241.756 89.2107C241.661 88.913 241.581 88.6106 241.516 88.3047C241.471 88.168 241.415 88.0348 241.35 87.906C241.186 87.6311 241.082 87.3253 241.045 87.0081C241.046 86.692 241.155 86.3857 241.355 86.1401C241.578 85.8782 241.85 85.6625 242.157 85.5057C242.463 85.3488 242.798 85.2537 243.142 85.226C243.829 85.1729 244.52 85.2093 245.198 85.3345L251.913 86.2947C252.431 86.368 252.952 86.4412 253.462 86.566C253.946 86.6495 254.403 86.8487 254.793 87.1465C255.586 87.8083 255.652 88.972 255.611 89.9974Z" fill="#3F3D56"/>
<path d="M249.709 91.7334C248.891 93.4505 249.48 95.4822 249.333 97.3809C249.209 98.448 248.966 99.498 248.607 100.511C248.291 101.52 247.975 102.532 247.571 103.511C247.233 104.325 246.832 105.139 246.518 105.969C246.019 107.293 245.7 108.782 244.688 109.767C244.225 111.985 243.635 114.41 241.8 115.756C240.205 116.928 237.982 116.968 236.119 116.26C234.256 115.552 232.743 114.196 231.409 112.734C230.075 111.272 228.884 109.68 227.452 108.318C226.631 107.552 225.759 106.842 224.842 106.194C223.918 105.527 222.968 104.899 221.992 104.312C221.394 103.905 220.724 103.615 220.017 103.457C219.437 103.346 218.836 103.463 218.34 103.783C218.227 103.859 218.125 103.95 218.037 104.054C217.794 104.392 217.61 104.768 217.492 105.166C216.346 108.134 213.273 109.658 210.818 111.682L208.576 113.529C208.271 113.781 207.933 114.15 208.083 114.516C208.186 114.701 208.352 114.844 208.552 114.918C209.855 115.558 211.385 115.816 212.46 116.792C212.853 117.15 213.229 117.622 213.761 117.649C214.042 117.633 214.318 117.571 214.579 117.467C214.989 117.357 215.42 117.343 215.837 117.426C216.254 117.508 216.646 117.686 216.982 117.945C217.173 118.13 217.394 118.281 217.636 118.392C217.839 118.446 218.05 118.459 218.258 118.43C218.839 118.39 219.455 118.338 219.976 118.596C220.497 118.854 220.925 119.461 221.534 119.505C221.831 119.526 222.185 119.429 222.469 119.456C222.547 119.458 222.624 119.479 222.692 119.517C222.76 119.555 222.818 119.608 222.862 119.673C222.925 119.822 222.969 119.979 222.99 120.139C223.102 120.522 223.478 120.755 223.724 121.07C224.1 121.553 224.155 122.209 224.116 122.819C223.993 124.728 223.138 126.516 221.727 127.816C221.327 128.223 220.816 128.506 220.257 128.63C219.977 128.688 219.686 128.657 219.425 128.542C219.164 128.426 218.945 128.232 218.801 127.987C218.74 127.776 218.648 127.574 218.528 127.39C218.089 126.91 217.105 127.42 216.701 126.907C216.45 126.587 216.63 126.074 216.39 125.743C216.15 125.413 215.572 125.472 215.127 125.453C214.606 125.426 214.124 125.182 213.619 125.054C212.801 124.843 211.945 124.922 211.107 124.865C210.411 124.804 209.721 124.695 209.04 124.539L205.571 123.834C203.362 123.386 201.145 122.933 199.042 122.133C198.237 121.829 197.427 121.455 196.86 120.804C196.403 120.232 196.109 119.548 196.009 118.824C195.515 115.929 198.134 113.456 198.464 110.54C198.581 109.476 199.009 108.473 199.413 107.485C200.153 105.72 200.891 103.954 201.627 102.188C201.746 101.859 201.902 101.544 202.091 101.249C202.405 100.871 202.759 100.529 203.146 100.226C204.18 99.2936 204.921 98.0844 205.282 96.7435C205.309 96.5943 205.371 96.4538 205.465 96.3339C205.561 96.2534 205.667 96.1851 205.781 96.1305C205.976 96.0043 206.122 95.8167 206.197 95.5978C206.272 95.3789 206.27 95.1414 206.193 94.9234C206.362 94.9094 206.521 94.8355 206.64 94.715C206.759 94.5946 206.831 94.4355 206.842 94.2669C206.822 94.1201 206.831 93.9708 206.869 93.8275C206.935 93.6864 207.098 93.6159 207.194 93.4911C207.349 93.2877 207.295 93.0029 207.27 92.7479C207.254 92.5865 207.254 92.4238 207.27 92.2623C207.33 91.688 207.588 91.152 208.001 90.746C208.653 90.1086 209.58 90.274 210.48 90.1221C211.378 89.9294 212.255 89.6505 213.098 89.2894C215.465 88.362 217.956 87.7888 220.492 87.5886C223.04 87.3893 225.599 87.7946 227.959 88.7713C228.302 88.9096 228.626 89.092 228.922 89.3138C229.132 89.4748 229.304 89.6794 229.426 89.9133C229.527 90.2004 229.651 90.4789 229.797 90.746C230.089 91.1421 230.64 91.2696 230.959 91.6439C231.278 92.0182 231.305 92.6502 231.57 93.1141C231.949 93.776 232.827 94.0825 233.089 94.8013C233.171 95.0292 233.182 95.2787 233.242 95.5147C233.389 96.106 233.831 96.5726 234.221 97.0392C235.651 98.74 236.566 100.809 236.861 103.007C236.948 101.632 237.878 100.414 239.043 99.6541C239.356 99.4506 239.719 99.2255 239.782 98.8566C239.861 98.39 239.405 97.975 239.435 97.5003C239.469 97.2685 239.563 97.0496 239.708 96.8656C240.228 96.1163 240.798 95.403 241.415 94.7308C241.751 94.3646 242.127 93.917 241.988 93.4342C241.882 93.0734 241.511 92.8618 241.306 92.5472C241.187 92.3596 241.126 92.1411 241.131 91.9192C241.136 91.6972 241.206 91.4816 241.334 91.2994C241.525 91.0417 241.827 90.8545 241.92 90.548C242.026 90.1872 241.789 89.7966 241.863 89.425C241.962 89.1274 242.16 88.8721 242.425 88.7008C242.786 88.3731 243.198 88.1039 243.644 87.9033C244.364 87.632 245.165 87.7324 245.929 87.8382C247.205 88.0145 248.637 88.2857 249.357 89.3491C249.818 90.0136 250.053 91.0227 249.709 91.7334Z" fill="#65617D"/>
<path opacity="0.1" d="M255.611 89.9974C255.595 90.4178 255.543 90.8871 255.215 91.1502C254.93 91.3315 254.592 91.4109 254.255 91.3753H254.182C254.294 90.8111 254.984 90.4883 255.104 89.916C255.124 89.7402 255.108 89.562 255.057 89.3926C255.005 89.2233 254.919 89.0662 254.804 88.9313C254.22 88.1474 253.282 87.7134 252.349 87.396C249.714 86.4975 246.891 86.2873 244.151 86.7857C243.406 86.9064 242.681 87.1282 241.996 87.4448C241.77 87.586 241.551 87.74 241.342 87.906C241.178 87.6311 241.074 87.3253 241.036 87.0081C241.037 86.692 241.147 86.3857 241.347 86.1401C241.57 85.8781 241.842 85.6625 242.149 85.5056C242.455 85.3488 242.79 85.2537 243.134 85.226C243.821 85.1729 244.512 85.2093 245.19 85.3345L251.905 86.2947C252.423 86.368 252.944 86.4412 253.454 86.566C253.938 86.6495 254.395 86.8487 254.785 87.1465C255.586 87.8083 255.652 88.972 255.611 89.9974Z" fill="black"/>
<path opacity="0.1" d="M226.593 123.346C226.181 124.913 224.943 126.134 224.307 127.629C223.35 129.867 223.781 132.603 222.428 134.627C221.989 135.242 221.459 135.786 220.855 136.241C220.52 136.524 220.154 136.769 219.764 136.971C219.359 137.193 218.885 137.251 218.438 137.133C217.863 136.938 217.516 136.32 217.459 135.723C217.439 135.527 217.439 135.33 217.459 135.134L217.475 135.178C217.713 135.747 218.1 136.344 218.711 136.444C218.94 136.461 219.17 136.43 219.387 136.354C219.604 136.278 219.803 136.158 219.971 136.002C220.871 135.284 221.395 134.212 221.894 133.179C222.284 132.433 222.593 131.648 222.815 130.838C222.925 130.376 222.976 129.904 223.088 129.443C223.606 127.203 225.371 125.375 225.761 123.104C225.793 122.948 225.8 122.788 225.783 122.629C225.731 122.423 225.652 122.224 225.548 122.038C225.453 121.828 225.384 121.608 225.341 121.382C225.886 121.577 226.464 121.878 226.636 122.426C226.707 122.731 226.692 123.049 226.593 123.346Z" fill="black"/>
<path opacity="0.1" d="M222.475 119.456C222.222 120.112 221.797 120.689 221.245 121.127C220.468 121.715 219.559 122.106 218.596 122.266C218.148 122.38 217.678 122.374 217.233 122.25C216.627 122.041 216.191 121.477 215.572 121.314C215.13 121.195 214.655 121.3 214.208 121.235C213.404 121.124 212.779 120.514 212.13 120.025C210.142 118.539 207.532 118.059 205.544 116.572C205.455 116.518 205.382 116.443 205.331 116.353C205.293 116.255 205.279 116.15 205.29 116.046C205.297 115.144 205.501 114.255 205.887 113.439C206.204 112.87 206.58 112.336 207.011 111.847C208.792 109.677 210.581 107.491 212.714 105.66C213.608 104.892 214.585 104.176 215.714 103.829C216.341 103.636 217.579 103.454 218.343 103.78C218.23 103.856 218.128 103.948 218.04 104.051C217.797 104.389 217.613 104.765 217.495 105.163C216.346 108.134 213.273 109.658 210.818 111.682L208.576 113.529C208.271 113.781 207.933 114.15 208.083 114.516C208.186 114.701 208.352 114.844 208.552 114.918C209.855 115.558 211.385 115.815 212.46 116.792C212.853 117.15 213.229 117.622 213.761 117.649C214.042 117.633 214.318 117.571 214.579 117.467C214.989 117.357 215.42 117.343 215.837 117.426C216.254 117.508 216.646 117.686 216.982 117.945C217.173 118.13 217.394 118.281 217.636 118.392C217.839 118.446 218.05 118.459 218.258 118.43C218.839 118.39 219.455 118.338 219.976 118.596C220.497 118.854 220.925 119.461 221.534 119.505C221.836 119.526 222.191 119.423 222.475 119.456Z" fill="black"/>
<path d="M197.392 82.6409C196.874 82.9719 196.323 83.3462 196.11 83.9213C195.935 84.3905 196.017 84.9276 195.807 85.3833C195.597 85.839 195.125 86.1564 195.022 86.6447C194.948 87 195.093 87.3743 195.022 87.7297C194.96 87.9145 194.91 88.1029 194.872 88.2939C194.845 88.6981 195.194 89.0263 195.535 89.2514C196.26 89.721 197.087 90.0146 197.947 90.1089C198.808 90.2031 199.679 90.0952 200.49 89.7939C201.218 89.5227 201.875 89.0805 202.574 88.7333C203.254 88.3434 204.033 88.1551 204.818 88.1908C205.268 88.2396 205.699 88.4024 206.149 88.4621C206.371 88.5058 206.601 88.495 206.818 88.4307C207.035 88.3665 207.233 88.2506 207.395 88.0932C207.534 87.9023 207.628 87.6825 207.668 87.4503C208.047 85.9611 207.875 84.3824 207.515 82.8851C207.155 81.3877 206.61 79.9474 206.225 78.4582C205.953 77.3542 205.743 76.223 205.287 75.1787C204.832 74.1344 204.065 73.1633 202.994 72.7645C202.909 72.7232 202.813 72.7108 202.721 72.7292C202.652 72.7578 202.591 72.8025 202.544 72.8594C201.696 73.7531 201.057 74.822 200.673 75.9897C200.245 77.2891 200.127 78.667 199.735 79.9718C199.565 80.5143 199.347 81.2412 198.916 81.6563C198.485 82.0713 197.88 82.329 197.392 82.6409Z" fill="#3F3D56"/>
<path opacity="0.1" d="M207.676 87.4422C207.631 87.6751 207.533 87.8949 207.39 88.0851C207.228 88.243 207.03 88.359 206.813 88.4229C206.595 88.4867 206.366 88.4965 206.144 88.4513C205.696 88.397 205.265 88.2315 204.815 88.18C204.03 88.1439 203.252 88.3321 202.571 88.7225C201.873 89.0697 201.207 89.501 200.484 89.7804C199.427 90.1791 198.272 90.2445 197.176 89.9676C196.594 89.8221 196.041 89.58 195.54 89.2515C195.196 89.029 194.85 88.7089 194.877 88.2939C194.915 88.1038 194.965 87.9163 195.027 87.7324C195.098 87.3771 194.956 87.0028 195.027 86.6474C195.131 86.1591 195.605 85.8336 195.813 85.3833C196.02 84.9331 195.941 84.3933 196.113 83.924C196.325 83.3462 196.879 82.9746 197.397 82.6409C197.915 82.3073 198.532 82.0523 198.946 81.6481C199 81.5852 199.048 81.5181 199.091 81.4474C199.39 80.9889 199.609 80.4836 199.74 79.9528C200.141 78.6453 200.25 77.2701 200.675 75.968C201.061 74.8012 201.701 73.7334 202.549 72.8405C202.594 72.7822 202.655 72.7373 202.724 72.7103C202.816 72.6916 202.911 72.703 202.996 72.7428C204.065 73.1443 204.832 74.1154 205.29 75.1597C205.748 76.204 205.942 77.3297 206.228 78.4365C206.61 79.9257 207.158 81.3715 207.518 82.8661C207.878 84.3607 208.055 85.9503 207.676 87.4422Z" fill="black"/>
<path opacity="0.1" d="M215.787 54.3597C214.505 54.765 213.117 54.6845 211.891 54.1337C210.664 53.5829 209.686 52.6007 209.144 51.3759C209.165 51.1217 209.201 50.869 209.253 50.6191C209.525 49.3713 210.693 49.827 211.615 50.158C212.724 50.5165 213.797 50.9788 214.819 51.5386C215.13 51.6983 215.401 51.9265 215.61 52.2059C216.014 52.8054 215.853 53.6029 215.787 54.3597Z" fill="black"/>
<path d="M214.14 54.3435C217.152 54.3435 219.594 51.9146 219.594 48.9183C219.594 45.9221 217.152 43.4932 214.14 43.4932C211.127 43.4932 208.685 45.9221 208.685 48.9183C208.685 51.9146 211.127 54.3435 214.14 54.3435Z" fill="#BE6F72"/>
<path opacity="0.1" d="M228.941 89.4602C228.941 89.9105 228.327 90.0543 227.872 90.0299C226.235 89.9349 224.634 89.4873 223.014 89.623C220.966 89.8074 219.085 90.9331 217.031 91.0362C216.24 91.0769 215.435 90.9603 214.655 91.104C213.646 91.2912 212.746 91.9015 211.718 91.9883C210.826 92.0643 209.945 91.7306 209.054 91.7659C208.43 91.8029 207.822 91.9751 207.273 92.2704C207.332 91.696 207.591 91.1601 208.004 90.7541C208.655 90.1167 209.583 90.2821 210.483 90.1302C211.38 89.9375 212.257 89.6586 213.101 89.2975C215.467 88.3701 217.959 87.7969 220.494 87.5967C223.041 87.3952 225.599 87.7978 227.959 88.7712C228.302 88.9095 228.626 89.0919 228.922 89.3137C228.937 89.3611 228.943 89.4107 228.941 89.4602Z" fill="black"/>
<path d="M211.617 58.8246L209.408 58.0108L208.475 57.669C208.095 57.5106 207.695 57.4047 207.286 57.3544C206.217 57.273 205.211 57.981 204.641 58.8843C204.071 59.7875 203.855 60.8644 203.673 61.9142C203.422 63.35 203.209 64.7913 203.035 66.238C202.847 67.5444 202.751 68.8623 202.748 70.1821C202.811 73.5402 203.525 76.8522 204.311 80.1209C204.696 81.5701 204.986 83.0425 205.181 84.5288C205.246 85.1418 205.276 85.7576 205.342 86.3733C205.413 87.065 205.527 87.7486 205.642 88.4349L206.299 92.3328C207.117 91.7551 208.047 91.2478 209.054 91.218C209.945 91.1854 210.829 91.5163 211.718 91.4404C212.741 91.3563 213.646 90.746 214.655 90.5588C215.435 90.415 216.24 90.529 217.034 90.491C219.085 90.3879 220.969 89.2595 223.015 89.0778C224.637 88.9313 226.249 89.387 227.875 89.4819C228.327 89.509 228.941 89.3653 228.941 88.9123C228.941 88.5976 228.625 88.3888 228.349 88.2314C227.051 87.4539 225.815 86.5769 224.654 85.6084C223.579 84.7621 222.488 83.894 221.749 82.7493C219.968 79.9961 220.579 76.2718 219.06 73.3666C217.825 71.0067 219.06 67.9144 219.06 65.2533C219.06 63.9269 219.06 62.5842 218.746 61.2957C218.55 60.5751 218.306 59.8682 218.015 59.1799L216.955 56.508C216.933 56.43 216.889 56.3595 216.829 56.3046C216.758 56.2557 216.673 56.2301 216.586 56.2314C215.949 56.1934 215.321 56.3936 214.825 56.7929C214.325 57.197 214.006 57.7775 213.515 58.198C212.978 58.6618 212.285 59.0687 211.617 58.8246Z" fill="#E3E8F4"/>
<path d="M215.182 57.2838C215.356 56.5406 215.544 55.7675 216.044 55.187C216.543 54.6065 217.454 54.3 218.097 54.7151C218.828 55.187 218.858 56.2775 219.483 56.8851C220.028 57.4059 220.846 57.4466 221.588 57.5144C222.922 57.6352 224.232 57.942 225.48 58.4258C225.723 58.5009 225.945 58.633 226.126 58.811C226.467 59.1962 226.399 59.7875 226.568 60.2677C226.8 60.8861 227.441 61.2794 227.689 61.8952C227.962 62.5788 227.689 63.3437 227.46 64.0463C227.048 65.3076 226.789 66.6178 226.388 67.8845C225.987 69.1513 225.417 70.3991 224.479 71.3539C224.065 71.7771 223.448 72.1677 222.903 71.9154L222.693 73.4209C222.631 73.739 222.631 74.0657 222.693 74.3838C222.724 74.543 222.801 74.69 222.912 74.8081C223.024 74.9261 223.168 75.0103 223.325 75.0511C223.366 75.2844 223.614 75.3956 223.816 75.5231C223.965 75.6244 224.093 75.7542 224.191 75.9048C224.289 76.0554 224.356 76.2239 224.388 76.4005C224.421 76.5772 224.417 76.7584 224.378 76.9337C224.34 77.109 224.266 77.275 224.163 77.4219C223.991 77.6525 223.737 77.8342 223.655 78.1082C223.533 78.5042 223.824 78.9219 224.179 79.1389C224.534 79.356 224.951 79.4563 225.311 79.6652C226.058 80.0938 226.459 80.9374 226.715 81.7566C226.906 82.375 227.064 83.045 227.534 83.4953C227.714 83.6662 227.929 83.7964 228.101 83.9754C228.398 84.3249 228.57 84.763 228.589 85.2205C228.664 85.7875 228.538 86.3627 228.234 86.848C227.689 87.6238 226.672 87.8544 225.78 88.2043C224.332 88.7957 223.14 89.8536 221.864 90.7541C221.344 91.1705 220.731 91.457 220.077 91.5896C219.194 91.7062 218.324 91.3184 217.435 91.2831C216.903 91.288 216.373 91.3572 215.858 91.4892L214.222 91.8419C214.309 90.5805 213.611 89.3165 213.221 88.1148C212.485 85.8525 212.348 83.4329 212.523 81.0622C212.697 78.6914 213.183 76.3532 213.663 74.0258C213.998 72.3982 213.965 70.6975 214.481 69.116C214.964 67.5943 215.654 66.1322 215.907 64.5481C216.322 61.9847 214.598 59.812 215.182 57.2838Z" fill="#3F3D56"/>
<path d="M227.588 62.2994C227.739 62.575 227.845 62.8725 227.902 63.181C228.028 63.6588 228.264 64.1009 228.592 64.4722C228.866 64.7129 229.11 64.9862 229.317 65.2859C229.568 65.7579 229.473 66.333 229.59 66.8484C229.726 67.4099 230.122 67.8981 230.179 68.4759C230.181 68.6415 230.196 68.8066 230.225 68.9696C230.403 69.626 231.374 69.7834 231.589 70.4398C231.734 70.8657 231.485 71.3295 231.532 71.7771C231.566 71.9155 231.574 72.0589 231.556 72.2002C231.495 72.3601 231.386 72.498 231.245 72.5963C230.343 73.4539 229.718 74.5599 229.451 75.7727C229.188 76.9789 229.05 78.2086 229.039 79.4428L227.973 78.0404C227.86 77.8703 227.715 77.723 227.547 77.6064C227.411 77.525 227.253 77.4843 227.114 77.4029C226.71 77.1751 226.552 76.6922 226.396 76.2582C225.965 75.0568 225.318 73.943 224.487 72.9706C224.054 72.4634 223.549 71.9534 223.454 71.2943C223.425 70.9915 223.442 70.6862 223.503 70.3883C223.775 68.6115 224.067 66.7914 224.937 65.2154C225.344 64.4776 225.87 63.8103 226.26 63.0616C226.522 62.5652 226.89 61.274 227.588 62.2994Z" fill="#3F3D56"/>
<path d="M200.684 64.0056C200.689 64.2339 200.63 64.4592 200.515 64.6566C200.41 64.7768 200.274 64.8657 200.122 64.9136C199.97 64.9615 199.808 64.9665 199.653 64.9279C199.342 64.8503 199.05 64.714 198.791 64.5264C198.031 64.049 197.271 63.5707 196.511 63.0915C196.087 62.8371 195.678 62.5581 195.286 62.256C194.688 61.7537 194.146 61.189 193.669 60.5715C192.344 58.944 191.171 57.1781 189.695 55.6889C189.295 55.282 188.877 54.8914 188.49 54.4655C187.961 53.8499 187.474 53.1992 187.034 52.5179C186.608 51.8913 186.166 51.1969 186.24 50.4482C186.284 50.0251 186.488 49.6344 186.548 49.214C186.608 48.7936 186.447 48.2809 186.038 48.1669C185.99 48.1549 185.941 48.1467 185.891 48.1425C185.81 48.134 185.731 48.1167 185.654 48.091C185.275 47.9337 185.332 47.3505 185.605 47.044C185.877 46.7374 186.281 46.5665 186.529 46.2302C186.645 46.0306 186.774 45.8393 186.916 45.6578C187.099 45.5021 187.317 45.3931 187.552 45.3405C189.125 44.8794 190.789 44.8169 192.393 45.1587C192.665 45.2184 192.976 45.3269 193.058 45.59C193.091 45.7182 193.091 45.8524 193.058 45.9806C192.938 46.5155 192.869 47.0604 192.851 47.6082C192.85 47.7224 192.857 47.8365 192.87 47.9499C192.998 49.1001 193.748 50.0739 194.479 50.9717C195.346 52.0405 196.227 53.1011 197.111 54.159C197.589 54.772 198.123 55.3396 198.706 55.8543C199.252 56.3046 199.958 56.6681 200.384 57.2459C200.73 57.7124 200.618 58.3499 200.656 58.9114C200.783 60.6068 200.792 62.3089 200.684 64.0056Z" fill="#3F3D56"/>
<path d="M235.32 75.3224C235.589 75.062 235.832 74.7758 236.045 74.468C236.275 74.0866 236.458 73.6796 236.591 73.2554L238.173 68.7933C238.424 68.088 238.675 67.38 238.991 66.6938C239.318 65.9532 239.705 65.2398 240.063 64.5237C240.982 62.6392 241.692 60.661 242.182 58.6239C242.268 58.344 242.297 58.0498 242.266 57.7586C242.19 57.2893 241.833 56.9231 241.492 56.5895C241.149 56.2212 240.758 55.9001 240.33 55.6347C240.115 55.5017 239.875 55.4125 239.625 55.3725C239.375 55.3324 239.12 55.3423 238.874 55.4014C238.175 55.6048 237.736 56.3155 237.575 57.0289C237.415 57.7423 237.475 58.472 237.406 59.199C237.308 60.2406 236.948 61.247 236.861 62.2913C236.815 62.8962 236.861 63.5065 236.787 64.1087C236.653 64.8995 236.376 65.6595 235.969 66.352C235.083 68.0015 233.886 69.4658 232.443 70.665C232.047 70.9552 231.692 71.2953 231.385 71.6767C231.128 72.0583 230.954 72.4888 230.875 72.9408C230.693 73.6291 230.772 74.3596 231.096 74.9942C231.54 75.7483 232.394 76.0792 233.209 76.2474C234.311 76.4753 234.565 76.1009 235.32 75.3224Z" fill="#BE6F72"/>
<path d="M214.173 41.0573C214.408 40.6185 214.767 40.2581 215.207 40.0213C215.646 39.7844 216.146 39.6815 216.644 39.7254C217.145 39.8137 217.612 40.0399 217.99 40.3784C218.369 40.7169 218.645 41.1541 218.787 41.6405C218.915 42.0447 218.967 42.4922 219.191 42.8394C219.529 43.363 220.156 43.5149 220.625 43.8946C220.906 44.1534 221.131 44.4652 221.288 44.8118C221.446 45.1583 221.532 45.5326 221.542 45.9128C221.568 46.6892 221.445 47.4635 221.179 48.194C221.066 48.5057 220.975 48.8248 220.906 49.1488C220.852 49.4635 220.846 49.7836 220.797 50.0982C220.737 50.5062 220.595 50.8981 220.38 51.2507C220.165 51.6034 219.881 51.9097 219.545 52.1517C219.45 52.2292 219.331 52.2722 219.207 52.2737C218.995 52.2493 218.864 52.0025 218.785 51.78C218.351 50.535 218.455 49.0132 217.655 48.0204C217.292 47.6199 216.853 47.2946 216.363 47.0629C216.163 46.9347 215.938 46.8506 215.703 46.816C215.357 46.8346 215.024 46.9555 214.748 47.1633C214.173 47.5473 213.534 47.8282 212.861 47.9933C212.525 48.0724 212.176 48.076 211.838 48.0037C211.501 47.9314 211.184 47.7852 210.911 47.5756C210.535 47.2663 210.259 46.8025 209.842 46.5611C209.425 46.3197 208.988 46.3332 208.576 46.1677C208.314 46.0567 208.08 45.8876 207.894 45.6732C207.707 45.4588 207.572 45.2049 207.499 44.9307C207.426 44.6565 207.416 44.3693 207.472 44.0911C207.527 43.8128 207.646 43.5508 207.818 43.325C208.091 42.9995 208.495 42.815 208.737 42.4543C209.051 41.9877 209.024 41.3475 209.174 40.7887C209.262 40.4352 209.435 40.1078 209.676 39.8337C209.917 39.5597 210.221 39.3468 210.562 39.2127C210.892 39.1011 211.247 39.0798 211.588 39.1509C211.93 39.222 212.246 39.3829 212.504 39.6169C212.776 39.8611 212.995 40.1757 213.262 40.4307C213.526 40.6819 213.849 40.8632 214.201 40.958C214.554 41.0528 214.925 41.058 215.28 40.9732" fill="#3F3D56"/>
<path opacity="0.1" d="M218.656 80.9835C218.498 81.1241 218.385 81.309 218.334 81.5142C218.282 81.7193 218.294 81.9352 218.367 82.1336C218.427 82.2611 221.242 81.7213 221.539 81.6806C222.281 81.5748 223.582 81.6263 224.081 80.9509C224.97 79.7547 222.215 80.0205 221.711 80.0639C220.751 80.1453 219.387 80.2755 218.656 80.9835Z" fill="black"/>
<path d="M193.053 45.9915C192.933 46.5263 192.863 47.0712 192.846 47.619C192.027 47.7845 191.176 47.5132 190.391 47.242L188.135 46.477C187.998 46.3898 187.833 46.3578 187.673 46.3876C187.513 46.4173 187.37 46.5065 187.274 46.6371C186.911 47.0114 186.412 47.7221 185.91 48.1425C185.829 48.134 185.75 48.1167 185.673 48.091C185.294 47.9337 185.351 47.3505 185.624 47.0439C185.896 46.7374 186.3 46.5665 186.548 46.2302C186.664 46.0306 186.793 45.8393 186.935 45.6578C187.118 45.5021 187.336 45.3931 187.571 45.3405C189.144 44.8794 190.808 44.8169 192.412 45.1587C192.685 45.2184 192.996 45.3269 193.077 45.59C193.104 45.7237 193.095 45.862 193.053 45.9915Z" fill="#3F3D56"/>
<path opacity="0.1" d="M193.053 45.9915C192.933 46.5263 192.863 47.0712 192.846 47.619C192.027 47.7845 191.176 47.5132 190.391 47.242L188.135 46.477C187.998 46.3898 187.833 46.3578 187.673 46.3876C187.513 46.4173 187.37 46.5065 187.274 46.6371C186.911 47.0114 186.412 47.7221 185.91 48.1425C185.829 48.134 185.75 48.1167 185.673 48.091C185.294 47.9337 185.351 47.3505 185.624 47.0439C185.896 46.7374 186.3 46.5665 186.548 46.2302C186.664 46.0306 186.793 45.8393 186.935 45.6578C187.118 45.5021 187.336 45.3931 187.571 45.3405C189.144 44.8794 190.808 44.8169 192.412 45.1587C192.685 45.2184 192.996 45.3269 193.077 45.59C193.104 45.7237 193.095 45.862 193.053 45.9915Z" fill="black"/>
<path opacity="0.1" d="M213.685 97.4895C214.077 97.6197 214.503 97.8096 214.636 98.2002L211.478 97.4027L209.842 96.9876C209.553 96.9144 208.516 96.8303 208.325 96.6052C208.053 96.2742 209.021 96.5021 209.195 96.5265C209.725 96.6052 210.254 96.6865 210.78 96.7815C211.773 96.9578 212.727 97.248 213.685 97.4895Z" fill="black"/>
<path opacity="0.1" d="M214.909 100.27C214.636 100.088 213.854 100.11 213.518 100.031C213.027 99.9144 212.545 99.7598 212.062 99.6106C211.083 99.2932 210.112 98.9325 209.105 98.6992C208.92 98.6585 208.287 98.6476 208.317 98.4144C208.347 98.1811 208.95 98.0997 209.1 98.0889C209.992 98.0237 211.105 98.4388 211.934 98.7345C212.99 99.1109 213.991 99.6273 214.909 100.27Z" fill="black"/>
<path opacity="0.1" d="M212.907 95.0102C211.906 94.7389 210.998 94.1204 209.967 94.0011C209.699 94.0112 209.434 93.931 209.217 93.7732C209.096 93.6548 209.012 93.5041 208.975 93.3392C209.665 93.304 210.466 93.5942 211.094 93.8682C211.439 94.0155 211.771 94.1915 212.086 94.3944C212.315 94.5327 212.659 94.9315 212.907 95.0102Z" fill="black"/>
<path d="M231.987 70.7219C231.818 71.8497 232.063 73.0003 232.677 73.9632C233.291 74.9261 234.233 75.6368 235.331 75.9653C235.197 76.6082 234.529 76.9635 234.057 77.422C233.392 78.0648 233.048 79.0278 232.263 79.5161C231.387 80.0586 230.261 79.847 229.263 79.6191C229.172 79.609 229.088 79.5655 229.028 79.4971C229.008 79.4646 228.993 79.4288 228.985 79.3913C228.655 78.1896 228.439 76.9066 228.777 75.7022C229.05 74.6768 229.705 73.8034 230.228 72.8974C230.752 71.9914 230.801 71.0203 231.987 70.7219Z" fill="#3F3D56"/>
<path d="M207.603 55.168C206.547 55.2444 205.522 55.5549 204.603 56.0767C203.992 56.4239 203.365 56.8905 202.666 56.8064C202.255 56.7603 201.848 56.5352 201.447 56.6437C201.221 56.7343 201.011 56.8587 200.823 57.0126C200.727 57.0881 200.614 57.1378 200.493 57.1568C200.373 57.1758 200.25 57.1635 200.135 57.1211L199.863 60.8752C199.759 62.3021 199.658 63.7587 200.002 65.1502C200.179 65.8609 200.569 66.5065 200.613 67.2281C200.656 67.9496 200.591 68.6901 200.643 69.4198C200.692 70.0952 200.842 70.7598 200.88 71.4352C200.956 72.7101 200.64 73.9742 200.335 75.2138C199.874 77.0421 199.595 78.911 198.698 80.5657C198.447 81.0241 198.153 81.4907 198.153 82.0115C198.153 82.0766 198.153 82.139 198.169 82.2014C197.896 82.3506 197.643 82.4916 197.411 82.6381C196.893 82.9718 196.339 83.3434 196.126 83.9211C195.955 84.3904 196.034 84.9275 195.826 85.3805C195.619 85.8335 195.145 86.1563 195.041 86.6446C194.967 86.9999 195.109 87.3742 195.041 87.7296C194.979 87.9134 194.929 88.101 194.891 88.2911C194.864 88.698 195.21 89.0262 195.554 89.2486C196.055 89.5771 196.608 89.8192 197.19 89.9647L198.818 83.536C200.303 80.8061 201.538 77.9492 202.508 74.9995C202.786 74.0354 203.142 73.0955 203.575 72.1893C203.883 71.6767 204.157 71.1438 204.393 70.5943C204.641 69.9108 204.665 69.1702 204.785 68.4487C204.928 67.6066 205.142 66.778 205.426 65.9721C205.721 65.1014 206.062 64.2334 206.122 63.3193C206.212 62.0118 205.735 60.6311 206.242 59.4213C206.457 58.9685 206.737 58.5491 207.074 58.1763C207.777 57.3191 208.418 56.4212 209.122 55.5641C208.756 55.1762 208.148 55.1355 207.603 55.168Z" fill="#3F3D56"/>
<g opacity="0.1">
<path opacity="0.1" d="M215.288 40.1649L214.947 40.1893L214.909 40.2165C215.037 40.2113 215.164 40.194 215.288 40.1649Z" fill="black"/>
<path opacity="0.1" d="M221.528 45.7962C221.471 46.3355 221.354 46.8668 221.179 47.3803C221.066 47.692 220.975 48.011 220.906 48.3351C220.852 48.6498 220.846 48.9699 220.797 49.2845C220.737 49.6925 220.595 50.0844 220.38 50.437C220.165 50.7897 219.881 51.096 219.545 51.3379C219.45 51.4155 219.331 51.4585 219.207 51.46C218.995 51.4356 218.864 51.1887 218.785 50.9663C218.351 49.7212 218.455 48.1995 217.655 47.2067C217.292 46.8062 216.853 46.4808 216.363 46.2492C216.163 46.121 215.938 46.0368 215.703 46.0023C215.357 46.0208 215.024 46.1417 214.748 46.3495C214.173 46.7336 213.534 47.0145 212.861 47.1796C212.525 47.2587 212.176 47.2622 211.838 47.19C211.501 47.1177 211.184 46.9714 210.911 46.7618C210.535 46.4526 210.259 45.9888 209.842 45.7473C209.425 45.5059 208.988 45.5195 208.576 45.354C208.319 45.2447 208.09 45.0792 207.906 44.8698C207.722 44.6604 207.587 44.4124 207.513 44.1442C207.503 44.1104 207.496 44.0759 207.491 44.0411C207.423 44.3439 207.43 44.6587 207.513 44.958C207.587 45.2261 207.722 45.4741 207.906 45.6836C208.09 45.893 208.319 46.0585 208.576 46.1678C208.988 46.3333 209.452 46.336 209.842 46.5611C210.232 46.7863 210.535 47.2664 210.911 47.5756C211.184 47.7852 211.501 47.9315 211.838 48.0037C212.176 48.076 212.525 48.0725 212.861 47.9933C213.534 47.8282 214.173 47.5473 214.748 47.1633C215.024 46.9555 215.357 46.8346 215.703 46.8161C215.938 46.8506 216.163 46.9348 216.363 47.0629C216.847 47.2991 217.279 47.6272 217.636 48.0286C218.435 49.0214 218.332 50.5431 218.765 51.7882C218.845 52.0134 218.975 52.2575 219.188 52.2819C219.319 52.2826 219.446 52.2363 219.545 52.1517C219.883 51.9091 220.167 51.6016 220.383 51.2475C220.598 50.8933 220.74 50.4998 220.8 50.0901C220.849 49.7755 220.855 49.4554 220.909 49.1407C220.978 48.8167 221.069 48.4976 221.182 48.1859C221.448 47.4554 221.571 46.6811 221.545 45.9047C221.539 45.8721 221.534 45.8341 221.528 45.7962Z" fill="black"/>
</g>
<path d="M204.273 67.5618L204.087 70.0383C204.06 70.3747 203.414 78.3822 198.646 87.7405C194.555 95.767 186.595 106.221 171.565 112.097C170.392 112.558 169.175 112.988 167.913 113.388L166.505 108.993C170.038 107.888 173.442 106.407 176.656 104.577C184.317 100.178 190.274 93.898 194.427 85.8173C196.631 81.515 198.202 76.9199 199.091 72.1731H181.991V67.5618H204.273Z" fill="#8138D9"/>
<path opacity="0.1" d="M169.724 112.099C184.751 106.224 192.715 95.7724 196.803 87.7459C201.57 78.3876 202.219 70.3856 202.244 70.0438L202.429 67.5672H204.338L204.153 70.0438C204.128 70.3801 203.479 78.3876 198.712 87.7459C194.621 95.7724 186.66 106.224 171.633 112.099C170.46 112.56 169.242 112.992 167.978 113.393L167.793 112.815C168.451 112.582 169.095 112.343 169.724 112.099Z" fill="white"/>
<path d="M139.636 108.993L138.229 113.388C136.965 112.986 135.747 112.555 134.575 112.094C119.547 106.218 111.584 95.767 107.495 87.7405C102.728 78.3822 102.079 70.3801 102.055 70.0383L101.869 67.5618H124.14V72.1731H107.037C107.931 76.9205 109.506 81.5155 111.715 85.8173C115.868 93.898 121.822 100.178 129.483 104.575C132.698 106.406 136.102 107.888 139.636 108.993Z" fill="#8138D9"/>
<path opacity="0.1" d="M136.413 112.099C121.385 106.224 113.422 95.7724 109.334 87.7459C104.566 78.3876 103.917 70.3856 103.893 70.0438L103.707 67.5672H101.798L101.984 70.0438C102.008 70.3801 102.657 78.3876 107.425 87.7459C111.515 95.7724 119.476 106.224 134.504 112.099C135.676 112.56 136.895 112.992 138.158 113.393L138.344 112.815C137.687 112.582 137.044 112.343 136.413 112.099Z" fill="white"/>
<path d="M178.797 151.472V176.338H127.342V151.472L128.978 149.302C145.653 143.416 149.032 128.065 149.705 121.992C149.806 121.153 149.863 120.309 149.877 119.464H156.24C156.254 120.309 156.312 121.153 156.412 121.992C157.096 128.065 160.475 143.421 177.139 149.302L178.797 151.472Z" fill="#8138D9"/>
<path opacity="0.1" d="M178.797 151.472H127.342V154.592H178.797V151.472Z" fill="black"/>
<path opacity="0.1" d="M131.705 149.302C148.38 143.416 151.759 128.065 152.433 121.992C152.533 121.153 152.59 120.309 152.605 119.464H149.877C149.863 120.309 149.806 121.153 149.705 121.992C149.021 128.065 145.642 143.421 128.978 149.302L127.342 151.472V176.338H130.069V151.472L131.705 149.302Z" fill="white"/>
<path opacity="0.1" d="M119.526 67.5618H124.14V72.1731H119.935C119.769 70.6541 119.633 69.117 119.526 67.5618Z" fill="black"/>
<path opacity="0.1" d="M139.636 108.993L138.229 113.388C136.965 112.986 135.747 112.555 134.575 112.094C132.645 109.751 130.941 107.233 129.483 104.575C132.698 106.406 136.102 107.888 139.636 108.993Z" fill="black"/>
<path opacity="0.1" d="M166.503 108.993C170.036 107.887 173.439 106.407 176.654 104.577C175.195 107.236 173.49 109.755 171.562 112.099C170.389 112.56 169.172 112.991 167.91 113.39L166.503 108.993Z" fill="black"/>
<path opacity="0.1" d="M186.611 67.5618C186.504 69.117 186.367 70.6541 186.202 72.1731H181.999V67.5618H186.611Z" fill="black"/>
<path opacity="0.1" d="M156.423 121.992C154.208 122.419 151.931 122.419 149.716 121.992C149.817 121.153 149.874 120.309 149.888 119.464H156.251C156.265 120.309 156.322 121.153 156.423 121.992Z" fill="black"/>
<path d="M120.071 59.9232C120.188 94.1177 134.915 121.77 153.071 121.77C171.226 121.77 185.951 94.1177 186.071 59.9232H120.071Z" fill="#8138D9"/>
<path opacity="0.1" d="M125.935 59.9232H120.071C120.188 94.1177 134.915 121.77 153.071 121.77C154.053 121.768 155.034 121.685 156.003 121.523C139.219 118.734 126.046 92.2569 125.935 59.9232Z" fill="white"/>
<path d="M170.569 160.99H135.57V169.942H170.569V160.99Z" fill="#3F3D56"/>
<path opacity="0.1" d="M137.206 162.211H170.569V160.99H135.57V169.942H137.206V162.211Z" fill="white"/>
<path d="M101.405 92.9377C100.775 92.7288 97.0664 89.8101 96.7855 88.4891C96.5046 87.168 98.7464 74.8612 98.7464 74.8612C98.7464 74.8612 98.5391 74.8612 98.201 74.8205V74.6225L98.6619 58.4556C98.6619 58.4556 100.552 47.6054 96.9819 48.2374C93.4119 48.8694 95.6509 58.4556 95.6509 58.4556C95.6509 58.4556 95.2446 63.3219 94.9582 64.7813C94.6855 66.1891 93.4364 71.9235 94.2873 73.7056C94.3185 73.7689 94.3531 73.8305 94.3909 73.8901C94.3909 73.8901 94.5328 80.0069 92.9919 80.8424C91.5219 81.6371 90.9109 85.6382 90.8591 85.9962L90.78 85.9637C90.3411 85.6905 89.9558 85.3404 89.6428 84.9302C89.61 84.8895 89.5855 84.8461 89.5555 84.8027C90.5589 83.6799 91.0997 82.2221 91.0699 80.7202C91.04 79.2182 90.4418 77.7828 89.3946 76.7003C88.9077 76.1972 88.3364 75.7824 87.7064 75.4742C87.6881 74.9559 87.5647 74.4466 87.3437 73.9769C86.6346 72.4687 82.7073 70.4967 79.9173 70.4505C78.63 70.4126 77.5746 70.7761 77.19 71.777C76.9937 72.2842 77.0537 72.862 76.9719 73.3882C76.8082 74.4733 76.1073 75.3223 75.2073 75.9977C74.8439 75.5942 74.451 75.218 74.0319 74.872C73.1209 74.1776 71.3046 71.8882 71.3046 71.8882C71.3046 71.8882 65.6346 66.0481 65.2146 64.4476C64.7946 62.8472 59.13 53.2366 57.87 54.9103C56.61 56.5839 62.2091 63.878 62.2091 63.878C62.2091 63.878 63.2728 66.5282 64.0909 67.4233C64.9091 68.3185 71.1819 77.3784 71.1819 77.3784L71.4819 77.9969C70.1564 78.6913 68.9455 79.5756 68.5173 80.9536C67.89 82.9826 69.2619 85.0224 70.2109 86.9212C72.06 90.6266 72.3246 95.3518 69.9382 98.7371C67.8 101.726 64.0909 103.148 60.6191 104.39C62.2958 105.7 64.3788 106.387 66.51 106.335C65.7082 108.646 62.8664 109.411 60.4446 109.84C61.7155 111.055 63.5346 111.497 65.28 111.766C66.1349 111.91 67.0011 111.978 67.8682 111.969H68.0809L68.2937 111.953C68.5893 111.933 68.8834 111.896 69.1746 111.841C70.4346 111.587 71.6591 110.903 72.3028 109.796C72.8482 108.85 73.0391 107.558 74.0291 107.084C74.2869 106.968 74.5647 106.903 74.8473 106.891H74.8173C75.0028 106.891 75.1937 106.891 75.3791 106.891L79.5055 106.932C79.6773 106.932 79.8546 106.932 80.0319 106.932C81.1964 106.905 82.44 106.704 83.0319 105.746C83.2753 105.281 83.4034 104.765 83.4055 104.241C83.4928 102.942 83.4055 101.604 83.4409 100.294C83.7928 102.678 84.1609 106.395 83.2855 107.767C82.5743 108.807 81.7122 109.737 80.7273 110.526C80.4796 110.733 80.253 110.964 80.0509 111.215C79.9173 111.31 79.8382 111.361 79.8382 111.361L79.7537 111.614C79.4428 112.083 79.2176 112.602 79.0882 113.149C79.0406 113.289 79.023 113.438 79.0364 113.586C79.1318 113.778 78.3546 114.573 78.5809 114.907C76.6391 117.172 76.2709 120.603 76.2709 120.603L72.7255 125.958C70.9037 130.718 68.1764 131.206 68.1764 131.206C68.1764 131.206 61.77 126.931 61.5955 126.723C61.4209 126.514 58.9718 125.469 58.9718 125.469C58.6831 124.966 58.2423 124.565 57.7118 124.325C56.8718 123.977 56.8009 122.697 56.8009 122.697C56.6973 119.673 54.9109 119.442 54.9109 119.442C53.4709 119.32 52.3718 119.575 51.5264 120.042L51.27 120.061C50.0318 120.161 48.5428 120.272 46.9064 120.381C42.3546 120.679 41.2718 123.611 41.2718 123.611C41.2718 123.611 40.7128 124.238 41.4464 124.916C42.18 125.594 46.8764 124.916 47.0755 124.9C46.7176 124.938 46.3556 124.914 46.0064 124.827C46.7455 124.799 47.7628 124.772 48.63 124.772H48.84C48.7854 125.23 48.759 125.69 48.7609 126.15C48.7609 127.018 51.1746 127.574 51.1746 127.574L58.5246 134.084C58.5246 134.084 63.1446 136.138 66.0846 139.092C69.0246 142.046 71.6237 139.496 71.6237 139.496C74.7355 138.731 83.6891 127.965 83.6973 127.954C83.6973 128.269 83.8855 138.739 84.2428 140.841C84.257 140.948 84.2835 141.053 84.3219 141.153C84.7419 142.057 84.18 144.525 83.9373 145.567C83.7825 146.438 83.7231 147.324 83.76 148.209C83.76 148.209 80.4028 160.958 80.6809 162.078C80.9591 163.198 78.8619 168.404 78.8619 168.404V172.744L79.2273 172.725C79.1798 172.795 79.1361 172.867 79.0964 172.942L79.0718 172.988C79.0718 172.988 81.3109 173.474 82.8164 173.335C84.3219 173.197 86.9073 174.488 86.9073 174.488C86.9073 174.488 87.7828 174.9 90.4773 175.074C93.1719 175.248 93.1719 173.891 93.1719 173.891C92.8637 172.044 88.6064 171.426 88.4755 171.407C88.1319 171.192 87.81 170.959 87.5455 170.758L87.4909 170.715C87.5088 170.674 87.5243 170.633 87.5373 170.59C87.9928 168.746 85.4728 167.945 85.4728 167.945V167.495C87.1091 166.66 87.4337 160.925 87.4337 160.925C87.4337 160.925 89.8882 153.835 90.2319 152.652C90.5755 151.469 90.2319 149.698 90.2319 149.698L90.4773 148.168C90.4773 148.168 91.0037 147.126 91.0037 146.918C91.0718 146.388 91.2766 145.885 91.5982 145.458C91.9828 145.005 91.1782 143.928 91.1782 143.928L91.8791 142.122V140.139L93.5155 132.945C93.5155 132.945 95.2309 124.566 94.6364 121.824C94.0419 119.081 95.3373 117.687 95.3373 117.687C95.2205 117.748 95.1003 117.802 94.9773 117.85C95.1411 117.473 95.2822 117.087 95.4 116.694L99.0819 117.147V117.202H100.41C100.41 117.202 99.99 112.048 99.99 109.97C99.99 107.892 101.405 100.435 101.405 100.435C101.405 100.435 102.035 93.1465 101.405 92.9377ZM85.0609 86.9212C85.0609 87.1246 85.0419 87.3362 85.0282 87.5532L84.9546 87.6645L84.8182 87.5505L84.6519 87.8082L84.6028 87.8326C84.2428 87.6482 84.0573 86.593 83.7982 86.8208L83.7628 86.8507C83.7055 86.7856 83.6482 86.7666 83.5882 86.8208L83.5337 86.867C83.5337 86.7883 83.5337 86.7069 83.5337 86.6255C84.0326 86.7533 84.5457 86.818 85.0609 86.8181C85.0637 86.8534 85.0609 86.8887 85.0609 86.9212ZM97.3064 110.922H97.3855L97.2546 111.264C97.271 111.15 97.2873 111.039 97.3064 110.922ZM83.8637 172.435L83.3619 172.31L83.6346 172.264L83.8882 172.429L83.9182 172.451L83.8637 172.435ZM88.9909 171.705C88.8246 171.618 88.6555 171.518 88.4919 171.415C88.5464 171.445 88.7619 171.556 88.9909 171.705Z" fill="url(#paint1_linear)"/>
<path d="M99.1173 105.798L95.8146 114.359H96.6164L93.51 116.822L99.1173 117.516V105.798Z" fill="#F86D70"/>
<path opacity="0.1" d="M99.1173 105.798L95.8146 114.359L94.9827 114.136L93.51 116.822L99.1173 117.516V105.798Z" fill="black"/>
<path d="M93.9382 111.275H99.1173L101.018 95.7181H93.9382V111.275Z" fill="#F86D70"/>
<path opacity="0.1" d="M93.9382 111.275H99.1173L101.018 95.7181H93.9382V111.275Z" fill="black"/>
<path d="M83.8227 99.4017L84.9409 99.2146L87.51 98.7806C87.51 98.7806 95.2255 97.0499 96.8182 96.9089C97.783 96.7822 98.724 96.5153 99.6109 96.1168C100.028 95.9378 100.293 95.8022 100.293 95.8022L97.5136 90.7541L93.2018 87.575C93.2018 87.575 90.4746 86.9972 89.3209 85.4185C89.0635 85.0788 88.8958 84.6803 88.8334 84.2594C88.771 83.8386 88.8158 83.4089 88.9636 83.0097C89.6673 80.8397 84.7609 85.0848 84.7609 85.0848C84.7609 85.0848 84.8073 86.1021 84.7609 87.3987C84.7609 87.6536 84.7364 87.9195 84.7173 88.1907C84.7173 88.3698 84.6927 88.5488 84.6737 88.7332C84.5537 90.0217 84.3082 91.3481 83.8227 92.1402C82.6364 94.077 83.8227 99.4017 83.8227 99.4017Z" fill="#FBBEBE"/>
<path opacity="0.1" d="M84.7609 87.5072H84.87C85.0663 87.5072 85.2245 87.0921 85.4154 87.0732C86.9509 86.9267 88.3527 86.6066 89.3263 85.5243C89.0695 85.1848 88.9023 84.7867 88.8399 84.3665C88.7775 83.9462 88.8219 83.5171 88.969 83.1182C89.6727 80.9482 84.7663 85.1906 84.7663 85.1906C84.7663 85.1906 84.8181 86.2106 84.7609 87.5072Z" fill="black"/>
<path d="M78.7882 81.3552C78.7879 82.1361 78.9422 82.9095 79.2425 83.631C79.5428 84.3526 79.9832 85.0082 80.5384 85.5604C81.0936 86.1126 81.7527 86.5505 82.4782 86.8492C83.2037 87.1479 83.9812 87.3015 84.7664 87.3011C84.9628 87.3011 85.1564 87.3011 85.35 87.274C86.5019 87.1616 87.5963 86.719 88.5002 86C89.4041 85.281 90.0788 84.3165 90.4422 83.2235C90.8057 82.1306 90.8423 80.9562 90.5477 79.8429C90.253 78.7296 89.6398 77.7254 88.7824 76.952C87.9251 76.1787 86.8604 75.6695 85.7177 75.4863C84.5751 75.3031 83.4035 75.4538 82.3452 75.92C81.2869 76.3862 80.3875 77.148 79.7561 78.1128C79.1247 79.0776 78.7885 80.204 78.7882 81.3552Z" fill="#FBBEBE"/>
<path d="M76.9528 72.3305C76.7564 72.835 76.8164 73.3992 76.7374 73.9336C76.4455 75.8622 74.4737 77.0178 72.6901 77.8261C70.9064 78.6345 68.8937 79.592 68.3264 81.4555C67.7046 83.471 69.0628 85.4918 70.0064 87.3825C71.8446 91.0661 72.1064 95.7643 69.7337 99.1333C67.6255 102.117 63.9519 103.533 60.4937 104.775C62.1581 106.078 64.2267 106.763 66.3437 106.712C65.5501 109.01 62.7274 109.772 60.3219 110.195C61.5846 111.405 63.3928 111.844 65.1246 112.11C66.3874 112.305 67.6828 112.433 68.9428 112.181C70.2028 111.928 71.3974 111.248 72.0464 110.146C72.5919 109.205 72.7774 107.922 73.7619 107.447C74.2063 107.273 74.6851 107.204 75.161 107.244L79.2519 107.287C80.5255 107.287 82.0337 107.19 82.691 106.107C82.9334 105.645 83.0606 105.131 83.0619 104.61C83.2392 101.941 82.7237 99.1197 83.8283 96.6838C84.161 95.9487 82.0255 94.785 82.2492 94.0065C83.0183 91.3292 83.2119 89.2216 83.2037 86.4358C83.2037 84.2793 84.6137 82.4212 85.7783 80.6011C86.9428 78.781 87.9164 76.4834 86.9973 74.5304C85.961 72.3522 78.1774 69.1866 76.9528 72.3305Z" fill="#3F3D56"/>
<path d="M82.3991 171.654L83.4409 172.34L83.6018 172.446L83.6318 172.465L84.8673 173.278L87.7527 173.761L90.2891 173.588C90.2891 173.588 91.02 172.069 89.8718 172.104C89.5041 172.085 89.1457 171.982 88.8246 171.803L88.6664 171.724C88.5 171.637 88.3337 171.54 88.17 171.436C87.8291 171.222 87.5073 170.989 87.2482 170.791C86.8664 170.498 86.6127 170.276 86.6127 170.276L82.3991 171.654Z" fill="#FBBEBE"/>
<path opacity="0.1" d="M83.4545 172.34L83.6154 172.446L83.6454 172.465L84.8809 173.279L87.7663 173.761L90.3027 173.588C90.3027 173.588 91.0336 172.069 89.8854 172.104C89.5177 172.085 89.1593 171.982 88.8382 171.803C89.04 171.96 89.2091 172.131 89.2254 172.275C89.2718 172.663 87.3491 173.36 87.3491 173.36L84.6382 172.646C84.6382 172.646 84.1773 172.516 83.5473 172.354L83.4873 172.337L83.4545 172.34Z" fill="black"/>
<path d="M78.8182 173.002C78.8182 173.002 81.0409 173.485 82.5355 173.346C84.03 173.208 86.6045 174.488 86.6045 174.488C86.6045 174.488 87.4745 174.895 90.15 175.069C92.8255 175.242 92.8255 173.891 92.8255 173.891C92.52 172.055 88.2927 171.45 88.1618 171.423C88.2136 171.45 88.4345 171.561 88.6582 171.711C88.9582 171.906 89.2827 172.161 89.3073 172.367C89.3536 172.752 87.4309 173.452 87.4309 173.452L84.72 172.741C84.72 172.741 84.2591 172.608 83.6291 172.446H83.5691C82.6349 172.193 81.6858 171.998 80.7273 171.863C79.56 171.738 78.9627 172.725 78.84 172.948C78.8311 172.965 78.8238 172.983 78.8182 173.002Z" fill="#3F3D56"/>
<path d="M43.7836 124.222L44.9645 125.122C44.9645 125.122 45.3081 125.106 45.8208 125.09H45.9845C46.7181 125.063 47.7299 125.035 48.589 125.035C49.1444 125.011 49.7008 125.041 50.2499 125.128C50.839 125.334 51.8863 121.775 51.8863 121.775L50.7027 121.504L50.3099 121.411L50.0372 121.346L49.0745 121.121L46.1563 121.452L44.1054 122.765L43.7836 124.222Z" fill="#FBBEBE"/>
<path opacity="0.1" d="M43.7836 124.222L44.9645 125.122C44.9645 125.122 45.3081 125.106 45.8208 125.09C45.5856 124.999 45.3916 124.827 45.2754 124.604C44.5118 122.496 48.2999 121.596 48.2999 121.596L50.0645 121.52L50.4081 121.504H50.6809L50.2881 121.411L50.0154 121.346L49.0527 121.121L46.1345 121.452L44.0836 122.765L43.7836 124.222Z" fill="black"/>
<path d="M41.4545 125.174C42.169 125.83 46.849 125.174 47.0454 125.157C46.6902 125.197 46.3307 125.172 45.9845 125.084C45.8131 125.054 45.6507 124.986 45.5091 124.885C45.3676 124.784 45.2504 124.653 45.1663 124.501C44.4027 122.391 48.1908 121.493 48.1908 121.493L49.9554 121.417L50.2963 121.401L54.5863 121.216L54.7936 120.042C54.7936 120.042 53.3999 120.172 51.2127 120.345C49.9827 120.446 48.4854 120.557 46.8681 120.663C42.349 120.961 41.2745 123.877 41.2745 123.877C41.2745 123.877 40.7263 124.501 41.4545 125.174Z" fill="#3F3D56"/>
<path d="M93.9409 74.259C93.97 74.3234 94.0046 74.3851 94.0446 74.4434L95.0864 75.9625L97.7973 76.2337L97.8273 75.165L98.2827 59.0849C98.2827 59.0849 100.159 48.2998 96.6137 48.921C93.0682 49.5422 95.2937 59.0849 95.2937 59.0849C95.2937 59.0849 94.89 63.9241 94.6064 65.3781C94.3309 66.7832 93.0955 72.4958 93.9409 74.259Z" fill="#FBBEBE"/>
<path d="M87.8564 114.199L88.6282 115.512L90.3546 118.449C90.3546 118.449 93.4855 119.591 94.2873 118.721C94.7264 118.246 95.2009 116.589 95.5337 115.194C95.8064 114.066 95.9891 113.114 95.9891 113.114L87.8564 114.199Z" fill="#FBBEBE"/>
<path opacity="0.1" d="M87.8564 114.199L88.6282 115.512C88.6766 115.47 88.7205 115.424 88.7591 115.373C89.6318 114.267 93.4746 115.137 95.5337 115.208C95.8064 114.079 95.9891 113.127 95.9891 113.127L87.8564 114.199Z" fill="black"/>
<path opacity="0.1" d="M48.5891 125.03C49.1444 125.005 49.7008 125.036 50.25 125.122C50.8391 125.328 51.8863 121.77 51.8863 121.77L50.31 121.401L54.6 121.216L54.8072 120.042C54.8072 120.042 53.4136 120.172 51.2263 120.345C50.7744 120.604 50.3711 120.939 50.0345 121.336L49.9691 121.417C49.0554 122.532 48.7172 123.969 48.5891 125.03Z" fill="black"/>
<path opacity="0.1" d="M82.3991 171.654L83.6018 172.446C85.3964 172.123 87.0355 171.616 87.2291 170.818C87.23 170.805 87.23 170.793 87.2291 170.78C86.8473 170.487 86.5937 170.265 86.5937 170.265L82.3991 171.654Z" fill="black"/>
<path opacity="0.1" d="M78.8428 172.956C80.4275 172.877 82.0065 172.709 83.5719 172.451C82.6369 172.196 81.6869 171.999 80.7273 171.862C79.5628 171.738 78.9655 172.725 78.8428 172.956Z" fill="black"/>
<path d="M48.72 126.4C48.72 127.265 51.1172 127.818 51.1172 127.818L58.4182 134.282C58.4182 134.282 63.0054 136.322 65.9236 139.26C68.8418 142.198 71.4163 139.675 71.4163 139.675C74.5091 138.916 83.4163 128.198 83.4163 128.198C83.4163 128.198 83.6236 140.437 84.0409 141.335C84.4582 142.233 83.9018 144.688 83.6591 145.727C83.5059 146.593 83.4474 147.474 83.4845 148.353C83.4845 148.353 80.1491 161.039 80.4272 162.146C80.7054 163.253 78.6191 168.439 78.6191 168.439V172.76C78.6191 172.76 86.7872 172.448 87.2372 170.617C87.6872 168.786 85.1891 167.989 85.1891 167.989V167.538C86.8254 166.708 87.1336 161.007 87.1336 161.007C87.1336 161.007 89.5691 153.954 89.9154 152.779C90.2618 151.605 89.9154 149.839 89.9154 149.839L90.1581 148.32C90.1581 148.32 90.6791 147.281 90.6791 147.075C90.7472 146.549 90.951 146.049 91.2709 145.624C91.6527 145.173 90.8536 144.102 90.8536 144.102L91.5491 142.304V140.334L93.1854 133.178C93.1854 133.178 94.89 124.845 94.2982 122.114C93.7063 119.382 94.9936 118.002 94.9936 118.002C92.2036 119.456 90.7963 116.22 90.3354 114.828C90.2182 114.47 90.1609 114.231 90.1609 114.231C90.1609 114.231 86.3291 112.826 82.7618 113.162C82.0373 113.221 81.3233 113.371 80.6372 113.61C76.6745 115.029 76.05 120.904 76.05 120.904L72.54 126.229C70.7318 130.965 68.0209 131.448 68.0209 131.448C68.0209 131.448 61.6609 127.197 61.4754 126.988C61.29 126.78 58.8682 125.743 58.8682 125.743C58.5818 125.242 58.1437 124.843 57.6163 124.604C56.7818 124.257 56.7136 122.977 56.7136 122.977C56.61 119.968 54.8372 119.721 54.8372 119.721C48.6845 119.211 48.72 125.537 48.72 126.4Z" fill="#3F3D56"/>
<path d="M84.1036 109.498H87.8563V97.918H84.1036V109.498Z" fill="#F86D70"/>
<path opacity="0.1" d="M84.1036 109.498H87.8563V97.918H84.1036V109.498Z" fill="black"/>
<path opacity="0.1" d="M93.9381 74.2346C93.9375 74.2427 93.9375 74.2509 93.9381 74.259C93.9672 74.3234 94.0018 74.3851 94.0418 74.4435L95.0836 75.9625L97.7945 76.2338L97.8245 75.165C96.9791 75.0999 95.0536 74.8694 93.9381 74.2346Z" fill="black"/>
<path d="M94.0446 74.4435C94.0446 74.4435 94.1837 80.5251 92.6537 81.3552C91.1237 82.1852 90.5291 86.509 90.5291 86.509C90.5291 86.509 95.1655 89.5417 96.1991 90.8763C97.2328 92.2108 99.6055 95.39 99.1173 96.1495C98.6291 96.909 100.301 100.368 100.301 100.368C100.301 100.368 97.2409 106.59 97.9364 108.942C98.6318 111.294 98.7 117.514 98.7 117.514H100.023C100.023 117.514 99.6055 112.398 99.6055 110.323C99.6055 108.248 100.994 100.85 100.994 100.85C100.994 100.85 101.621 93.5915 100.994 93.3854C100.366 93.1792 96.6846 90.2741 96.4064 88.9585C96.1282 87.6429 98.3537 75.3957 98.3537 75.3957C98.3537 75.3957 95.5037 75.2736 94.0446 74.4435Z" fill="#F86D70"/>
<path opacity="0.1" d="M84.0327 96.8439C84.1596 97.6901 84.4694 98.499 84.9409 99.2146L87.51 98.7806C87.51 98.7806 95.2254 97.05 96.8182 96.909C97.783 96.7823 98.724 96.5154 99.6109 96.1169C98.9996 93.9624 97.8064 92.0158 96.1609 90.4884L95.1818 89.5851C93.739 88.2528 92.0669 87.1897 90.2454 86.4467C90.36 86.5416 98.4545 93.4152 96.6818 94.7633C94.9091 96.1115 90.1364 92.8293 90.1364 92.8293L84.7091 88.1908L84.5127 88.0226L84.1991 88.5082C84.3587 88.5735 84.5144 88.6478 84.6654 88.7306C86.5151 89.7404 87.8878 91.4373 88.4836 93.4505C89.5991 97.1802 84.0327 96.8439 84.0327 96.8439Z" fill="black"/>
<path d="M82.3636 114.128C82.3636 114.128 87.5073 116.963 88.7564 115.373C89.0291 115.023 89.6046 114.872 90.3218 114.831C90.2046 114.473 90.1473 114.234 90.1473 114.234C90.1473 114.234 86.3155 112.829 82.7482 113.165C82.5136 113.751 82.3636 114.128 82.3636 114.128Z" fill="#444053"/>
<path d="M84.7309 88.028L90.3546 92.8401C90.3546 92.8401 95.1082 96.1331 96.9 94.7741C98.6918 93.4151 90.4609 86.4547 90.4609 86.4547C92.2785 87.2 93.9489 88.2598 95.3946 89.585L96.3737 90.4883C98.9482 92.8618 99.5291 92.8618 99.6164 96.3501C99.6382 97.21 99.3437 98.4442 99.1173 98.6667C98.2827 99.4804 97.6991 105.391 97.8273 106.083C97.9555 106.775 96.2727 112.745 96.8182 114.405C97.3637 116.065 90 113.575 88.7536 115.167C87.5073 116.759 82.3636 113.922 82.3636 113.922C82.3636 113.922 85.2136 106.661 85.9091 106.178C86.6046 105.695 87.4391 101.96 85.9091 100.232C84.3791 98.5039 84.2427 96.8438 84.2427 96.8438C84.2427 96.8438 89.8064 97.1856 88.6909 93.4558C88.3771 92.3748 87.8327 91.3737 87.0947 90.5208C86.3568 89.6679 85.4426 88.9833 84.4146 88.5135L84.7309 88.028Z" fill="#E8E8F0"/>
<path opacity="0.1" d="M92.2364 100.267C92.2364 100.267 90.0791 104.312 87.2891 105.361C87.1991 105.394 87.1118 105.424 87.0164 105.451C84.1037 106.332 92.4546 101.52 92.2364 100.267Z" fill="black"/>
<path d="M62.0673 64.4857C62.0673 64.4857 63.1091 67.1142 63.9437 68.0121C64.7782 68.9099 70.9637 77.8993 70.9637 77.8993L71.4873 78.9844L71.9373 79.9093L75.9 79.4943L76.1727 77.9048L76.02 77.7203C75.6218 77.2456 74.5364 75.9707 73.8082 75.4146C72.9055 74.7256 71.0973 72.4444 71.0973 72.4444C71.0973 72.4444 65.4682 66.6341 65.0509 65.0445C64.6337 63.4549 59.0018 53.923 57.7527 55.5722C56.5037 57.2215 62.0673 64.4857 62.0673 64.4857Z" fill="#FBBEBE"/>
<g opacity="0.1">
<path opacity="0.1" d="M73.5655 107.244C73.0898 107.203 72.6111 107.272 72.1664 107.445C71.1846 107.919 70.9992 109.202 70.4537 110.144C69.8155 111.245 68.5992 111.926 67.3473 112.178C67.0985 112.226 66.8472 112.26 66.5946 112.281C67.3919 112.358 68.1961 112.323 68.9837 112.178C70.2355 111.926 71.4519 111.245 72.0901 110.144C72.6355 109.202 72.821 107.919 73.8028 107.445C74.0606 107.329 74.3385 107.265 74.621 107.255L73.5655 107.244Z" fill="black"/>
<path opacity="0.1" d="M83.2528 86.4358C83.2528 84.2793 84.6628 82.4212 85.8246 80.601C86.9865 78.7809 87.9628 76.4834 87.0437 74.5303C86.2583 72.8621 81.5237 70.6242 78.791 71.0664C81.4665 71.4109 84.7637 73.1632 85.4074 74.5303C86.3265 76.4834 85.3501 78.7809 84.1883 80.601C83.0265 82.4212 81.611 84.2793 81.6165 86.4358C81.6165 89.2188 81.4283 91.3183 80.6592 94.0065C80.4383 94.7796 82.5683 95.9487 82.241 96.6811C81.1337 99.1224 81.6519 101.938 81.4746 104.607C81.471 105.129 81.3429 105.642 81.101 106.105C80.5555 106.997 79.4374 107.228 78.3492 107.276H79.301C80.5719 107.276 82.0801 107.179 82.7374 106.096C82.9793 105.634 83.1073 105.121 83.111 104.599C83.2883 101.93 82.7701 99.1115 83.8774 96.6729C84.2101 95.9406 82.0746 94.7742 82.2956 93.9984C83.0646 91.3292 83.2583 89.2188 83.2528 86.4358Z" fill="black"/>
</g>
<path opacity="0.1" d="M71.4873 78.9789L71.9373 79.9039L75.9 79.4889L76.1728 77.8993L76.02 77.7148C75.5973 77.921 72.4309 79.4373 71.4873 78.9789Z" fill="black"/>
<path opacity="0.1" d="M86.1191 89.3761C86.1191 89.3761 85.1455 87.8571 84.5891 88.2694C84.0328 88.6817 83.8173 87.0243 83.4982 87.301C83.1791 87.5777 82.2491 88.3481 81.8619 87.2712C81.5591 86.414 78.2646 80.9916 76.9282 78.8107C76.5846 78.2465 76.3691 77.8993 76.3691 77.8993C76.3691 77.8993 72.6164 79.7655 71.7137 79.1444V80.4572L72.4773 80.5278L76.5682 88.1229C76.5682 88.1229 77.8555 90.1601 77.7682 90.8707C77.681 91.5814 79.4182 94.6927 79.6964 94.8989C79.9746 95.1051 82.9691 98.5636 82.9691 98.5636C82.9691 98.5636 84.4991 106.031 83.1764 108.106C81.8537 110.181 79.5628 111.701 79.5628 111.701C79.5628 111.701 78.8728 113.705 78.9737 113.914C79.0746 114.123 78.1719 115.021 78.5891 115.297C79.0064 115.574 79.5628 117.508 79.5628 117.508C79.5628 117.508 81.51 114.397 82.5628 113.914C83.6155 113.431 84.9628 107.067 84.9628 107.067C84.9628 107.067 85.3473 103.319 85.3773 100.899C85.4073 98.4795 85.2846 89.3761 86.1191 89.3761Z" fill="black"/>
<path d="M85.9091 89.3761C85.9091 89.3761 84.9382 87.8571 84.3818 88.2694C83.8255 88.6817 83.6073 87.0243 83.2909 87.301C82.9746 87.5777 82.0446 88.3481 81.6546 87.2712C81.3491 86.414 78.0546 80.9916 76.7209 78.8107L76.1618 77.8993C76.1618 77.8993 72.4091 79.7655 71.5037 79.1444V80.4572L72.27 80.5278L76.3609 88.1229C76.3609 88.1229 77.6509 90.1601 77.5609 90.8707C77.4709 91.5814 79.1973 94.6927 79.4891 94.8989C79.7809 95.1051 82.7618 98.5636 82.7618 98.5636C82.7618 98.5636 84.2918 106.031 82.9718 108.106C82.2745 109.149 81.4263 110.083 80.4546 110.879C79.6383 111.548 79.0639 112.464 78.8182 113.488C78.7709 113.628 78.7541 113.776 78.7691 113.922C78.87 114.128 77.9673 115.029 78.3846 115.305C78.8018 115.582 79.3637 117.524 79.3637 117.524C79.3637 117.524 81.3109 114.413 82.3637 113.93C83.4164 113.447 84.7664 107.084 84.7664 107.084C84.7664 107.084 85.1482 103.335 85.1809 100.915C85.2137 98.4958 85.0909 89.3761 85.9091 89.3761Z" fill="#F86D70"/>
<path opacity="0.1" d="M76.3854 120.837C76.3854 120.837 79.3063 121.379 80.4763 122.217C81.6463 123.055 76.0281 120.904 76.0281 120.904L76.3854 120.837Z" fill="black"/>
<path opacity="0.1" d="M83.4082 128.198C83.4082 128.198 86.4546 130.724 85.9091 133.005C85.3637 135.286 83.9564 141.026 83.9564 141.026L83.4082 128.198Z" fill="black"/>
<path opacity="0.1" d="M56.7655 123.343C56.7655 123.343 52.4728 123.809 52.7509 124.363C53.0291 124.916 56.7655 123.853 56.7655 123.853V123.343Z" fill="black"/>
<path opacity="0.1" d="M89.7272 144.343C89.7272 144.343 89.9999 144.688 88.4072 144.343C86.8145 143.999 87.99 142.936 87.99 142.936L89.7272 144.343Z" fill="black"/>
<path opacity="0.1" d="M89.1819 149.115C89.1819 149.115 87 149.459 85.83 149.115C84.66 148.77 89.1819 149.115 89.1819 149.115Z" fill="black"/>
<path opacity="0.1" d="M84.6928 167.783C84.6928 167.783 84.311 167.368 82.3991 168.127C80.4873 168.887 79.7237 168.922 79.1673 168.67C78.611 168.417 84.6928 167.783 84.6928 167.783Z" fill="black"/>
<path opacity="0.1" d="M86.8145 122.754L84.1036 126.506C84.1036 126.506 85.5627 123.221 86.8145 122.754Z" fill="black"/>
<path opacity="0.1" d="M81.5454 88.2694C81.5454 88.2694 81.4282 89.5145 79.68 90C77.9318 90.4856 77.5991 90.8789 77.5991 90.8789" fill="black"/>
<path opacity="0.1" d="M77.0018 79.2448C77.0018 79.2448 74.6945 80.8723 72.2863 80.5278L77.0018 79.2448Z" fill="black"/>
<path opacity="0.1" d="M78.7582 114.093C78.7582 114.093 79.4318 114.513 81.0491 112.674L78.7582 114.093Z" fill="black"/>
<path opacity="0.1" d="M95.5555 94.5924C95.6209 94.256 95.3864 93.9441 95.1655 93.681L94.7127 93.1384C94.6243 93.0274 94.5247 92.9256 94.4155 92.8346C94.1427 92.6258 93.7936 92.5634 93.51 92.3762" fill="black"/>
<path opacity="0.1" d="M241.988 0.0298606C241.988 0.0298606 219.027 -1.34812 221.727 14.656C221.727 14.656 221.182 17.4852 223.767 18.7682C223.767 18.7682 223.808 17.5828 226.124 17.987C226.948 18.1229 227.785 18.163 228.619 18.1064C229.745 18.029 230.816 17.5891 231.668 16.8532C231.668 16.8532 238.124 14.2003 240.633 3.70809C240.633 3.70809 242.49 1.41869 242.416 0.830067L238.541 2.47659C238.541 2.47659 239.866 5.25697 238.814 7.56807C238.814 7.56807 238.688 2.57696 237.944 2.68546C237.794 2.70987 235.931 3.64842 235.931 3.64842C235.931 3.64842 238.208 8.49034 236.49 12.0112C236.49 12.0112 237.142 6.04361 235.219 3.99834L232.492 5.58247C232.492 5.58247 235.154 10.5844 233.348 14.6668C233.348 14.6668 233.812 8.40625 231.916 5.96766L229.445 7.88544C229.445 7.88544 231.946 12.8169 230.422 16.2021C230.422 16.2021 230.223 8.9135 228.911 8.36285C228.911 8.36285 226.748 10.2616 226.418 11.0374C226.418 11.0374 228.131 14.618 227.067 16.506C227.067 16.506 226.415 11.6505 225.881 11.6233C225.881 11.6233 223.726 14.8404 223.503 17.0485C223.503 17.0485 223.595 13.769 225.36 11.3195C225.36 11.3195 223.276 11.6749 222.06 13.0176C222.06 13.0176 222.395 10.7445 225.892 10.5465C225.892 10.5465 227.673 8.10516 228.147 7.95597C228.147 7.95597 224.673 7.66843 222.565 8.59613C222.565 8.59613 224.419 6.45049 228.785 7.42701L231.226 5.44413C231.226 5.44413 226.65 4.82296 224.708 5.50923C224.708 5.50923 226.942 3.61044 231.884 4.99384L234.54 3.41514C234.54 3.41514 230.637 2.57967 228.314 2.87262C228.314 2.87262 230.768 1.55703 235.32 2.98384L237.229 2.13481C237.229 2.13481 234.371 1.57602 233.534 1.48651C232.696 1.39699 232.653 1.16914 232.653 1.16914C234.464 0.868817 236.323 1.07447 238.023 1.76319C238.023 1.76319 242.059 0.282129 241.988 0.0298606Z" fill="#8138D9"/>
<path opacity="0.1" d="M213.668 4.1014C213.668 4.1014 203.305 3.47751 204.518 10.7092C204.518 10.7092 204.275 11.9895 205.437 12.57C205.437 12.57 205.456 12.0275 206.504 12.2147C206.876 12.2769 207.254 12.2951 207.63 12.2689C208.139 12.2345 208.623 12.0354 209.007 11.702C209.007 11.702 211.926 10.5058 213.06 5.7642C213.06 5.7642 213.897 4.728 213.865 4.46217L212.114 5.20541C212.114 5.20541 212.714 6.46404 212.242 7.50838C212.242 7.50838 212.185 5.25153 211.849 5.30578C211.781 5.30578 210.938 5.73978 210.938 5.73978C210.938 5.73978 211.969 7.92882 211.192 9.52109C211.192 9.52109 211.486 6.82481 210.616 5.89983L209.384 6.61594C209.384 6.61594 210.589 8.8755 209.771 10.72C209.771 10.72 209.981 7.89085 209.125 6.78955L208.009 7.6657C208.009 7.6657 209.138 9.89543 208.451 11.4226C208.451 11.4226 208.361 8.12955 207.766 7.88271C207.766 7.88271 206.79 8.73988 206.64 9.09251C206.64 9.09251 207.415 10.72 206.935 11.5609C206.935 11.5609 206.64 9.36648 206.389 9.35834C206.389 9.35834 205.418 10.8123 205.315 11.7996C205.363 10.8782 205.653 9.98526 206.155 9.20915C205.593 9.315 205.074 9.58182 204.663 9.97681C204.663 9.97681 204.815 8.95146 206.395 8.85923C206.395 8.85923 207.213 7.75793 207.415 7.69012C207.415 7.69012 205.844 7.55992 204.892 7.98036C204.892 7.98036 205.729 7.00927 207.704 7.43785L208.795 6.5427C208.795 6.5427 206.727 6.27145 205.849 6.57254C205.849 6.57254 206.858 5.71537 209.092 6.33926L210.292 5.62586C210.292 5.62586 208.53 5.2461 207.477 5.38444C207.477 5.38444 208.587 4.78768 210.644 5.43327L211.503 5.0508C211.503 5.0508 210.21 4.79582 209.831 4.75784C209.452 4.71986 209.433 4.61407 209.433 4.61407C210.251 4.47861 211.092 4.57254 211.86 4.88533C211.86 4.88533 213.701 4.21533 213.668 4.1014Z" fill="#8138D9"/>
<path d="M249.87 176.523C255.927 176.523 260.836 175.697 260.836 174.678C260.836 173.659 255.927 172.833 249.87 172.833C243.813 172.833 238.904 173.659 238.904 174.678C238.904 175.697 243.813 176.523 249.87 176.523Z" fill="#8138D9"/>
<path d="M254.405 171.662C254.906 171.256 255.271 170.708 255.45 170.091C255.586 169.47 255.319 168.735 254.719 168.493C254.048 168.238 253.331 168.702 252.788 169.169C252.245 169.635 251.621 170.17 250.912 170.069C251.277 169.739 251.551 169.321 251.705 168.854C251.86 168.388 251.891 167.89 251.795 167.408C251.764 167.209 251.68 167.021 251.55 166.866C251.176 166.47 250.503 166.638 250.055 166.95C248.637 167.943 248.242 169.861 248.234 171.583C248.092 170.962 248.212 170.314 248.209 169.684C248.206 169.055 248.029 168.328 247.486 167.994C247.152 167.815 246.775 167.727 246.395 167.739C245.76 167.715 245.048 167.78 244.615 168.244C244.069 168.819 244.214 169.785 244.683 170.414C245.152 171.043 245.869 171.447 246.529 171.884C247.057 172.197 247.507 172.625 247.846 173.135C247.887 173.206 247.92 173.281 247.945 173.36H251.943C252.837 172.907 253.665 172.336 254.405 171.662Z" fill="#8138D9"/>
</g>
<defs>
<linearGradient id="paint0_linear" x1="220.503" y1="136.965" x2="220.503" y2="27.8391" gradientUnits="userSpaceOnUse">
<stop stop-color="#808080" stop-opacity="0.25"/>
<stop offset="0.54" stop-color="#808080" stop-opacity="0.12"/>
<stop offset="1" stop-color="#808080" stop-opacity="0.1"/>
</linearGradient>
<linearGradient id="paint1_linear" x1="10868.6" y1="67972.6" x2="24339" y2="67972.6" gradientUnits="userSpaceOnUse">
<stop stop-color="#808080" stop-opacity="0.25"/>
<stop offset="0.54" stop-color="#808080" stop-opacity="0.12"/>
<stop offset="1" stop-color="#808080" stop-opacity="0.1"/>
</linearGradient>
<clipPath id="clip0">
<rect width="312" height="177" fill="white"/>
</clipPath>
</defs>
</svg>
