<svg width="177" height="183" viewBox="0 0 177 183" fill="none" xmlns="http://www.w3.org/2000/svg">
<path d="M54.8137 168.456L49.6435 169.182L43.4151 112.055L33.4718 168.94L28.1364 169.182V97.0469H61.1192L54.8137 168.456Z" fill="#0B4870"/>
<path d="M30.8215 179.972C31.6331 179.995 32.429 179.746 33.0826 179.266C33.7362 178.785 34.2098 178.1 34.4281 177.319L34.8057 171.694L34.0444 167.705C32.0358 166.057 30.0052 166.092 27.954 167.705L27.2999 176.061C27.2616 176.551 27.3234 177.044 27.4817 177.51C27.64 177.975 27.8914 178.404 28.2207 178.77C28.5501 179.136 28.9504 179.431 29.3975 179.637C29.8446 179.844 30.3291 179.958 30.8215 179.972V179.972Z" fill="#2F2E41"/>
<path d="M52.1633 179.972C52.9749 179.995 53.7708 179.746 54.4244 179.266C55.078 178.785 55.5516 178.1 55.7699 177.319L56.1475 171.694L55.3862 167.705C53.3776 166.057 51.347 166.092 49.2958 167.705L48.6417 176.061C48.6034 176.551 48.6652 177.044 48.8235 177.51C48.9818 177.975 49.2332 178.404 49.5625 178.77C49.8919 179.136 50.2922 179.431 50.7393 179.637C51.1864 179.844 51.6709 179.958 52.1633 179.972V179.972Z" fill="#2F2E41"/>
<path d="M39.7772 34.0306C39.7772 34.0306 40.2348 40.2275 40.0262 40.5918C39.8176 40.9562 43.6902 47.5021 43.6902 47.5021L49.8815 41.8076C49.8815 41.8076 49.5065 33.9305 49.9054 33.5752C50.3042 33.2198 39.7772 34.0306 39.7772 34.0306Z" fill="#FFE3CA"/>
<path d="M62.5743 98.2572H27.4088C31.9666 77.174 31.9539 60.1939 28.3233 46.4614C28.0921 45.5872 28.1924 44.6584 28.605 43.8534C29.0176 43.0484 29.7135 42.4238 30.5591 42.0994L40.0199 38.4675C42.8602 42.1287 46.8683 43.7278 53.116 41.3723L58.0736 42.3873C59.2808 42.633 60.3579 43.307 61.1054 44.2845C61.8529 45.2619 62.2202 46.4767 62.1392 47.7037C61.7743 53.0745 61.9181 58.4863 61.6042 63.158C60.6321 77.6248 60.2122 88.9028 62.5743 98.2572Z" fill="#9F65E3"/>
<path d="M27.298 98.7258H62.4635C57.9057 77.6426 57.9184 60.6625 61.549 46.9301C61.7802 46.0558 61.6799 45.1271 61.2673 44.322C60.8547 43.517 60.1588 42.8924 59.3132 42.568L49.8524 38.9362C47.0121 42.5973 43.004 44.1964 36.7563 41.8409L31.7987 42.8559C30.5915 43.1016 29.5144 43.7756 28.7669 44.7531C28.0194 45.7306 27.6522 46.9453 27.7332 48.1723C28.098 53.5431 27.9542 58.9549 28.2681 63.6266C29.2402 78.0934 29.6601 89.3714 27.298 98.7258Z" fill="#9F65E3"/>
<path d="M64.272 92.9318L61.1588 97.0966C60.8345 97.5303 60.5999 98.0241 60.4687 98.5492C60.3374 99.0743 60.3121 99.6203 60.3942 100.155C60.4763 100.69 60.6641 101.204 60.9468 101.665C61.2295 102.127 61.6014 102.528 62.0409 102.845C62.6068 103.254 63.268 103.51 63.9616 103.591C64.6551 103.672 65.3579 103.575 66.0029 103.308C66.6479 103.041 67.2137 102.613 67.6463 102.066C68.0789 101.519 68.364 100.87 68.4743 100.182L69.3649 94.6262L71.0626 70.6619L69.85 58.5588L62.0893 61.4635L64.272 71.8723V92.9318Z" fill="#FFE3CA"/>
<path d="M61.1192 64.3683L70.5775 60.0111L70.0924 56.5815C70.0924 53.7421 69.2323 50.969 67.625 48.6262C66.0176 46.2835 63.7382 44.4805 61.0858 43.4539L58.2089 42.3405L61.1192 64.3683Z" fill="#9F65E3"/>
<path d="M26.6813 91.9635L29.7945 96.1283C30.1187 96.5621 30.3533 97.0559 30.4846 97.581C30.6158 98.1061 30.6412 98.652 30.5591 99.187C30.477 99.7219 30.2891 100.235 30.0064 100.697C29.7237 101.159 29.3518 101.56 28.9124 101.877V101.877C28.3465 102.285 27.6852 102.542 26.9917 102.623C26.2981 102.704 25.5953 102.606 24.9503 102.339C24.3053 102.072 23.7396 101.645 23.307 101.098C22.8743 100.551 22.5893 99.9021 22.479 99.2139L21.5883 93.658L19.8907 69.6937L21.1033 57.5905L28.8639 60.4953L26.6813 70.904V91.9635Z" fill="#FFE3CA"/>
<path d="M29.834 63.4001L20.3757 59.0429L20.8608 55.6133C20.8608 52.7739 21.7209 50.0008 23.3282 47.658C24.9356 45.3153 27.215 43.5123 29.8674 42.4857L32.7443 41.3723L29.834 63.4001Z" fill="#9F65E3"/>
<path d="M58 26.9583C58 34.6677 52.1795 45 45 45C37.8205 45 32 34.6677 32 26.9583C32 19.2488 37.8205 13 45 13C52.1795 12.9972 58 19.2488 58 26.9583Z" fill="#FFE3CA"/>
<path d="M39.1351 15.7959C39.3278 20.0163 42.6388 23.724 46.6663 25.9229C50.6938 28.1218 55.3944 29.0791 60 30C59.1451 26.4089 58.2332 22.7619 56.1977 19.5741C54.1623 16.3887 50.7997 13.6772 46.7477 13.1135C44.3432 12.7806 41.8789 13.218 39.5829 13.9323C37.371 14.6223 35.1781 15.6282 33.7777 17.3096C31.3705 20.201 31.8997 24.2051 32.5402 27.7647C35.1781 24.9268 38.4675 22.5748 42.1422 20.8983" fill="#0B4870"/>
</svg>
