<svg width="35" height="261" viewBox="0 0 35 261" fill="none" xmlns="http://www.w3.org/2000/svg">
<path d="M30.7115 260.906H3.47173C2.5513 260.905 1.66887 260.539 1.01802 259.887C0.367177 259.236 0.00106444 258.352 0 257.431V3.47518C0.00106444 2.55384 0.367177 1.67053 1.01802 1.01903C1.66887 0.367541 2.5513 0.0010655 3.47173 0H30.7115C31.6319 0.0010655 32.5144 0.367541 33.1652 1.01903C33.8161 1.67053 34.1822 2.55384 34.1832 3.47518V257.431C34.1822 258.352 33.8161 259.236 33.1652 259.887C32.5144 260.539 31.6319 260.905 30.7115 260.906Z" fill="#8138D9"/>
<path d="M24.9543 10H0.0456858C0.0335569 9.99962 0.0219364 9.94676 0.0133723 9.85303C0.00480829 9.75931 0 9.63236 0 9.5C0 9.36764 0.00480829 9.24067 0.0133723 9.14694C0.0219364 9.05321 0.0335569 9.00038 0.0456858 9H24.9543C24.9664 9.00038 24.9781 9.05321 24.9866 9.14694C24.9952 9.24067 25 9.36764 25 9.5C25 9.63236 24.9952 9.75931 24.9866 9.85303C24.9781 9.94676 24.9664 9.99962 24.9543 10Z" fill="white"/>
<path d="M24.9543 64H0.0456858C0.0335569 63.9996 0.0219364 63.9468 0.0133723 63.853C0.00480829 63.7593 0 63.6324 0 63.5C0 63.3676 0.00480829 63.2407 0.0133723 63.1469C0.0219364 63.0532 0.0335569 63.0004 0.0456858 63H24.9543C24.9664 63.0004 24.9781 63.0532 24.9866 63.1469C24.9952 63.2407 25 63.3676 25 63.5C25 63.6324 24.9952 63.7593 24.9866 63.853C24.9781 63.9468 24.9664 63.9996 24.9543 64Z" fill="white"/>
<path d="M24.9543 28H0.0456858C0.0335569 27.9996 0.0219364 27.9468 0.0133723 27.853C0.00480829 27.7593 0 27.6324 0 27.5C0 27.3676 0.00480829 27.2407 0.0133723 27.1469C0.0219364 27.0532 0.0335569 27.0004 0.0456858 27H24.9543C24.9664 27.0004 24.9781 27.0532 24.9866 27.1469C24.9952 27.2407 25 27.3676 25 27.5C25 27.6324 24.9952 27.7593 24.9866 27.853C24.9781 27.9468 24.9664 27.9996 24.9543 28Z" fill="white"/>
<path d="M24.9543 82H0.0456858C0.0335569 81.9996 0.0219364 81.9468 0.0133723 81.853C0.00480829 81.7593 0 81.6324 0 81.5C0 81.3676 0.00480829 81.2407 0.0133723 81.1469C0.0219364 81.0532 0.0335569 81.0004 0.0456858 81H24.9543C24.9664 81.0004 24.9781 81.0532 24.9866 81.1469C24.9952 81.2407 25 81.3676 25 81.5C25 81.6324 24.9952 81.7593 24.9866 81.853C24.9781 81.9468 24.9664 81.9996 24.9543 82Z" fill="white"/>
<path d="M24.9543 46H0.0456858C0.0335569 45.9996 0.0219364 45.9468 0.0133723 45.853C0.00480829 45.7593 0 45.6324 0 45.5C0 45.3676 0.00480829 45.2407 0.0133723 45.1469C0.0219364 45.0532 0.0335569 45.0004 0.0456858 45H24.9543C24.9664 45.0004 24.9781 45.0532 24.9866 45.1469C24.9952 45.2407 25 45.3676 25 45.5C25 45.6324 24.9952 45.7593 24.9866 45.853C24.9781 45.9468 24.9664 45.9996 24.9543 46Z" fill="white"/>
<path d="M24.9543 100H0.0456858C0.0335569 99.9996 0.0219364 99.9468 0.0133723 99.853C0.00480829 99.7593 0 99.6324 0 99.5C0 99.3676 0.00480829 99.2407 0.0133723 99.1469C0.0219364 99.0532 0.0335569 99.0004 0.0456858 99H24.9543C24.9664 99.0004 24.9781 99.0532 24.9866 99.1469C24.9952 99.2407 25 99.3676 25 99.5C25 99.6324 24.9952 99.7593 24.9866 99.853C24.9781 99.9468 24.9664 99.9996 24.9543 100Z" fill="white"/>
<path d="M24.9543 19H0.0456858C0.0335569 18.9996 0.0219364 18.9468 0.0133723 18.853C0.00480829 18.7593 0 18.6324 0 18.5C0 18.3676 0.00480829 18.2407 0.0133723 18.1469C0.0219364 18.0532 0.0335569 18.0004 0.0456858 18H24.9543C24.9664 18.0004 24.9781 18.0532 24.9866 18.1469C24.9952 18.2407 25 18.3676 25 18.5C25 18.6324 24.9952 18.7593 24.9866 18.853C24.9781 18.9468 24.9664 18.9996 24.9543 19Z" fill="white"/>
<path d="M24.9543 73H0.0456858C0.0335569 72.9996 0.0219364 72.9468 0.0133723 72.853C0.00480829 72.7593 0 72.6324 0 72.5C0 72.3676 0.00480829 72.2407 0.0133723 72.1469C0.0219364 72.0532 0.0335569 72.0004 0.0456858 72H24.9543C24.9664 72.0004 24.9781 72.0532 24.9866 72.1469C24.9952 72.2407 25 72.3676 25 72.5C25 72.6324 24.9952 72.7593 24.9866 72.853C24.9781 72.9468 24.9664 72.9996 24.9543 73Z" fill="white"/>
<path d="M24.9543 37H0.0456858C0.0335569 36.9996 0.0219364 36.9468 0.0133723 36.853C0.00480829 36.7593 0 36.6324 0 36.5C0 36.3676 0.00480829 36.2407 0.0133723 36.1469C0.0219364 36.0532 0.0335569 36.0004 0.0456858 36H24.9543C24.9664 36.0004 24.9781 36.0532 24.9866 36.1469C24.9952 36.2407 25 36.3676 25 36.5C25 36.6324 24.9952 36.7593 24.9866 36.853C24.9781 36.9468 24.9664 36.9996 24.9543 37Z" fill="white"/>
<path d="M24.9543 91H0.0456858C0.0335569 90.9996 0.0219364 90.9468 0.0133723 90.853C0.00480829 90.7593 0 90.6324 0 90.5C0 90.3676 0.00480829 90.2407 0.0133723 90.1469C0.0219364 90.0532 0.0335569 90.0004 0.0456858 90H24.9543C24.9664 90.0004 24.9781 90.0532 24.9866 90.1469C24.9952 90.2407 25 90.3676 25 90.5C25 90.6324 24.9952 90.7593 24.9866 90.853C24.9781 90.9468 24.9664 90.9996 24.9543 91Z" fill="white"/>
<path d="M24.9543 55H0.0456858C0.0335569 54.9996 0.0219364 54.9468 0.0133723 54.853C0.00480829 54.7593 0 54.6324 0 54.5C0 54.3676 0.00480829 54.2407 0.0133723 54.1469C0.0219364 54.0532 0.0335569 54.0004 0.0456858 54H24.9543C24.9664 54.0004 24.9781 54.0532 24.9866 54.1469C24.9952 54.2407 25 54.3676 25 54.5C25 54.6324 24.9952 54.7593 24.9866 54.853C24.9781 54.9468 24.9664 54.9996 24.9543 55Z" fill="white"/>
<path d="M24.9543 109H0.0456858C0.0335569 109 0.0219364 108.947 0.0133723 108.853C0.00480829 108.759 0 108.632 0 108.5C0 108.368 0.00480829 108.241 0.0133723 108.147C0.0219364 108.053 0.0335569 108 0.0456858 108H24.9543C24.9664 108 24.9781 108.053 24.9866 108.147C24.9952 108.241 25 108.368 25 108.5C25 108.632 24.9952 108.759 24.9866 108.853C24.9781 108.947 24.9664 109 24.9543 109Z" fill="white"/>
<path d="M24.9543 118H0.0456858C0.0335569 118 0.0219364 117.947 0.0133723 117.853C0.00480829 117.759 0 117.632 0 117.5C0 117.368 0.00480829 117.241 0.0133723 117.147C0.0219364 117.053 0.0335569 117 0.0456858 117H24.9543C24.9664 117 24.9781 117.053 24.9866 117.147C24.9952 117.241 25 117.368 25 117.5C25 117.632 24.9952 117.759 24.9866 117.853C24.9781 117.947 24.9664 118 24.9543 118Z" fill="white"/>
<path d="M24.9543 172H0.0456858C0.0335569 172 0.0219364 171.947 0.0133723 171.853C0.00480829 171.759 0 171.632 0 171.5C0 171.368 0.00480829 171.241 0.0133723 171.147C0.0219364 171.053 0.0335569 171 0.0456858 171H24.9543C24.9664 171 24.9781 171.053 24.9866 171.147C24.9952 171.241 25 171.368 25 171.5C25 171.632 24.9952 171.759 24.9866 171.853C24.9781 171.947 24.9664 172 24.9543 172Z" fill="white"/>
<path d="M24.9543 136H0.0456858C0.0335569 136 0.0219364 135.947 0.0133723 135.853C0.00480829 135.759 0 135.632 0 135.5C0 135.368 0.00480829 135.241 0.0133723 135.147C0.0219364 135.053 0.0335569 135 0.0456858 135H24.9543C24.9664 135 24.9781 135.053 24.9866 135.147C24.9952 135.241 25 135.368 25 135.5C25 135.632 24.9952 135.759 24.9866 135.853C24.9781 135.947 24.9664 136 24.9543 136Z" fill="white"/>
<path d="M24.9543 190H0.0456858C0.0335569 190 0.0219364 189.947 0.0133723 189.853C0.00480829 189.759 0 189.632 0 189.5C0 189.368 0.00480829 189.241 0.0133723 189.147C0.0219364 189.053 0.0335569 189 0.0456858 189H24.9543C24.9664 189 24.9781 189.053 24.9866 189.147C24.9952 189.241 25 189.368 25 189.5C25 189.632 24.9952 189.759 24.9866 189.853C24.9781 189.947 24.9664 190 24.9543 190Z" fill="white"/>
<path d="M24.9543 226H0.0456858C0.0335569 226 0.0219364 225.947 0.0133723 225.853C0.00480829 225.759 0 225.632 0 225.5C0 225.368 0.00480829 225.241 0.0133723 225.147C0.0219364 225.053 0.0335569 225 0.0456858 225H24.9543C24.9664 225 24.9781 225.053 24.9866 225.147C24.9952 225.241 25 225.368 25 225.5C25 225.632 24.9952 225.759 24.9866 225.853C24.9781 225.947 24.9664 226 24.9543 226Z" fill="white"/>
<path d="M24.9543 154H0.0456858C0.0335569 154 0.0219364 153.947 0.0133723 153.853C0.00480829 153.759 0 153.632 0 153.5C0 153.368 0.00480829 153.241 0.0133723 153.147C0.0219364 153.053 0.0335569 153 0.0456858 153H24.9543C24.9664 153 24.9781 153.053 24.9866 153.147C24.9952 153.241 25 153.368 25 153.5C25 153.632 24.9952 153.759 24.9866 153.853C24.9781 153.947 24.9664 154 24.9543 154Z" fill="white"/>
<path d="M24.9543 208H0.0456858C0.0335569 208 0.0219364 207.947 0.0133723 207.853C0.00480829 207.759 0 207.632 0 207.5C0 207.368 0.00480829 207.241 0.0133723 207.147C0.0219364 207.053 0.0335569 207 0.0456858 207H24.9543C24.9664 207 24.9781 207.053 24.9866 207.147C24.9952 207.241 25 207.368 25 207.5C25 207.632 24.9952 207.759 24.9866 207.853C24.9781 207.947 24.9664 208 24.9543 208Z" fill="white"/>
<path d="M24.9543 244H0.0456858C0.0335569 244 0.0219364 243.947 0.0133723 243.853C0.00480829 243.759 0 243.632 0 243.5C0 243.368 0.00480829 243.241 0.0133723 243.147C0.0219364 243.053 0.0335569 243 0.0456858 243H24.9543C24.9664 243 24.9781 243.053 24.9866 243.147C24.9952 243.241 25 243.368 25 243.5C25 243.632 24.9952 243.759 24.9866 243.853C24.9781 243.947 24.9664 244 24.9543 244Z" fill="white"/>
<path d="M24.9543 127H0.0456858C0.0335569 127 0.0219364 126.947 0.0133723 126.853C0.00480829 126.759 0 126.632 0 126.5C0 126.368 0.00480829 126.241 0.0133723 126.147C0.0219364 126.053 0.0335569 126 0.0456858 126H24.9543C24.9664 126 24.9781 126.053 24.9866 126.147C24.9952 126.241 25 126.368 25 126.5C25 126.632 24.9952 126.759 24.9866 126.853C24.9781 126.947 24.9664 127 24.9543 127Z" fill="white"/>
<path d="M24.9543 181H0.0456858C0.0335569 181 0.0219364 180.947 0.0133723 180.853C0.00480829 180.759 0 180.632 0 180.5C0 180.368 0.00480829 180.241 0.0133723 180.147C0.0219364 180.053 0.0335569 180 0.0456858 180H24.9543C24.9664 180 24.9781 180.053 24.9866 180.147C24.9952 180.241 25 180.368 25 180.5C25 180.632 24.9952 180.759 24.9866 180.853C24.9781 180.947 24.9664 181 24.9543 181Z" fill="white"/>
<path d="M24.9543 145H0.0456858C0.0335569 145 0.0219364 144.947 0.0133723 144.853C0.00480829 144.759 0 144.632 0 144.5C0 144.368 0.00480829 144.241 0.0133723 144.147C0.0219364 144.053 0.0335569 144 0.0456858 144H24.9543C24.9664 144 24.9781 144.053 24.9866 144.147C24.9952 144.241 25 144.368 25 144.5C25 144.632 24.9952 144.759 24.9866 144.853C24.9781 144.947 24.9664 145 24.9543 145Z" fill="white"/>
<path d="M24.9543 199H0.0456858C0.0335569 199 0.0219364 198.947 0.0133723 198.853C0.00480829 198.759 0 198.632 0 198.5C0 198.368 0.00480829 198.241 0.0133723 198.147C0.0219364 198.053 0.0335569 198 0.0456858 198H24.9543C24.9664 198 24.9781 198.053 24.9866 198.147C24.9952 198.241 25 198.368 25 198.5C25 198.632 24.9952 198.759 24.9866 198.853C24.9781 198.947 24.9664 199 24.9543 199Z" fill="white"/>
<path d="M24.9543 235H0.0456858C0.0335569 235 0.0219364 234.947 0.0133723 234.853C0.00480829 234.759 0 234.632 0 234.5C0 234.368 0.00480829 234.241 0.0133723 234.147C0.0219364 234.053 0.0335569 234 0.0456858 234H24.9543C24.9664 234 24.9781 234.053 24.9866 234.147C24.9952 234.241 25 234.368 25 234.5C25 234.632 24.9952 234.759 24.9866 234.853C24.9781 234.947 24.9664 235 24.9543 235Z" fill="white"/>
<path d="M24.9543 163H0.0456858C0.0335569 163 0.0219364 162.947 0.0133723 162.853C0.00480829 162.759 0 162.632 0 162.5C0 162.368 0.00480829 162.241 0.0133723 162.147C0.0219364 162.053 0.0335569 162 0.0456858 162H24.9543C24.9664 162 24.9781 162.053 24.9866 162.147C24.9952 162.241 25 162.368 25 162.5C25 162.632 24.9952 162.759 24.9866 162.853C24.9781 162.947 24.9664 163 24.9543 163Z" fill="white"/>
<path d="M24.9543 217H0.0456858C0.0335569 217 0.0219364 216.947 0.0133723 216.853C0.00480829 216.759 0 216.632 0 216.5C0 216.368 0.00480829 216.241 0.0133723 216.147C0.0219364 216.053 0.0335569 216 0.0456858 216H24.9543C24.9664 216 24.9781 216.053 24.9866 216.147C24.9952 216.241 25 216.368 25 216.5C25 216.632 24.9952 216.759 24.9866 216.853C24.9781 216.947 24.9664 217 24.9543 217Z" fill="white"/>
<path d="M24.9543 253H0.0456858C0.0335569 253 0.0219364 252.947 0.0133723 252.853C0.00480829 252.759 0 252.632 0 252.5C0 252.368 0.00480829 252.241 0.0133723 252.147C0.0219364 252.053 0.0335569 252 0.0456858 252H24.9543C24.9664 252 24.9781 252.053 24.9866 252.147C24.9952 252.241 25 252.368 25 252.5C25 252.632 24.9952 252.759 24.9866 252.853C24.9781 252.947 24.9664 253 24.9543 253Z" fill="white"/>
</svg>
