<svg width="303" height="265" viewBox="0 0 303 265" fill="none" xmlns="http://www.w3.org/2000/svg">
<path d="M126.5 265C169.854 265 205 261.642 205 257.5C205 253.358 169.854 250 126.5 250C83.1456 250 48 253.358 48 257.5C48 261.642 83.1456 265 126.5 265Z" fill="#E6E6E6"/>
<path d="M104.279 246.323L97.65 247.255L89.6644 173.896L76.9157 246.944L70.0748 247.255V154.623H112.364L104.279 246.323Z" fill="#0B4870"/>
<path d="M73.5176 261.111C74.5581 261.141 75.5786 260.822 76.4166 260.204C77.2546 259.587 77.8619 258.707 78.1417 257.705L78.6259 250.482L77.6498 245.359C75.0744 243.243 72.4709 243.287 69.841 245.359L69.0024 256.089C68.9532 256.719 69.0325 257.352 69.2354 257.95C69.4384 258.548 69.7608 259.098 70.183 259.568C70.6053 260.037 71.1186 260.416 71.6918 260.682C72.265 260.947 72.8862 261.093 73.5176 261.111Z" fill="#2F2E41"/>
<path d="M100.881 261.111C101.921 261.141 102.942 260.822 103.78 260.204C104.618 259.587 105.225 258.707 105.505 257.705L105.989 250.482L105.013 245.359C102.438 243.243 99.8341 243.287 97.2042 245.359L96.3656 256.089C96.3164 256.719 96.3957 257.352 96.5986 257.95C96.8016 258.548 97.124 259.098 97.5462 259.568C97.9685 260.037 98.4818 260.416 99.055 260.682C99.6282 260.947 100.249 261.093 100.881 261.111Z" fill="#2F2E41"/>
<path d="M92 79C99.732 79 106 72.732 106 65C106 57.268 99.732 51 92 51C84.268 51 78 57.268 78 65C78 72.732 84.268 79 92 79Z" fill="#FFE3CA"/>
<path d="M85 73.7005C85 73.7005 85.5868 81.6582 85.3193 82.1261C85.0518 82.594 90.0171 91 90.0171 91L97.9552 83.6874C97.9552 83.6874 97.4744 73.572 97.9858 73.1157C98.4972 72.6593 85 73.7005 85 73.7005Z" fill="#FFE3CA"/>
<path d="M114.229 156.177H69.142C74.9858 129.103 74.9694 107.298 70.3146 89.6636C70.0181 88.5409 70.1467 87.3483 70.6757 86.3145C71.2048 85.2807 72.097 84.4787 73.1812 84.0621L85.3112 79.3982C88.9529 84.0997 94.0919 86.1532 102.102 83.1283L108.459 84.4318C110.006 84.7473 111.387 85.6128 112.346 86.868C113.304 88.1233 113.775 89.6832 113.671 91.2589C113.203 98.1557 113.388 105.105 112.985 111.105C111.739 129.682 111.201 144.165 114.229 156.177Z" fill="#9F65E3"/>
<path d="M69 156.779H114.087C108.243 129.705 108.26 107.9 112.915 90.2654C113.211 89.1427 113.082 87.9501 112.553 86.9163C112.024 85.8826 111.132 85.0805 110.048 84.6639L97.918 80C94.2763 84.7015 89.1373 86.755 81.1269 83.7302L74.7705 85.0336C73.2227 85.3491 71.8417 86.2146 70.8833 87.4698C69.9249 88.7251 69.4541 90.285 69.5579 91.8607C70.0257 98.7575 69.8413 105.707 70.2438 111.706C71.4902 130.284 72.0285 144.767 69 156.779Z" fill="#9F65E3"/>
<path d="M116.406 149.339L112.414 154.687C111.999 155.244 111.698 155.878 111.529 156.552C111.361 157.227 111.329 157.928 111.434 158.615C111.539 159.302 111.78 159.961 112.143 160.554C112.505 161.147 112.982 161.662 113.545 162.069C114.271 162.593 115.119 162.923 116.008 163.027C116.897 163.131 117.798 163.006 118.625 162.663C119.452 162.32 120.178 161.771 120.732 161.068C121.287 160.366 121.652 159.533 121.794 158.649L122.936 151.515L125.112 120.741L123.558 105.198L113.607 108.929L116.406 122.295V149.339Z" fill="#FFE3CA"/>
<path d="M112.364 112.659L124.49 107.064L123.869 102.659C123.869 99.0131 122.766 95.4521 120.705 92.4436C118.644 89.4351 115.722 87.1198 112.321 85.8016L108.632 84.3718L112.364 112.659Z" fill="#9F65E3"/>
<path d="M68.2092 148.095L72.2008 153.443C72.6165 154.001 72.9173 154.635 73.0856 155.309C73.2539 155.983 73.2864 156.684 73.1811 157.371C73.0759 158.058 72.8351 158.717 72.4726 159.311C72.1101 159.904 71.6333 160.419 71.0699 160.826C70.3443 161.35 69.4965 161.68 68.6072 161.784C67.718 161.888 66.8169 161.762 65.9899 161.419C65.1629 161.076 64.4376 160.528 63.8829 159.825C63.3282 159.123 62.9627 158.29 62.8213 157.406L61.6794 150.271L59.5027 119.497L61.0575 103.955L71.0077 107.685L68.2092 121.052V148.095Z" fill="#FFE3CA"/>
<path d="M72.2515 111.415L60.1246 105.82L60.7465 101.416C60.7465 97.7697 61.8493 94.2086 63.9102 91.2002C65.971 88.1917 68.8936 85.8764 72.2943 84.5582L75.9829 83.1284L72.2515 111.415Z" fill="#9F65E3"/>
<path d="M81.5431 50.842L79.0021 49.7764C79.0021 49.7764 84.6714 44.6292 92.1729 45.4631L90.1589 43.2444C90.1589 43.2444 95.4227 41.6132 99.8868 46.7786C102.233 49.494 104.946 52.6835 106.563 56.207L109.333 56.3408L108.065 58.5973L112 61.1051L107.867 60.4891C108.164 62.5044 107.929 64.5624 107.185 66.4588L106.119 69C106.119 69 102.721 61.2933 102.766 60.3527L102.653 62.7042C102.653 62.7042 100.168 60.4629 100.237 59.052L98.7463 60.6299L98.1659 58.0091L89.341 60.1754L90.854 58.1272L85.4119 58.5714L87.6531 56.0869C87.6531 56.0869 81.392 58.8485 81.0319 61.4239C80.6719 63.9992 77.4561 67.1436 77.4561 67.1436L76.1589 64.7239C76.1589 64.7239 74.5539 54.0398 81.5431 50.842Z" fill="#0B4870"/>
<path d="M30.7115 260.906H3.47173C2.5513 260.905 1.66887 260.539 1.01802 259.887C0.367177 259.236 0.00106444 258.352 0 257.431V3.47518C0.00106444 2.55384 0.367177 1.67053 1.01802 1.01903C1.66887 0.367541 2.5513 0.0010655 3.47173 0H30.7115C31.6319 0.0010655 32.5144 0.367541 33.1652 1.01903C33.8161 1.67053 34.1822 2.55384 34.1832 3.47518V257.431C34.1822 258.352 33.8161 259.236 33.1652 259.887C32.5144 260.539 31.6319 260.905 30.7115 260.906Z" fill="#8138D9"/>
<path d="M24.9543 10H0.0456858C0.0335569 9.99962 0.0219364 9.94676 0.0133723 9.85303C0.00480829 9.75931 0 9.63236 0 9.5C0 9.36764 0.00480829 9.24067 0.0133723 9.14694C0.0219364 9.05321 0.0335569 9.00038 0.0456858 9H24.9543C24.9664 9.00038 24.9781 9.05321 24.9866 9.14694C24.9952 9.24067 25 9.36764 25 9.5C25 9.63236 24.9952 9.75931 24.9866 9.85303C24.9781 9.94676 24.9664 9.99962 24.9543 10Z" fill="white"/>
<path d="M24.9543 64H0.0456858C0.0335569 63.9996 0.0219364 63.9468 0.0133723 63.853C0.00480829 63.7593 0 63.6324 0 63.5C0 63.3676 0.00480829 63.2407 0.0133723 63.1469C0.0219364 63.0532 0.0335569 63.0004 0.0456858 63H24.9543C24.9664 63.0004 24.9781 63.0532 24.9866 63.1469C24.9952 63.2407 25 63.3676 25 63.5C25 63.6324 24.9952 63.7593 24.9866 63.853C24.9781 63.9468 24.9664 63.9996 24.9543 64Z" fill="white"/>
<path d="M24.9543 28H0.0456858C0.0335569 27.9996 0.0219364 27.9468 0.0133723 27.853C0.00480829 27.7593 0 27.6324 0 27.5C0 27.3676 0.00480829 27.2407 0.0133723 27.1469C0.0219364 27.0532 0.0335569 27.0004 0.0456858 27H24.9543C24.9664 27.0004 24.9781 27.0532 24.9866 27.1469C24.9952 27.2407 25 27.3676 25 27.5C25 27.6324 24.9952 27.7593 24.9866 27.853C24.9781 27.9468 24.9664 27.9996 24.9543 28Z" fill="white"/>
<path d="M24.9543 82H0.0456858C0.0335569 81.9996 0.0219364 81.9468 0.0133723 81.853C0.00480829 81.7593 0 81.6324 0 81.5C0 81.3676 0.00480829 81.2407 0.0133723 81.1469C0.0219364 81.0532 0.0335569 81.0004 0.0456858 81H24.9543C24.9664 81.0004 24.9781 81.0532 24.9866 81.1469C24.9952 81.2407 25 81.3676 25 81.5C25 81.6324 24.9952 81.7593 24.9866 81.853C24.9781 81.9468 24.9664 81.9996 24.9543 82Z" fill="white"/>
<path d="M24.9543 46H0.0456858C0.0335569 45.9996 0.0219364 45.9468 0.0133723 45.853C0.00480829 45.7593 0 45.6324 0 45.5C0 45.3676 0.00480829 45.2407 0.0133723 45.1469C0.0219364 45.0532 0.0335569 45.0004 0.0456858 45H24.9543C24.9664 45.0004 24.9781 45.0532 24.9866 45.1469C24.9952 45.2407 25 45.3676 25 45.5C25 45.6324 24.9952 45.7593 24.9866 45.853C24.9781 45.9468 24.9664 45.9996 24.9543 46Z" fill="white"/>
<path d="M24.9543 100H0.0456858C0.0335569 99.9996 0.0219364 99.9468 0.0133723 99.853C0.00480829 99.7593 0 99.6324 0 99.5C0 99.3676 0.00480829 99.2407 0.0133723 99.1469C0.0219364 99.0532 0.0335569 99.0004 0.0456858 99H24.9543C24.9664 99.0004 24.9781 99.0532 24.9866 99.1469C24.9952 99.2407 25 99.3676 25 99.5C25 99.6324 24.9952 99.7593 24.9866 99.853C24.9781 99.9468 24.9664 99.9996 24.9543 100Z" fill="white"/>
<path d="M24.9543 19H0.0456858C0.0335569 18.9996 0.0219364 18.9468 0.0133723 18.853C0.00480829 18.7593 0 18.6324 0 18.5C0 18.3676 0.00480829 18.2407 0.0133723 18.1469C0.0219364 18.0532 0.0335569 18.0004 0.0456858 18H24.9543C24.9664 18.0004 24.9781 18.0532 24.9866 18.1469C24.9952 18.2407 25 18.3676 25 18.5C25 18.6324 24.9952 18.7593 24.9866 18.853C24.9781 18.9468 24.9664 18.9996 24.9543 19Z" fill="white"/>
<path d="M24.9543 73H0.0456858C0.0335569 72.9996 0.0219364 72.9468 0.0133723 72.853C0.00480829 72.7593 0 72.6324 0 72.5C0 72.3676 0.00480829 72.2407 0.0133723 72.1469C0.0219364 72.0532 0.0335569 72.0004 0.0456858 72H24.9543C24.9664 72.0004 24.9781 72.0532 24.9866 72.1469C24.9952 72.2407 25 72.3676 25 72.5C25 72.6324 24.9952 72.7593 24.9866 72.853C24.9781 72.9468 24.9664 72.9996 24.9543 73Z" fill="white"/>
<path d="M24.9543 37H0.0456858C0.0335569 36.9996 0.0219364 36.9468 0.0133723 36.853C0.00480829 36.7593 0 36.6324 0 36.5C0 36.3676 0.00480829 36.2407 0.0133723 36.1469C0.0219364 36.0532 0.0335569 36.0004 0.0456858 36H24.9543C24.9664 36.0004 24.9781 36.0532 24.9866 36.1469C24.9952 36.2407 25 36.3676 25 36.5C25 36.6324 24.9952 36.7593 24.9866 36.853C24.9781 36.9468 24.9664 36.9996 24.9543 37Z" fill="white"/>
<path d="M24.9543 91H0.0456858C0.0335569 90.9996 0.0219364 90.9468 0.0133723 90.853C0.00480829 90.7593 0 90.6324 0 90.5C0 90.3676 0.00480829 90.2407 0.0133723 90.1469C0.0219364 90.0532 0.0335569 90.0004 0.0456858 90H24.9543C24.9664 90.0004 24.9781 90.0532 24.9866 90.1469C24.9952 90.2407 25 90.3676 25 90.5C25 90.6324 24.9952 90.7593 24.9866 90.853C24.9781 90.9468 24.9664 90.9996 24.9543 91Z" fill="white"/>
<path d="M24.9543 55H0.0456858C0.0335569 54.9996 0.0219364 54.9468 0.0133723 54.853C0.00480829 54.7593 0 54.6324 0 54.5C0 54.3676 0.00480829 54.2407 0.0133723 54.1469C0.0219364 54.0532 0.0335569 54.0004 0.0456858 54H24.9543C24.9664 54.0004 24.9781 54.0532 24.9866 54.1469C24.9952 54.2407 25 54.3676 25 54.5C25 54.6324 24.9952 54.7593 24.9866 54.853C24.9781 54.9468 24.9664 54.9996 24.9543 55Z" fill="white"/>
<path d="M24.9543 109H0.0456858C0.0335569 109 0.0219364 108.947 0.0133723 108.853C0.00480829 108.759 0 108.632 0 108.5C0 108.368 0.00480829 108.241 0.0133723 108.147C0.0219364 108.053 0.0335569 108 0.0456858 108H24.9543C24.9664 108 24.9781 108.053 24.9866 108.147C24.9952 108.241 25 108.368 25 108.5C25 108.632 24.9952 108.759 24.9866 108.853C24.9781 108.947 24.9664 109 24.9543 109Z" fill="white"/>
<path d="M24.9543 118H0.0456858C0.0335569 118 0.0219364 117.947 0.0133723 117.853C0.00480829 117.759 0 117.632 0 117.5C0 117.368 0.00480829 117.241 0.0133723 117.147C0.0219364 117.053 0.0335569 117 0.0456858 117H24.9543C24.9664 117 24.9781 117.053 24.9866 117.147C24.9952 117.241 25 117.368 25 117.5C25 117.632 24.9952 117.759 24.9866 117.853C24.9781 117.947 24.9664 118 24.9543 118Z" fill="white"/>
<path d="M24.9543 172H0.0456858C0.0335569 172 0.0219364 171.947 0.0133723 171.853C0.00480829 171.759 0 171.632 0 171.5C0 171.368 0.00480829 171.241 0.0133723 171.147C0.0219364 171.053 0.0335569 171 0.0456858 171H24.9543C24.9664 171 24.9781 171.053 24.9866 171.147C24.9952 171.241 25 171.368 25 171.5C25 171.632 24.9952 171.759 24.9866 171.853C24.9781 171.947 24.9664 172 24.9543 172Z" fill="white"/>
<path d="M24.9543 136H0.0456858C0.0335569 136 0.0219364 135.947 0.0133723 135.853C0.00480829 135.759 0 135.632 0 135.5C0 135.368 0.00480829 135.241 0.0133723 135.147C0.0219364 135.053 0.0335569 135 0.0456858 135H24.9543C24.9664 135 24.9781 135.053 24.9866 135.147C24.9952 135.241 25 135.368 25 135.5C25 135.632 24.9952 135.759 24.9866 135.853C24.9781 135.947 24.9664 136 24.9543 136Z" fill="white"/>
<path d="M24.9543 190H0.0456858C0.0335569 190 0.0219364 189.947 0.0133723 189.853C0.00480829 189.759 0 189.632 0 189.5C0 189.368 0.00480829 189.241 0.0133723 189.147C0.0219364 189.053 0.0335569 189 0.0456858 189H24.9543C24.9664 189 24.9781 189.053 24.9866 189.147C24.9952 189.241 25 189.368 25 189.5C25 189.632 24.9952 189.759 24.9866 189.853C24.9781 189.947 24.9664 190 24.9543 190Z" fill="white"/>
<path d="M24.9543 226H0.0456858C0.0335569 226 0.0219364 225.947 0.0133723 225.853C0.00480829 225.759 0 225.632 0 225.5C0 225.368 0.00480829 225.241 0.0133723 225.147C0.0219364 225.053 0.0335569 225 0.0456858 225H24.9543C24.9664 225 24.9781 225.053 24.9866 225.147C24.9952 225.241 25 225.368 25 225.5C25 225.632 24.9952 225.759 24.9866 225.853C24.9781 225.947 24.9664 226 24.9543 226Z" fill="white"/>
<path d="M24.9543 154H0.0456858C0.0335569 154 0.0219364 153.947 0.0133723 153.853C0.00480829 153.759 0 153.632 0 153.5C0 153.368 0.00480829 153.241 0.0133723 153.147C0.0219364 153.053 0.0335569 153 0.0456858 153H24.9543C24.9664 153 24.9781 153.053 24.9866 153.147C24.9952 153.241 25 153.368 25 153.5C25 153.632 24.9952 153.759 24.9866 153.853C24.9781 153.947 24.9664 154 24.9543 154Z" fill="white"/>
<path d="M24.9543 208H0.0456858C0.0335569 208 0.0219364 207.947 0.0133723 207.853C0.00480829 207.759 0 207.632 0 207.5C0 207.368 0.00480829 207.241 0.0133723 207.147C0.0219364 207.053 0.0335569 207 0.0456858 207H24.9543C24.9664 207 24.9781 207.053 24.9866 207.147C24.9952 207.241 25 207.368 25 207.5C25 207.632 24.9952 207.759 24.9866 207.853C24.9781 207.947 24.9664 208 24.9543 208Z" fill="white"/>
<path d="M24.9543 244H0.0456858C0.0335569 244 0.0219364 243.947 0.0133723 243.853C0.00480829 243.759 0 243.632 0 243.5C0 243.368 0.00480829 243.241 0.0133723 243.147C0.0219364 243.053 0.0335569 243 0.0456858 243H24.9543C24.9664 243 24.9781 243.053 24.9866 243.147C24.9952 243.241 25 243.368 25 243.5C25 243.632 24.9952 243.759 24.9866 243.853C24.9781 243.947 24.9664 244 24.9543 244Z" fill="white"/>
<path d="M24.9543 127H0.0456858C0.0335569 127 0.0219364 126.947 0.0133723 126.853C0.00480829 126.759 0 126.632 0 126.5C0 126.368 0.00480829 126.241 0.0133723 126.147C0.0219364 126.053 0.0335569 126 0.0456858 126H24.9543C24.9664 126 24.9781 126.053 24.9866 126.147C24.9952 126.241 25 126.368 25 126.5C25 126.632 24.9952 126.759 24.9866 126.853C24.9781 126.947 24.9664 127 24.9543 127Z" fill="white"/>
<path d="M24.9543 181H0.0456858C0.0335569 181 0.0219364 180.947 0.0133723 180.853C0.00480829 180.759 0 180.632 0 180.5C0 180.368 0.00480829 180.241 0.0133723 180.147C0.0219364 180.053 0.0335569 180 0.0456858 180H24.9543C24.9664 180 24.9781 180.053 24.9866 180.147C24.9952 180.241 25 180.368 25 180.5C25 180.632 24.9952 180.759 24.9866 180.853C24.9781 180.947 24.9664 181 24.9543 181Z" fill="white"/>
<path d="M24.9543 145H0.0456858C0.0335569 145 0.0219364 144.947 0.0133723 144.853C0.00480829 144.759 0 144.632 0 144.5C0 144.368 0.00480829 144.241 0.0133723 144.147C0.0219364 144.053 0.0335569 144 0.0456858 144H24.9543C24.9664 144 24.9781 144.053 24.9866 144.147C24.9952 144.241 25 144.368 25 144.5C25 144.632 24.9952 144.759 24.9866 144.853C24.9781 144.947 24.9664 145 24.9543 145Z" fill="white"/>
<path d="M24.9543 199H0.0456858C0.0335569 199 0.0219364 198.947 0.0133723 198.853C0.00480829 198.759 0 198.632 0 198.5C0 198.368 0.00480829 198.241 0.0133723 198.147C0.0219364 198.053 0.0335569 198 0.0456858 198H24.9543C24.9664 198 24.9781 198.053 24.9866 198.147C24.9952 198.241 25 198.368 25 198.5C25 198.632 24.9952 198.759 24.9866 198.853C24.9781 198.947 24.9664 199 24.9543 199Z" fill="white"/>
<path d="M24.9543 235H0.0456858C0.0335569 235 0.0219364 234.947 0.0133723 234.853C0.00480829 234.759 0 234.632 0 234.5C0 234.368 0.00480829 234.241 0.0133723 234.147C0.0219364 234.053 0.0335569 234 0.0456858 234H24.9543C24.9664 234 24.9781 234.053 24.9866 234.147C24.9952 234.241 25 234.368 25 234.5C25 234.632 24.9952 234.759 24.9866 234.853C24.9781 234.947 24.9664 235 24.9543 235Z" fill="white"/>
<path d="M24.9543 163H0.0456858C0.0335569 163 0.0219364 162.947 0.0133723 162.853C0.00480829 162.759 0 162.632 0 162.5C0 162.368 0.00480829 162.241 0.0133723 162.147C0.0219364 162.053 0.0335569 162 0.0456858 162H24.9543C24.9664 162 24.9781 162.053 24.9866 162.147C24.9952 162.241 25 162.368 25 162.5C25 162.632 24.9952 162.759 24.9866 162.853C24.9781 162.947 24.9664 163 24.9543 163Z" fill="white"/>
<path d="M24.9543 217H0.0456858C0.0335569 217 0.0219364 216.947 0.0133723 216.853C0.00480829 216.759 0 216.632 0 216.5C0 216.368 0.00480829 216.241 0.0133723 216.147C0.0219364 216.053 0.0335569 216 0.0456858 216H24.9543C24.9664 216 24.9781 216.053 24.9866 216.147C24.9952 216.241 25 216.368 25 216.5C25 216.632 24.9952 216.759 24.9866 216.853C24.9781 216.947 24.9664 217 24.9543 217Z" fill="white"/>
<path d="M24.9543 253H0.0456858C0.0335569 253 0.0219364 252.947 0.0133723 252.853C0.00480829 252.759 0 252.632 0 252.5C0 252.368 0.00480829 252.241 0.0133723 252.147C0.0219364 252.053 0.0335569 252 0.0456858 252H24.9543C24.9664 252 24.9781 252.053 24.9866 252.147C24.9952 252.241 25 252.368 25 252.5C25 252.632 24.9952 252.759 24.9866 252.853C24.9781 252.947 24.9664 253 24.9543 253Z" fill="white"/>
<path d="M180.814 250.456L175.643 251.182L169.415 194.055L159.472 250.94L154.136 251.182V179.047H187.119L180.814 250.456Z" fill="#0B4870"/>
<path d="M156.822 261.972C157.633 261.995 158.429 261.746 159.083 261.266C159.736 260.785 160.21 260.1 160.428 259.319L160.806 253.694L160.044 249.705C158.036 248.057 156.005 248.092 153.954 249.705L153.3 258.061C153.262 258.551 153.323 259.044 153.482 259.51C153.64 259.975 153.891 260.404 154.221 260.77C154.55 261.136 154.95 261.431 155.398 261.637C155.845 261.844 156.329 261.958 156.822 261.972Z" fill="#2F2E41"/>
<path d="M178.163 261.972C178.975 261.995 179.771 261.746 180.424 261.266C181.078 260.785 181.552 260.1 181.77 259.319L182.148 253.694L181.386 249.705C179.378 248.057 177.347 248.092 175.296 249.705L174.642 258.061C174.603 258.551 174.665 259.044 174.823 259.51C174.982 259.975 175.233 260.404 175.563 260.77C175.892 261.136 176.292 261.431 176.739 261.637C177.186 261.844 177.671 261.958 178.163 261.972Z" fill="#2F2E41"/>
<path d="M165.777 116.031C165.777 116.031 166.235 122.227 166.026 122.592C165.818 122.956 169.69 129.502 169.69 129.502L175.881 123.808C175.881 123.808 175.507 115.931 175.905 115.575C176.304 115.22 165.777 116.031 165.777 116.031Z" fill="#FFE3CA"/>
<path d="M188.574 180.257H153.409C157.967 159.174 157.954 142.194 154.323 128.461C154.092 127.587 154.192 126.658 154.605 125.853C155.018 125.048 155.713 124.424 156.559 124.099L166.02 120.468C168.86 124.129 172.868 125.728 179.116 123.372L184.074 124.387C185.281 124.633 186.358 125.307 187.105 126.284C187.853 127.262 188.22 128.477 188.139 129.704C187.774 135.074 187.918 140.486 187.604 145.158C186.632 159.625 186.212 170.903 188.574 180.257Z" fill="#9F65E3"/>
<path d="M153.298 180.726H188.464C183.906 159.643 183.918 142.663 187.549 128.93C187.78 128.056 187.68 127.127 187.267 126.322C186.855 125.517 186.159 124.892 185.313 124.568L175.852 120.936C173.012 124.597 169.004 126.196 162.756 123.841L157.799 124.856C156.592 125.102 155.514 125.776 154.767 126.753C154.019 127.731 153.652 128.945 153.733 130.172C154.098 135.543 153.954 140.955 154.268 145.627C155.24 160.093 155.66 171.371 153.298 180.726Z" fill="#9F65E3"/>
<path d="M190.272 174.932L187.159 179.097C186.835 179.53 186.6 180.024 186.469 180.549C186.337 181.074 186.312 181.62 186.394 182.155C186.476 182.69 186.664 183.204 186.947 183.665C187.23 184.127 187.601 184.528 188.041 184.845C188.607 185.254 189.268 185.51 189.962 185.591C190.655 185.672 191.358 185.575 192.003 185.308C192.648 185.041 193.214 184.613 193.646 184.066C194.079 183.519 194.364 182.87 194.474 182.182L195.365 176.626L197.063 152.662L195.85 140.559L188.089 143.464L190.272 153.872V174.932Z" fill="#FFE3CA"/>
<path d="M187.119 146.368L196.577 142.011L196.092 138.582C196.092 135.742 195.232 132.969 193.625 130.626C192.018 128.283 189.738 126.48 187.086 125.454L184.209 124.341L187.119 146.368Z" fill="#9F65E3"/>
<path d="M152.681 173.964L155.794 178.128C156.119 178.562 156.353 179.056 156.485 179.581C156.616 180.106 156.641 180.652 156.559 181.187C156.477 181.722 156.289 182.235 156.006 182.697C155.724 183.159 155.352 183.56 154.912 183.877C154.346 184.285 153.685 184.542 152.992 184.623C152.298 184.704 151.595 184.606 150.95 184.339C150.305 184.072 149.74 183.645 149.307 183.098C148.874 182.551 148.589 181.902 148.479 181.214L147.588 175.658L145.891 151.694L147.103 139.591L154.864 142.495L152.681 152.904V173.964Z" fill="#FFE3CA"/>
<path d="M155.834 145.4L146.376 141.043L146.861 137.613C146.861 134.774 147.721 132.001 149.328 129.658C150.936 127.315 153.215 125.512 155.867 124.486L158.744 123.372L155.834 145.4Z" fill="#9F65E3"/>
<path d="M184 108.958C184 116.668 178.179 127 171 127C163.821 127 158 116.668 158 108.958C158 101.249 163.821 95 171 95C178.179 94.9972 184 101.249 184 108.958Z" fill="#FFE3CA"/>
<path d="M165.135 97.7959C165.328 102.016 168.639 105.724 172.666 107.923C176.694 110.122 181.394 111.079 186 112C185.145 108.409 184.233 104.762 182.198 101.574C180.162 98.3887 176.8 95.6772 172.748 95.1135C170.343 94.7806 167.879 95.218 165.583 95.9323C163.371 96.6223 161.178 97.6282 159.778 99.3096C157.37 102.201 157.9 106.205 158.54 109.765C161.178 106.927 164.467 104.575 168.142 102.898" fill="#0B4870"/>
</svg>
